<?xml version="1.0" encoding="UTF-8" standalone="no"?>
<!-- Created with Inkscape (http://www.inkscape.org/) -->

<svg
   width="313.68323mm"
   height="233.51306mm"
   viewBox="0 0 313.68322 233.51306"
   version="1.1"
   id="svg1"
   xml:space="preserve"
   inkscape:version="1.4.2 (ebf0e940d0, 2025-05-08)"
   sodipodi:docname="bunny_sleepy.svg"
   xmlns:inkscape="http://www.inkscape.org/namespaces/inkscape"
   xmlns:sodipodi="http://sodipodi.sourceforge.net/DTD/sodipodi-0.dtd"
   xmlns="http://www.w3.org/2000/svg"
   xmlns:svg="http://www.w3.org/2000/svg"><sodipodi:namedview
     id="namedview1"
     pagecolor="#ffffff"
     bordercolor="#000000"
     borderopacity="0.25"
     inkscape:showpageshadow="2"
     inkscape:pageopacity="0.0"
     inkscape:pagecheckerboard="0"
     inkscape:deskcolor="#d1d1d1"
     inkscape:document-units="mm"
     inkscape:zoom="0.18488392"
     inkscape:cx="2020.1865"
     inkscape:cy="689.6219"
     inkscape:window-width="1473"
     inkscape:window-height="795"
     inkscape:window-x="0"
     inkscape:window-y="0"
     inkscape:window-maximized="1"
     inkscape:current-layer="layer1" /><defs
     id="defs1" /><g
     inkscape:label="Layer 1"
     inkscape:groupmode="layer"
     id="layer1"
     transform="translate(47.388168,-22.856259)"><path
       style="fill:#ffffff;fill-opacity:1;stroke-width:2.27563"
       d="m -43.84643,27.826443 c -0.878463,1.952503 0.996718,12.81219 -0.169995,21.359746 0.983535,10.845329 0.372571,22.244515 0.437833,32.458594 -1.343961,13.207941 0.711884,23.338217 1.250049,37.090417 0.405495,18.18252 0.0092,24.52672 -0.505962,36.77208 0.09538,12.79074 0.191932,25.4655 -0.779486,33.78118 -0.590716,14.38196 -0.382898,26.15507 -0.223729,37.74141 0.409207,10.51814 -3.512962,19.95998 4.945515,23.70031 8.458477,3.74033 29.2975991,1.77916 39.15919928,3.8021 7.02571002,-3.51978 29.41055972,-2.27295 38.27098972,-0.96613 11.83492,-3.14681 28.60839,-2.21708 43.81689,-0.77342 10.07264,-1.27357 24.602216,-0.78772 39.451756,-0.0547 11.73607,-1.19274 24.29113,-0.98438 35.9243,-3.44173 32.80357,1.61353 48.03078,1.6775 77.71395,0.69481 6.26244,-0.86534 16.81694,-1.9063 21.58634,-2.23867 8.62096,-0.60078 4.49138,-8.18516 4.11509,-14.08769 -1.07523,-18.15079 -2.15397,-28.82257 -2.97622,-44.35018 -1.76324,-17.53177 0.003,-24.67452 0.19809,-40.00273 -0.4734,-12.16844 -0.69322,-24.32443 -0.0322,-36.49901 -0.0139,-27.559051 -1.11529,-45.206981 -1.13469,-72.729007 0.22855,-3.827518 3.07637,-9.96123 0.28264,-12.478864 -2.79374,-2.517635 -11.22902,-1.419191 -14.96267,-0.799943 -14.83694,0.02298 -23.12498,-1.05395 -37.94008,-1.021447 -14.75174,2.211805 -35.58324,3.181773 -47.78568,1.689231 -15.64146,-0.27881 -25.08544,3.25086 -41.882,1.175378 -20.011396,-0.851372 -30.529456,-0.918436 -54.025676,-4.396789 -11.21965,2.325888 -25.89365,4.027398 -41.46892,2.778707 -14.8441297,-1.863589 -60.683806,-1.647375 -63.265324,0.796357 z"
       id="path2"
       sodipodi:nodetypes="cccccccsccccccscccccscccccccc" /><path
       style="fill:#000000"
       d="m -3.7343083,256.08123 c -1.5279685,-0.19182 -4.5045315,-0.36235 -6.6145837,-0.37896 -2.110053,-0.0166 -4.610365,-0.1543 -5.556251,-0.30598 -0.945885,-0.15168 -4.99401,-0.37493 -8.995833,-0.49611 -6.3577,-0.19251 -7.493105,-0.29204 -8.995834,-0.78855 -1.364541,-0.45085 -2.414059,-0.57471 -5.080792,-0.59962 -1.902612,-0.0178 -3.509906,0.0841 -3.704167,0.23483 -1.151212,0.89312 -2.869967,0.39166 -3.346901,-0.97647 -0.163471,-0.46893 -0.242487,-0.94116 -0.175591,-1.0494 0.208904,-0.33801 -0.37091,-15.57707 -0.786814,-20.67956 -0.217864,-2.67285 -0.396555,-7.30051 -0.397092,-10.28369 -0.0011,-6.11312 0.748739,-34.37741 0.91934,-34.65345 0.06086,-0.0985 0.176302,-6.24228 0.256538,-13.6529 0.08024,-7.41062 0.286151,-17.13779 0.457587,-21.61593 0.309866,-8.09411 0.06226,-21.39354 -0.599608,-32.20689 -0.129154,-2.11005 -0.362153,-9.55146 -0.517776,-16.53645 -0.155623,-6.985 -0.346939,-15.14079 -0.425146,-18.12396 -0.140933,-5.37585 -0.04433,-7.0111 1.096783,-18.56661 0.280653,-2.84204 0.306508,-5.73504 0.120595,-13.49375 -0.130158,-5.43185 -0.297447,-10.41188 -0.371752,-11.06673 -0.07431,-0.65484 -0.148303,-4.14788 -0.16444,-7.7623 -0.02889,-6.47199 -0.0203,-6.5813 0.566431,-7.20584 0.327673,-0.3488 1.023211,-0.71144 1.545641,-0.80587 0.52243,-0.0944 1.271382,-0.33439 1.664337,-0.53322 0.392956,-0.19883 1.166907,-0.36152 1.719891,-0.36152 0.552984,0 1.838819,-0.1796 2.85741,-0.39912 2.367015,-0.51011 10.811979,-0.90796 19.46174,-0.91685 8.728656,-0.009 22.1736468,0.83319 27.6339964,1.73092 1.3096876,0.21533 5.0229136,0.56239 8.2516116,0.77126 3.2287,0.20886 7.455419,0.6458 9.392709,0.97097 4.4318,0.74386 8.080259,0.74453 13.31193,0.002 2.182812,-0.30963 5.992812,-0.74329 8.466666,-0.96369 2.473855,-0.2204 5.559537,-0.58713 6.857072,-0.81495 3.235315,-0.56806 7.442526,-0.86801 10.605429,-0.7561 9.493659,0.33589 15.42875,0.68442 17.727084,1.04101 1.455208,0.22577 3.579195,0.5386 4.71997,0.69517 2.663932,0.36562 19.505538,0.15473 24.913368,-0.31197 3.74737,-0.3234 4.16061,-0.31038 7.40833,0.2335 3.14648,0.52692 4.45417,0.57928 15.34584,0.61438 7.2692,0.0234 13.6065,-0.0883 16.27187,-0.28696 9.2844,-0.69188 11.01469,-0.75544 13.62604,-0.50051 2.58094,0.25197 4.33786,0.18999 16.66875,-0.588 2.32834,-0.1469 5.72162,-0.37593 7.54063,-0.50896 5.9089,-0.43212 35.45122,-0.87161 51.85833,-0.77147 14.70504,0.0897 16.07705,0.13581 16.8647,0.56612 1.70002,0.92874 1.73097,1.08705 1.55035,7.9287 -0.0894,3.38511 -0.21929,7.64302 -0.28872,9.46203 -0.0694,1.81901 -0.10433,5.0337 -0.0776,7.14375 0.0499,3.93109 0.0496,5.40935 -0.002,12.30313 -0.065,8.67871 0.17753,15.73132 0.69595,20.24062 1.04111,9.05572 1.00385,22.59977 -0.10371,37.70312 -0.34346,4.68357 -0.39077,10.54304 -0.30122,37.30625 0.10694,31.96268 0.25859,37.72436 1.24653,47.36042 0.1492,1.45521 0.44625,5.56286 0.66013,9.12813 0.94082,15.68358 1.45454,22.11791 2.10188,26.32604 0.20147,1.30968 0.50104,3.36474 0.66571,4.56678 0.1806,1.31828 0.56373,2.695 0.96551,3.46942 0.62344,1.20165 0.64157,1.3426 0.28305,2.20065 -0.2418,0.57871 -0.66337,1.02105 -1.1432,1.19954 -0.41809,0.15551 -3.37953,0.48081 -6.58099,0.72287 -3.20146,0.24207 -7.41806,0.61464 -9.37024,0.82794 -2.42091,0.26452 -4.73424,0.33536 -7.27604,0.22281 -3.17013,-0.14037 -4.47733,-0.0624 -8.75372,0.52201 -5.88955,0.80488 -4.8487,0.77986 -22.75417,0.54714 -7.7126,-0.10023 -16.04697,-0.1704 -18.52083,-0.15592 -13.96858,0.0818 -18.53083,0.0325 -21.03248,-0.22728 -4.51406,-0.46869 -18.79179,-0.54236 -21.29227,-0.10987 -4.34367,0.75131 -14.40715,1.42748 -21.04296,1.41391 -4.38901,-0.009 -7.63573,0.12453 -10.05417,0.41345 -7.34301,0.87724 -18.645611,0.94549 -25.532291,0.15416 -2.111295,-0.2426 -13.954639,-0.44199 -18.707817,-0.31495 -0.975965,0.0261 -3.000028,-0.0791 -4.497917,-0.23385 -3.949003,-0.40786 -13.787774,-1.062 -15.986278,-1.06286 -1.037168,-4.1e-4 -4.292166,0.35294 -7.233329,0.78522 -3.873828,0.56936 -7.61976,0.89915 -13.592365,1.19665 -4.534638,0.22587 -10.32839,0.60287 -12.875005,0.83778 -6.137378,0.56612 -19.78822385,0.69595 -23.5479163,0.22395 z M 18.3584,251.72546 c 3.638021,-0.29126 10.186459,-0.71078 14.552084,-0.93226 4.365625,-0.22149 9.544844,-0.64283 11.509375,-0.9363 1.964531,-0.29348 4.464844,-0.66414 5.55625,-0.82369 1.235856,-0.18067 3.591031,-0.22481 6.243729,-0.11703 l 4.259353,0.17307 0.181347,-3.43508 c 0.09974,-1.8893 0.180927,-7.57929 0.180414,-12.64442 -5.12e-4,-5.06513 0.108125,-10.75714 0.241415,-12.64891 0.13329,-1.89177 0.191414,-4.39208 0.129165,-5.55625 -0.06225,-1.16416 -0.23985,-5.27182 -0.394668,-9.12812 -0.154817,-3.8563 -0.338808,-7.4902 -0.408868,-8.07533 l -0.127383,-1.06387 -3.072659,-0.47401 c -4.05187,-0.62507 -13.157347,-1.04204 -18.608928,-0.85217 -2.504884,0.0872 -6.903001,0.002 -10.318751,-0.20017 l -5.953125,-0.35221 -1.637376,1.76038 c -1.698482,1.82608 -3.717744,3.03045 -6.175733,3.68346 -1.714348,0.45545 -3.933261,-0.37733 -5.0264879,-1.88649 -0.7617667,-1.05159 -0.8514779,-1.25663 -1.1637685,-2.6599 -0.1455951,-0.65423 -0.2748131,-0.72731 -1.2813626,-0.7247 -0.6156911,0.002 -1.5550036,0.0749 -2.0873611,0.16298 -0.9024414,0.14923 -1.0074966,0.26859 -1.5528902,1.76439 -0.6368071,1.7465 -1.8021461,3.04615 -3.56460385,3.97544 -0.8268236,0.43596 -1.47722965,0.54856 -2.97329375,0.51473 -1.7186379,-0.0388 -2.1021439,-0.15261 -3.7407789,-1.10962 -2.066315,-1.2068 -4.0799882,-3.28364 -4.5424692,-4.68497 l -0.311329,-0.94334 -2.55044,0.17626 c -1.912924,0.1322 -3.211802,0.0593 -5.196274,-0.29157 -3.130654,-0.55356 -3.773967,-0.56364 -7.9375,-0.12445 -1.74625,0.1842 -5.814292,0.35517 -9.040094,0.37993 -3.225801,0.0248 -5.920978,0.10455 -5.98928,0.17731 -0.0683,0.0728 -0.249431,3.40651 -0.402507,7.40834 -0.346966,9.07062 -0.239241,26.20577 0.194616,30.95625 0.179419,1.96453 0.406984,6.36984 0.505699,9.78958 l 0.179482,6.21771 3.307292,0.0318 c 2.65767,0.0255 3.67108,0.14978 5.159375,0.63264 1.641071,0.53244 2.650919,0.62527 8.863542,0.81486 3.856302,0.11767 7.785365,0.3366 8.73125,0.48651 0.945886,0.14991 3.386667,0.28613 5.423959,0.30272 2.0372922,0.0166 5.0138552,0.17992 6.6145841,0.36296 4.74994905,0.54316 14.7069479,0.49548 22.2249999,-0.10641 z m 97.23438,-1.21386 c 2.15821,-0.28549 6.66261,-0.5108 12.96458,-0.64848 10.17405,-0.22228 13.59276,-0.45459 19.83649,-1.34789 2.34123,-0.33497 4.28368,-0.4797 4.99879,-0.37246 0.64328,0.0965 2.69358,0.0911 4.55622,-0.0119 l 3.38662,-0.1873 0.0732,-12.07156 c 0.13156,-21.68951 0.0928,-38.08568 -0.0904,-38.26873 -0.0988,-0.0987 -2.95631,-0.022 -6.35,0.17041 -3.39369,0.19245 -10.12229,0.35266 -14.95243,0.35604 l -8.78208,0.006 -0.87521,0.83028 c -1.19376,1.13247 -2.18623,1.59093 -4.47978,2.06942 -3.26108,0.68033 -3.93225,0.58671 -5.61377,-0.78305 -0.8039,-0.65485 -1.53722,-1.42876 -1.62959,-1.71979 -0.22094,-0.69614 -1.34372,-0.70267 -1.71444,-0.01 -0.37161,0.69436 -2.37723,2.05169 -3.77275,2.55327 -0.62006,0.22286 -1.98469,0.40481 -3.0325,0.40434 -2.27171,-0.001 -3.7532,-0.57948 -5.0921,-1.98825 -0.68924,-0.72521 -1.12516,-0.95938 -1.78594,-0.95938 -0.48457,0 -0.87414,0.13619 -0.87414,0.30559 0,0.194 -0.16907,0.15848 -0.46302,-0.0973 -0.37572,-0.32691 -1.6853,-0.43301 -6.945313,-0.5627 -3.56526,-0.0879 -8.446823,-0.33448 -10.847917,-0.54795 -2.401094,-0.21347 -7.796661,-0.45469 -11.99015,-0.53605 l -7.624525,-0.14794 0.145499,1.25619 c 0.482409,4.16494 1.002551,26.54147 0.635638,27.34518 -0.106563,0.23343 -0.238929,5.68315 -0.294146,12.1105 -0.100291,11.67399 -0.09982,11.68622 0.451665,11.7995 2.124903,0.43649 7.987719,0.70083 15.539286,0.70064 4.853901,-1.2e-4 10.075431,0.12357 11.6034,0.27488 1.527969,0.1513 3.671094,0.36494 4.7625,0.47474 3.305313,0.33252 14.599683,0.0873 18.256253,-0.39641 z m 115.28895,-1.90137 c 4.2725,-0.59036 6.22073,-0.72354 10.65272,-0.72822 3.67222,-0.004 7.61744,-0.21394 12.21569,-0.65043 6.70322,-0.6363 6.7933,-0.65285 6.91117,-1.26944 0.11026,-0.5768 -0.42127,-5.52473 -0.73836,-6.87324 -0.21267,-0.90442 -0.86907,-7.93317 -1.18067,-12.64264 -0.15406,-2.32833 -0.39872,-5.72161 -0.5437,-7.54062 -0.14497,-1.81902 -0.38973,-5.56186 -0.5439,-8.31744 -0.15418,-2.75558 -0.44857,-6.74418 -0.65422,-8.86354 -0.20565,-2.11937 -0.37634,-3.93168 -0.37933,-4.02735 -0.003,-0.0957 -0.63051,-0.22987 -1.39449,-0.29821 -0.76399,-0.0683 -1.86884,-0.25266 -2.45524,-0.4096 -0.58639,-0.15693 -2.78905,-0.33983 -4.89479,-0.40645 -2.10574,-0.0666 -4.99774,-0.20896 -6.42666,-0.31632 l -2.59804,-0.1952 0.0845,1.02471 0.0845,1.02471 1.25009,-0.0783 c 1.11845,-0.07 1.46323,0.0616 3.27402,1.25041 1.11316,0.73078 2.36487,1.40357 2.78158,1.4951 0.89166,0.19584 1.82243,1.27356 1.82243,2.11015 0,1.04976 -0.97642,1.9847 -2.06972,1.98179 -1.08725,-0.003 -3.15861,-0.88726 -4.92566,-2.10302 -1.40816,-0.96884 -1.47128,-0.97629 -1.47128,-0.17378 0,0.39429 0.2692,0.80742 0.71757,1.1012 0.39467,0.2586 1.50134,1.19503 2.45927,2.08095 0.95793,0.88593 2.08759,1.85731 2.51034,2.15862 1.57134,1.11995 0.72493,3.5532 -1.23597,3.5532 -1.05134,0 -1.47351,-0.25583 -3.71891,-2.25368 -1.05761,-0.94102 -2.00656,-1.71187 -2.10879,-1.713 -0.10222,-10e-4 -0.66245,1.00107 -1.24495,2.22713 -0.58249,1.22605 -1.24612,2.33386 -1.47472,2.46179 -0.35471,0.19851 -0.2535,0.48256 0.6905,1.93799 0.60838,0.93797 1.33353,2.24118 1.61146,2.89602 0.27793,0.65485 0.90326,2.02406 1.38962,3.04271 2.74057,5.73992 3.24545,7.37383 3.51552,11.37708 0.4144,6.14256 0.14671,7.65036 -1.58931,8.95194 -2.01749,1.51261 -3.0572,1.84128 -5.21145,1.64744 -1.0993,-0.0989 -2.11183,-0.29182 -2.25008,-0.42867 -0.13824,-0.13686 -0.57698,-0.24883 -0.97496,-0.24883 -1.1931,0 -1.90472,-0.40328 -3.33754,-1.89139 -2.29444,-2.383 -3.70221,-4.6313 -4.44842,-7.10444 -1.32051,-4.37652 -1.9347,-6.51814 -2.76958,-9.6573 -0.46442,-1.74625 -1.15877,-4.1275 -1.543,-5.29166 -0.76802,-2.32703 -0.5521,-2.19976 -3.12428,-1.84158 l -1.36788,0.19048 -0.2871,1.64866 c -0.15791,0.90676 -0.45307,2.83129 -0.65591,4.27673 -0.39654,2.82568 -1.27432,5.55058 -3.14032,9.74862 -0.64684,1.45521 -1.3249,3.27552 -1.50681,4.04514 -0.40148,1.69858 -2.46365,4.94107 -3.77935,5.94256 -1.29925,0.98896 -2.05769,1.24213 -4.28523,1.43043 -2.24282,0.18959 -3.07337,-0.11476 -4.99884,-1.83175 -1.15475,-1.02972 -1.29681,-1.29456 -1.76753,-3.2952 -0.72102,-3.0645 -0.50235,-11.03305 0.41587,-15.15472 0.85687,-3.84624 1.63198,-7.81907 1.83255,-9.39271 l 0.16862,-1.32291 -1.35926,-1.01327 c -0.7476,-0.55729 -1.59817,-1.41818 -1.89017,-1.91308 -0.50534,-0.85649 -0.56483,-0.88268 -1.23541,-0.54407 -0.38748,0.19566 -1.34686,0.43786 -2.13196,0.53822 -0.78509,0.10037 -1.88168,0.41421 -2.43685,0.69744 -1.31591,0.67133 -2.3059,0.65184 -3.06396,-0.0603 -0.66309,-0.62294 -0.80204,-1.75094 -0.32538,-2.64158 0.36512,-0.68223 2.62083,-1.6851 4.62257,-2.05514 0.85153,-0.15741 1.64011,-0.37808 1.7524,-0.49037 0.11229,-0.11229 0.0747,-0.6259 -0.0835,-1.14135 l -0.28763,-0.93718 -1.35949,0.18898 c -0.74772,0.10394 -1.98898,0.43939 -2.75835,0.74545 -2.63183,1.04696 -4.55427,0.4496 -4.55427,-1.41515 0,-0.94035 0.64059,-1.99712 1.2106,-1.99712 0.21276,0 1.24483,-0.29977 2.29349,-0.66615 1.04866,-0.36638 2.53471,-0.73996 3.30233,-0.83018 1.30837,-0.15377 1.39567,-0.20978 1.39567,-0.89547 0,-1.07073 -0.87589,-1.27089 -4.49792,-1.02787 -1.67349,0.11228 -6.73365,0.27816 -11.24479,0.36863 -4.51115,0.0905 -8.55927,0.21841 -8.99584,0.28432 l -0.79375,0.11984 v 13.16354 c 0,7.23995 -0.0404,17.74745 -0.0898,23.35 -0.0494,5.60255 -0.0823,11.14693 -0.0731,12.32083 l 0.0166,2.13438 4.83563,0.36246 c 2.6596,0.19935 7.51454,0.33564 10.78876,0.30286 10.61417,-0.10627 14.72759,-0.0999 28.53306,0.0439 7.47126,0.0779 13.65259,0.21006 13.73629,0.29376 0.29405,0.29405 2.22278,0.14546 7.40293,-0.57031 z m -26.16604,-11.12261 c 1.03762,-1.15826 1.75137,-2.47914 2.02566,-3.7487 0.10807,-0.50018 0.88557,-2.52424 1.7278,-4.49791 1.91029,-4.47661 2.45632,-6.40335 3.02539,-10.67559 0.37696,-2.82999 0.39649,-3.5941 0.1195,-4.67487 -0.28919,-1.12834 -0.2748,-1.37788 0.11362,-1.97068 0.55294,-0.8439 1.58215,-1.12269 2.67958,-0.72586 1.06027,0.3834 2.48609,0.38631 3.98789,0.008 1.63842,-0.41256 3.42116,-0.0941 4.34849,0.77688 0.89751,0.84294 1.93252,3.62158 3.31923,8.91096 0.53412,2.03729 1.12579,4.18042 1.31482,4.7625 0.18903,0.58208 0.71938,2.40092 1.17856,4.04187 0.64091,2.29043 1.10307,3.36722 1.9894,4.63512 1.50487,2.15274 2.04207,2.61366 3.53378,3.032 2.43627,0.68323 3.28948,0.69665 4.09081,0.0643 l 0.73681,-0.58142 -0.15249,-3.08241 c -0.20038,-4.05042 -0.56628,-5.86676 -1.63216,-8.10203 -0.48378,-1.01454 -0.8796,-2.00819 -0.8796,-2.20811 0,-0.19992 -0.24063,-0.70143 -0.53473,-1.11446 -0.29411,-0.41303 -0.69803,-1.2138 -0.89762,-1.77949 -0.55505,-1.57318 -1.59956,-3.48369 -2.78381,-5.09186 -1.68629,-2.28991 -1.76525,-2.51461 -1.25774,-3.57888 0.24104,-0.50547 0.5481,-0.91903 0.68235,-0.91903 0.13425,0 0.18869,-0.2119 0.12096,-0.47088 -0.19,-0.72656 0.35905,-1.88608 1.04,-2.19635 0.74575,-0.33978 2.5689,-3.81147 2.7635,-5.26231 0.0752,-0.56027 -0.0771,-2.23525 -0.33826,-3.7222 -0.41626,-2.36974 -0.60852,-2.88719 -1.55717,-4.191 -0.59526,-0.81811 -1.30957,-1.84466 -1.58735,-2.28122 -1.5387,-2.41819 -3.75024,-4.35604 -4.99181,-4.37404 -1.74566,-0.0253 -2.53561,-2.51207 -1.16053,-3.65329 0.96262,-0.7989 2.24394,-0.69 4.32809,0.36786 2.00429,1.01733 2.2905,1.29796 4.90677,4.81119 0.45892,0.61626 0.87401,1.08086 0.92241,1.03245 0.14258,-0.14258 -0.92583,-3.42437 -1.64211,-5.04401 -0.94368,-2.13383 -3.42688,-5.57163 -4.46838,-6.18613 -0.48758,-0.28769 -1.467,-0.66748 -2.17648,-0.844 -1.91865,-0.47734 -8.03977,-0.85492 -13.72538,-0.84665 -4.62185,0.007 -5.33634,0.074 -8.86354,0.835 -5.17196,1.1158 -7.32798,1.78199 -8.5941,2.65548 -1.85244,1.278 -2.03238,1.61236 -2.29917,4.27222 -0.13445,1.34037 -0.4352,2.75996 -0.66834,3.15463 -0.25914,0.4387 -0.34695,0.90901 -0.22592,1.21011 0.16151,0.40179 0.32426,0.22899 0.88355,-0.93816 0.7543,-1.57407 2.07078,-3.01087 3.59825,-3.92714 1.63799,-0.98256 3.00082,-0.72272 3.58316,0.68318 0.48292,1.16587 -0.15323,2.45385 -1.60693,3.25349 -0.9659,0.53131 -1.35885,1.01962 -2.42381,3.012 -1.62563,3.04129 -1.91479,4.41421 -1.56386,7.42495 0.46869,4.02106 2.82719,7.83632 5.55533,8.98666 0.60332,0.25439 1.02554,0.71243 1.38326,1.50059 0.65648,1.44644 0.65589,2.0892 -0.003,2.92643 -0.29104,0.37 -0.52917,0.90469 -0.52917,1.18821 0,0.51578 -1.58668,8.36966 -2.07864,10.28905 -0.14354,0.56004 -0.34252,3.16491 -0.44218,5.7886 -0.19536,5.14362 -0.002,6.57737 1.04442,7.75523 0.4846,0.54533 0.70844,0.60006 1.87328,0.45803 1.09076,-0.133 1.47811,-0.33455 2.20728,-1.1485 z m -92.40128,-41.09874 0.60564,-0.56897 -0.91259,-1.19518 c -0.50193,-0.65736 -0.9126,-1.27419 -0.9126,-1.37073 0,-0.0966 -0.72103,-0.8831 -1.60229,-1.74789 -1.78748,-1.75408 -2.63104,-3.14224 -2.63104,-4.32963 0,-1.02787 0.90107,-1.87293 1.99705,-1.87293 0.91849,0 1.60563,0.68655 3.97217,3.96875 0.682,0.94589 1.85035,2.34319 2.59633,3.10512 1.79066,1.82896 2.63233,1.88855 3.78955,0.26832 0.44173,-0.61846 1.07359,-1.66026 1.40414,-2.3151 1.62655,-3.22234 2.97957,-3.84553 5.5091,-2.53746 1.00819,0.52136 0.9366,0.73671 -0.8624,2.59398 -0.81027,0.83651 -1.20802,1.47564 -1.20802,1.94112 0,0.38169 -0.34657,1.18969 -0.77015,1.79556 -1.07215,1.53357 -1.19545,2.10747 -0.57364,2.6702 0.48088,0.43519 0.6352,0.43953 2.28072,0.0642 1.04045,-0.23733 2.03815,-0.65509 2.43049,-1.0177 2.1008,-1.94158 3.47611,-3.54581 3.60886,-4.20951 0.3274,-1.63704 2.05427,-2.33909 3.4707,-1.41101 0.84162,0.55145 1.29665,1.92467 0.94459,2.85064 l -0.26597,0.69957 h 1.53657 1.53657 l -0.10154,-1.52136 c -0.12682,-1.90002 -0.79631,-4.86222 -1.44183,-6.37939 -0.67458,-1.5855 -3.32366,-5.17769 -5.0277,-6.81765 l -1.40996,-1.35693 -2.78036,0.86243 c -4.13626,1.283 -8.89934,1.80592 -15.0147,1.6484 -4.55893,-0.11742 -5.18687,-0.19413 -7.7816,-0.95061 -1.55237,-0.45258 -3.22908,-1.06276 -3.72603,-1.35597 l -0.90354,-0.5331 -0.82126,1.02195 c -0.883175,1.099 -2.227843,4.89272 -2.68564,7.57702 -0.247842,1.45323 -0.324224,4.08348 -0.201691,6.94531 l 0.04815,1.12448 h 1.373448 c 0.755396,0 1.447032,0.11906 1.536969,0.26459 0.08994,0.14552 0.389564,0.26458 0.665838,0.26458 0.463506,0 0.441866,-0.12778 -0.279989,-1.65365 -0.430269,-0.9095 -0.7824,-2.00316 -0.782515,-2.43034 -3.92e-4,-1.45828 1.55646,-2.40277 3.02911,-1.83766 0.23473,0.0901 0.78726,0.89033 1.22785,1.77835 0.4406,0.88803 1.41915,2.27346 2.17456,3.07874 0.75541,0.80528 1.8118,1.96085 2.34752,2.56794 1.35088,1.53085 3.18755,1.65892 4.61113,0.32153 z m -113.6471156,0.0475 c 1.36385535,-1.36385 0.86089875,-3.31172 -1.4388789,-5.57254 -1.2069233,-1.18648 -2.0210573,-2.93593 -2.0210573,-4.34295 0,-1.51835 2.3789924,-2.3681 3.3734378,-1.20496 0.45397815,0.53099 1.05391835,1.10897 2.939479,2.83187 0.6786433,0.6201 0.815032,0.8599 0.4890814,0.8599 -0.5874011,0 -0.5710625,0.12461 0.1433147,1.09301 l 0.5953125,0.80699 2.9104167,-0.1811 c 2.8815748,-0.17931 4.1010418,-0.55827 4.1010418,-1.27443 0,-0.18539 0.4852299,-0.80773 1.0782889,-1.38296 0.593059,-0.57524 1.252443,-1.45825 1.465299,-1.96224 0.775968,-1.83733 1.912495,-2.56246 3.272931,-2.08821 0.88894,0.30988 1.327231,0.92361 1.327231,1.8585 0,0.78128 -1.358257,3.39357 -1.764914,3.39439 -0.170339,3.5e-4 -0.384874,0.34287 -0.476746,0.76115 -0.09187,0.41829 -0.469832,1.04337 -0.839912,1.38907 -1.343832,1.25529 -1.809274,3.03274 -1.061824,4.05494 0.818948,1.11998 4.018003,-0.49094 5.579485,-2.80961 0.519838,-0.77191 0.945161,-1.66736 0.945161,-1.98987 0,-2.5375 3.013996,-3.26158 4.094891,-0.98376 0.401854,0.84684 0.507487,0.90163 1.738356,0.90163 0.874432,0 1.308994,-0.11005 1.305969,-0.33073 -0.0079,-0.57508 -0.960906,-3.99313 -1.4058,-5.04196 -0.617481,-1.4557 -3.34519,-5.12182 -4.98491,-6.69987 l -1.409965,-1.35694 -2.780358,0.86243 c -4.136256,1.283 -8.8993336,1.80592 -15.01469835,1.64841 -4.55893355,-0.11743 -5.18687145,-0.19414 -7.78160045,-0.95061 -1.552369,-0.45258 -3.2290812,-1.06277 -3.7260262,-1.35598 l -0.903537,-0.5331 -0.821263,1.02196 c -1.461612,1.81878 -2.971476,7.38292 -2.971476,10.95047 v 1.82107 l 0.724471,-0.0837 c 0.617126,-0.0713 0.74924,-0.23733 0.891631,-1.12044 0.200633,-1.24434 0.799385,-1.74141 2.097628,-1.74141 1.184104,0 1.631207,0.4552 2.4895622,2.53462 1.840797,4.45947 3.068813,6.0097 5.3060839,6.69834 1.3157221,0.40498 1.7253779,0.32716 2.5338943,-0.48136 z m 93.6421496,-2.88363 c 0,-0.26512 -0.190813,-1.04204 -0.424028,-1.72649 -0.462496,-1.35735 -0.433992,-1.78211 0.401003,-5.97566 1.046044,-5.25348 2.214294,-8.44084 3.724026,-10.16033 l 0.787336,-0.89673 -0.551513,-0.49911 c -0.398729,-0.36084 -2.451362,-3.55339 -2.73374,-4.2519 -0.01055,-0.0261 -0.581364,0.0724 -1.268471,0.21898 -0.739347,0.15769 -2.121359,0.84681 -3.385765,1.68826 -1.175065,0.782 -2.365629,1.49454 -2.645698,1.58343 -0.69693,0.2212 -1.873658,-0.38995 -2.334743,-1.21259 -0.620018,-1.10618 -0.211735,-1.96402 1.468132,-3.08467 0.822832,-0.54892 1.913722,-1.28091 2.424201,-1.62664 0.510478,-0.34574 1.651347,-0.8875 2.535263,-1.20393 1.836699,-0.6575 2.105868,-1.25242 0.672093,-1.48547 -0.514265,-0.0836 -1.055764,-0.2266 -1.20333,-0.31781 -0.147566,-0.0912 -1.453209,0.0651 -2.90143,0.34723 -1.448221,0.28218 -3.407035,0.58497 -4.35292,0.67287 -1.509386,0.14026 -1.80881,0.0892 -2.447396,-0.41737 -1.579856,-1.25327 -0.571682,-3.71379 1.521684,-3.71379 0.470254,0 2.441048,-0.29886 4.379541,-0.66414 2.07651,-0.39129 3.884613,-0.59659 4.400978,-0.49972 l 0.876443,0.16442 0.0065,-1.41851 c 0.01328,-2.91191 1.525471,-7.16232 3.341356,-9.39174 l 1.129834,-1.38713 -0.411957,-2.33127 c -0.725193,-4.10391 -0.85117,-5.61088 -1.168083,-13.97295 -0.358471,-9.4586 -0.244043,-12.18138 0.670147,-15.94598 0.74655,-3.07426 1.237168,-4.16053 2.73493,-6.05534 1.371931,-1.73562 2.593313,-2.32069 4.382483,-2.09929 3.70977,0.45906 3.65347,0.43883 5.14386,1.84799 2.26407,2.14067 3.65405,5.47969 4.14182,9.9495 0.0873,0.80036 0.56293,3.65786 1.05688,6.35 1.27053,6.9248 1.53654,9.33576 1.56718,14.20439 l 0.027,4.28251 1.27371,0.17641 c 0.70054,0.097 1.31579,0.13434 1.36722,0.0829 0.0514,-0.0514 -0.005,-0.6292 -0.12476,-1.28393 -0.12005,-0.65473 -0.30184,-4.88136 -0.40397,-9.3925 -0.17474,-7.71839 -0.1519,-8.38933 0.38733,-11.37709 1.23651,-6.85129 2.79261,-10.99059 4.99547,-13.28813 1.69042,-1.76307 2.78909,-2.09142 5.27579,-1.57674 2.27249,0.47034 3.79208,1.24813 5.17992,2.6513 0.93212,0.94242 1.2535,1.58649 2.11337,4.23538 0.63192,1.94669 1.11822,4.08846 1.29044,5.68336 0.32629,3.02176 0.43549,14.30506 0.16048,16.58233 -0.10544,0.87313 -0.27462,3.16104 -0.37596,5.08425 -0.10135,1.92321 -0.2702,3.44364 -0.37523,3.37872 -0.10504,-0.0649 -0.25549,0.44514 -0.33434,1.13346 -0.0944,0.82437 -0.039,1.28886 0.16235,1.36097 0.56009,0.20059 3.53185,3.31793 3.96632,4.16062 0.4186,0.81192 1.80934,5.04255 2.1485,6.53573 0.13121,0.57769 0.27533,0.70877 0.62267,0.56634 0.24857,-0.10192 1.58303,-0.36534 2.96548,-0.58536 1.38245,-0.22003 2.82957,-0.56418 3.21582,-0.76478 0.97362,-0.50566 1.62295,-0.45673 2.43704,0.18363 0.92414,0.72693 0.97323,2.27502 0.0982,3.09705 -0.83047,0.78019 -2.36978,1.38044 -3.55977,1.38813 -1.19759,0.008 -2.96725,0.38693 -4.50641,0.96559 -1.88603,0.70906 -1.54452,1.16892 1.98437,2.672 1.70987,0.7283 3.40651,1.41064 3.77031,1.51631 1.75433,0.50955 2.40496,2.28681 1.2768,3.48769 -0.9251,0.98472 -2.17328,0.80805 -6.08134,-0.8608 -1.8974,-0.81024 -3.47646,-1.43532 -3.50903,-1.38906 -0.0326,0.0463 -0.27575,0.66793 -0.54043,1.38151 -0.55159,1.48713 -1.84668,3.02404 -3.5161,4.17263 l -1.15558,0.79506 1.28532,1.36536 c 0.70692,0.75096 1.68737,1.96068 2.17877,2.68829 0.4914,0.7276 1.1891,1.6801 1.55043,2.11666 1.58661,1.91693 3.2195,7.20927 3.2195,10.43469 v 2.13302 l 1.78594,-4.4e-4 c 0.98226,-2.4e-4 3.69093,-0.11456 6.01927,-0.25404 2.32833,-0.13949 5.76875,-0.33087 7.64538,-0.42531 l 3.41204,-0.1717 -0.1772,-4.27061 c -0.0975,-2.34883 -0.18158,-13.79561 -0.18692,-25.43727 -0.005,-11.64167 -0.14204,-24.91714 -0.30377,-29.50104 -0.32386,-9.17902 -0.3853,-15.54756 -0.55394,-57.41459 -0.0681,-16.89647 -0.0137,-29.24826 0.1338,-30.42708 0.30372,-2.42652 0.64714,-12.10546 0.52466,-14.78675 l -0.0893,-1.95446 -2.68884,0.18391 c -1.47887,0.10116 -4.29619,0.30651 -6.26073,0.45636 -1.96453,0.14984 -9.10828,0.25926 -15.875,0.24316 -11.3072,-0.0269 -12.55875,-0.0749 -15.46105,-0.59234 -3.04471,-0.54289 -3.33876,-0.54978 -8.20208,-0.19241 -3.05089,0.22419 -8.91264,0.36671 -14.833743,0.36067 -8.970292,-0.009 -10.066371,-0.0598 -13.096875,-0.60539 -5.136579,-0.92472 -21.458139,-1.55351 -25.329646,-0.97583 -1.116291,0.16657 -1.118472,0.16909 -0.613904,0.71068 0.573783,0.61588 0.62566,1.20312 1.015012,11.48977 0.132731,3.50676 0.323937,6.50958 0.424901,6.67294 0.100965,0.16337 0.178227,3.31076 0.171694,6.9942 -0.008,4.53241 0.117601,7.67789 0.388694,9.73123 0.305005,2.3102 0.341495,3.63373 0.152947,5.54759 -0.152024,1.54314 -0.157621,7.87631 -0.0145,16.40417 0.128221,7.63984 0.291029,18.59359 0.361796,24.34167 0.07077,5.74807 0.250057,12.11791 0.398422,14.1552 0.148365,2.0373 0.39846,5.96636 0.555767,8.73125 0.157306,2.7649 0.52437,7.34881 0.815697,10.18646 0.658395,6.41307 1.026893,15.65536 1.714237,42.99479 0.07317,2.91042 0.186373,5.54189 0.25156,5.84771 0.112045,0.52566 0.353723,0.56841 4.422816,0.78248 2.367363,0.12454 5.792577,0.19368 7.611587,0.15364 1.819011,-0.04 4.676511,0.0666 6.35,0.23703 1.67349,0.17041 4.352396,0.39831 5.953126,0.50645 1.600729,0.10814 3.059244,0.21491 3.241145,0.23726 0.181901,0.0223 0.33073,-0.17627 0.33073,-0.44139 z m 53.791996,-52.7042 c -1.00671,-0.40123 -1.46467,-1.39739 -1.26243,-2.74605 0.12904,-0.86051 0.0301,-1.70557 -0.35041,-2.99422 -1.08378,-3.66997 -1.19328,-4.44754 -0.74766,-5.30928 0.62853,-1.21545 2.00352,-1.50607 3.06373,-0.64756 0.55317,0.44792 1.34305,2.8616 2.15674,6.5904 0.69871,3.20192 -0.82276,5.91864 -2.85997,5.10671 z m 4.45883,-3.65667 c -0.3514,-0.35141 -0.53464,-1.06841 -0.65925,-2.57969 -0.0949,-1.15116 -0.34981,-2.91515 -0.56642,-3.91999 -0.45545,-2.1127 -0.22081,-2.9639 0.97502,-3.53705 1.02017,-0.48895 2.41604,0.1204 2.8002,1.2224 0.4717,1.35311 1.20089,6.79466 1.01159,7.5489 -0.40858,1.62791 -2.46715,2.35941 -3.56114,1.26543 z m -68.554858,-0.4237 c -0.566662,-0.60319 -0.599098,-0.81703 -0.491618,-3.24115 0.131869,-2.97419 0.826026,-4.95231 2.119908,-6.04104 0.987636,-0.83104 1.907531,-0.83303 2.734643,-0.006 0.730576,0.73057 0.873116,2.09164 0.290023,2.76931 -0.59755,0.69448 -0.963508,2.12929 -0.963508,3.77763 0,1.64507 -0.486058,2.94769 -1.202479,3.2226 -0.898015,0.3446 -1.891653,0.15225 -2.486969,-0.48143 z m -4.648136,-3.3909 c -0.637274,-0.54816 -0.768728,-0.89106 -0.868062,-2.26434 -0.161783,-2.23663 0.100028,-3.3451 1.044022,-4.42025 2.017687,-2.29802 5.027076,-0.0941 3.438472,2.5181 -0.358105,0.58885 -0.457411,1.14271 -0.369301,2.05969 0.143592,1.49439 -0.40993,2.35079 -1.677401,2.59526 -0.630357,0.12158 -0.988102,0.0101 -1.56773,-0.48846 z m 9.925084,-25.59664 c -0.218281,-0.14107 -0.872466,-0.25831 -1.453743,-0.26054 -2.190745,-0.008 -6.606084,-4.00723 -7.418777,-6.71895 -0.283371,-0.94553 -0.394204,-2.35377 -0.366834,-4.66097 l 0.03922,-3.30608 -1.028139,-0.29767 c -2.225985,-0.64449 -4.161285,-1.87614 -5.302895,-3.37483 -1.618356,-2.12457 -2.110904,-3.23904 -2.597815,-5.87798 -0.239312,-1.297 -0.74566,-3.42975 -1.12522,-4.73944 -0.602518,-2.07902 -0.703653,-2.99011 -0.79682,-7.17836 -0.09502,-4.27125 -0.04535,-5.02079 0.453109,-6.83767 0.721148,-2.62861 1.034593,-3.20839 2.91683,-5.39533 1.36698,-1.58827 1.786482,-1.89547 3.410195,-2.49733 1.018309,-0.37745 3.230585,-0.95505 4.916169,-1.28355 2.782137,-0.54221 3.180497,-0.56314 4.320648,-0.22697 0.900768,0.26559 2.415715,0.34813 5.35699,0.29187 2.255573,-0.0431 4.458229,-0.0843 4.894792,-0.0915 2.122184,-0.0349 7.57493,0.42873 8.90173,0.75682 0.82137,0.20311 1.95247,0.36939 2.51355,0.36951 0.56107,1.1e-4 1.91311,0.18736 3.00451,0.41609 1.7357,0.36375 10.10314,0.93718 13.89063,0.95192 0.7276,0.003 2.29525,-0.24433 3.48367,-0.54925 3.02369,-0.77581 3.73287,-0.73764 12.12675,0.65265 3.3146,0.54901 4.20384,1.00469 6.86124,3.51593 4.62673,4.37226 5.29499,6.48519 5.28432,16.70827 -0.007,6.95936 -0.1602,7.99055 -1.47662,9.95683 -1.08345,1.6183 -4.65193,3.04536 -11.19811,4.47822 -3.66332,0.80184 -5.69824,0.87465 -7.9513,0.28452 -1.57738,-0.41316 -13.60858,-1.45794 -18.77162,-1.63012 -1.45521,-0.0485 -5.56286,-0.19096 -9.12812,-0.31651 -5.897021,-0.20767 -8.920551,-0.24168 -10.498418,-0.11809 -0.651942,0.0511 -1.021206,1.11846 -1.771162,5.11975 -0.651866,3.47794 -0.585926,4.11314 0.67252,6.47843 1.358381,2.55311 1.537214,4.31568 0.521389,5.13878 -0.667081,0.54051 -2.030127,0.66323 -2.682668,0.24153 z m -2.903014,-6.46282 c -0.560465,-1.47414 -0.325539,-3.76539 0.992176,-9.67677 0.354257,-1.58922 0.614895,-2.14617 1.308881,-2.79691 0.476597,-0.44689 0.86654,-0.95016 0.86654,-1.11838 0,-0.16821 0.293438,-0.49811 0.652084,-0.7331 0.556478,-0.36462 1.613567,-0.42656 7.209896,-0.42249 10.663157,0.008 30.117137,1.24014 34.360137,2.17665 l 2.40232,0.53024 3.28622,-0.67921 c 1.80742,-0.37356 4.58223,-1.11578 6.16625,-1.64938 2.69652,-0.90836 2.90599,-1.03 3.28765,-1.90911 0.52778,-1.21566 0.73578,-8.32065 0.35668,-12.18372 -0.43895,-4.47302 -0.75886,-5.20955 -3.40379,-7.83667 -1.2526,-1.24417 -2.52668,-2.3552 -2.8313,-2.46896 -0.30462,-0.11376 -1.26823,-0.29078 -2.14135,-0.39338 -0.87313,-0.1026 -2.24234,-0.34526 -3.04271,-0.53925 -2.62499,-0.63625 -5.60347,-0.7445 -7.58951,-0.27583 -3.5823,0.84535 -4.03612,0.93075 -4.94584,0.93075 -0.50817,0 -1.25452,-0.12568 -1.65854,-0.27929 -0.40402,-0.1536 -2.70373,-0.31648 -5.11045,-0.36195 -2.84331,-0.0537 -5.62684,-0.28403 -7.94774,-0.6576 -7.851841,-1.26384 -10.458421,-1.47942 -16.007298,-1.32395 -5.739202,0.1608 -6.536875,0.13504 -7.692382,-0.24842 -0.931621,-0.30916 -1.380173,-0.29736 -3.307291,0.087 -3.755193,0.74897 -4.989627,1.31984 -6.228113,2.88025 -1.649965,2.07884 -2.034292,3.72281 -1.983464,8.48435 0.03775,3.53661 0.13675,4.32607 0.945598,7.54062 0.496887,1.97475 1.037916,4.27364 1.202286,5.10864 0.538708,2.73664 2.594895,4.5286 6.142028,5.35276 2.627407,0.61047 3.073833,1.47312 2.648135,5.11709 -0.147746,1.26471 -0.190932,3.08585 -0.09597,4.04698 0.148868,1.50671 0.313072,1.91886 1.191658,2.99106 1.100542,1.34307 1.396588,1.43733 0.967209,0.30798 z M 84.084619,84.60254 c -1.242634,-0.69195 -2.887676,-2.92321 -2.887676,-3.91673 0,-0.26316 0.350365,-1.2126 0.778588,-2.10986 0.657514,-1.3777 0.967194,-1.72302 1.991453,-2.22064 1.426469,-0.69303 2.011218,-0.72997 3.050255,-0.19266 1.151615,0.59552 2.052399,1.95354 2.5285,3.81194 0.643837,2.51314 0.107457,3.92808 -1.820984,4.80366 -1.46789,0.66647 -2.19032,0.6316 -3.640136,-0.17571 z m 2.941398,-2.17537 c 0.563719,-0.45647 0.578579,-0.55539 0.274111,-1.82455 -0.177056,-0.73805 -0.593967,-1.59749 -0.926469,-1.90986 -0.515981,-0.48474 -0.702707,-0.52322 -1.274567,-0.26266 -0.376824,0.17169 -0.835765,0.72723 -1.048786,1.26953 -0.341159,0.8685 -0.332171,1.04128 0.09053,1.74011 0.459438,0.75956 1.388161,1.44204 1.987735,1.46069 0.16578,0.005 0.569632,-0.20781 0.897448,-0.47326 z m 13.940603,2.29852 c -0.21946,-0.12281 -0.64148,-0.68849 -0.93784,-1.25706 -0.764794,-1.46729 -0.890818,-5.99144 -0.196419,-7.05122 0.466019,-0.71124 0.506199,-0.72011 2.626729,-0.58031 1.18442,0.0781 2.35731,0.2241 2.60643,0.32449 0.61851,0.24923 0.83061,1.0531 0.46039,1.74487 -0.28198,0.52687 -0.44256,0.55897 -1.99904,0.3995 -1.36745,-0.1401 -1.69243,-0.10121 -1.69243,0.20254 0,0.48942 0.51917,0.67625 1.40736,0.50646 0.87241,-0.16677 1.50306,0.31147 1.50306,1.13981 0,0.73783 -0.76657,1.21164 -2.01768,1.2471 -0.99456,0.0282 -1.19355,0.53457 -0.38096,0.96946 0.63714,0.34099 1.60489,0.35735 1.60489,0.0271 0,-0.35726 0.97006,-0.61067 1.5875,-0.41471 0.77257,0.24521 0.69192,1.47465 -0.14852,2.26421 -0.55766,0.5239 -0.97406,0.64236 -2.35107,0.66884 -0.92037,0.0177 -1.85294,-0.0683 -2.0724,-0.19112 z m -21.869701,-0.8237 c -0.306249,-0.78962 0.235377,-1.62893 1.120053,-1.73565 1.114352,-0.13442 1.567718,1.46748 0.602395,2.12848 -0.594894,0.40734 -1.491404,0.20288 -1.722448,-0.39283 z m -3.656522,0.0246 c -0.417988,-0.41799 -0.423985,-1.345 -0.01137,-1.75762 0.174625,-0.17462 0.648606,-0.3175 1.053292,-0.3175 1.395373,0 1.324556,2.15589 -0.07642,2.32648 -0.350146,0.0426 -0.784622,-0.0705 -0.965502,-0.25136 z m 54.228213,-0.0114 c -0.7031,-0.70311 -0.19224,-2.06375 0.77486,-2.06375 0.54548,0 1.28889,0.68673 1.28889,1.19063 0,0.92546 -1.41342,1.52345 -2.06375,0.87312 z m 4.43536,-0.22968 c -0.43893,-0.82015 0.0573,-1.83407 0.89762,-1.83407 0.83125,0 1.28761,0.58137 1.18166,1.50536 -0.0711,0.6203 -0.22493,0.75713 -0.92758,0.8252 -0.64497,0.0625 -0.9148,-0.0538 -1.1517,-0.49649 z m -26.06192,-0.089 c -0.45304,-0.33127 -0.50872,-0.72568 -0.51359,-3.63802 l -0.005,-3.26648 0.81628,-0.0797 c 0.4969,-0.0485 0.94955,0.0809 1.15688,0.33073 0.18733,0.22572 0.49473,0.41039 0.68313,0.41039 0.18839,0 0.76679,0.50601 1.28534,1.12448 l 0.9428,1.12448 0.005,-1.60073 c 0.006,-1.70886 0.29217,-2.23573 1.21633,-2.23573 1.05748,0 1.22835,0.5672 1.10844,3.67955 -0.12719,3.30135 -0.32991,3.72878 -1.76845,3.72878 -0.85498,0 -1.09264,-0.15875 -1.98044,-1.32291 -0.55488,-0.72761 -1.07093,-1.32292 -1.14679,-1.32292 -0.0758,0 -0.0601,0.58651 0.035,1.30335 0.15341,1.1565 0.10591,1.35027 -0.42166,1.71979 -0.72539,0.50808 -0.77726,0.50973 -1.41296,0.0449 z m 12.5729,-0.16681 c -0.4408,-0.82363 -0.11067,-1.8038 0.67384,-2.0007 0.95831,-0.24052 1.49071,0.31596 1.39497,1.45808 -0.0715,0.85277 -0.16468,0.95693 -0.92184,1.03028 -0.64155,0.0622 -0.91493,-0.0541 -1.14697,-0.48766 z m 4.29116,0.22086 c -0.17462,-0.17463 -0.3175,-0.56753 -0.3175,-0.87313 0,-1.16224 1.57682,-1.67019 2.10736,-0.67885 0.37211,0.69529 0.34568,0.96615 -0.14188,1.4537 -0.49517,0.49518 -1.20854,0.53772 -1.64798,0.0983 z M 91.967877,83.32411 c -0.378933,-0.37893 -0.542421,-1.28262 -0.866565,-4.78998 -0.131057,-1.41808 -0.0864,-1.92667 0.187293,-2.13305 0.633353,-0.47758 3.13037,-0.95992 4.063335,-0.78489 2.967871,0.55677 2.448697,5.17687 -0.58174,5.17687 h -1.019532 l 0.10533,1.10449 c 0.08046,0.84369 -0.0079,1.1873 -0.374307,1.45521 -0.617583,0.45158 -1.041604,0.44356 -1.513814,-0.0287 z m 2.9874,-5.17689 c 0,-0.14552 -0.231098,-0.26458 -0.513552,-0.26458 -0.282453,0 -0.587136,0.11906 -0.677073,0.26458 -0.09274,0.15006 0.129544,0.26459 0.513552,0.26459 0.37239,0 0.677073,-0.11906 0.677073,-0.26459 z m 21.748753,4.97417 c -0.71891,-0.71891 -3.9e-4,-2.32833 1.03948,-2.32833 1.01742,0 1.37334,1.45416 0.54042,2.20795 -0.57136,0.51707 -1.13989,0.56039 -1.5799,0.12038 z M 97.395399,72.70834 c -1.074019,-0.75227 -0.609121,-3.29229 0.602586,-3.29229 0.425146,0 1.190625,0.71341 1.190625,1.10963 0,0.17159 0.151986,0.15195 0.396875,-0.0513 0.218282,-0.18115 0.396875,-0.55292 0.396875,-0.82614 0,-0.37038 -0.192868,-0.49677 -0.758068,-0.49677 -1.00881,0 -2.107342,-0.90357 -2.708944,-2.22817 -0.637707,-1.40409 -0.628634,-2.33748 0.0285,-2.93218 0.719765,-0.65138 1.851008,-0.18238 1.851008,0.76741 0,0.77279 0.246831,1.48252 0.515594,1.48252 0.106918,0 0.336738,-0.47509 0.510711,-1.05576 0.230569,-0.76958 0.493882,-1.10034 0.971359,-1.22018 1.25458,-0.31488 1.46411,0.23971 1.85944,4.92177 0.12216,1.44673 0.0576,1.85886 -0.40653,2.59561 -0.91883,1.45852 -3.214857,2.091 -4.450035,1.22585 z m 7.348841,-0.51483 c -0.53416,-0.56858 -0.64958,-1.04515 -0.81704,-3.37343 -0.23845,-3.31547 -0.10392,-3.58712 2.11182,-4.26418 1.30219,-0.39791 1.69573,-0.43035 2.0142,-0.16604 0.58122,0.48236 0.48222,1.49608 -0.19223,1.96848 l -0.58804,0.41188 0.6031,0.42242 c 0.86857,0.60837 0.64631,1.45221 -0.55078,2.09112 -1.22412,0.65334 -1.26983,0.93771 -0.12074,0.75124 1.88246,-0.30548 2.03243,1.65416 0.18322,2.39407 -1.45042,0.58034 -1.91599,0.53886 -2.64351,-0.23556 z m -28.568379,-0.3902 c -0.727186,-0.72719 -0.200431,-2.12267 0.801247,-2.12267 1.173436,0 1.792105,1.83972 0.797646,2.37194 -0.725764,0.38842 -1.004688,0.34493 -1.598893,-0.24927 z m 12.948588,-0.24166 -0.916047,-0.76483 0.06765,-2.21174 c 0.111102,-3.63216 0.595539,-4.46069 2.608146,-4.46069 0.544938,0 1.398003,-0.14725 1.895699,-0.32722 0.826214,-0.29876 0.946504,-0.27584 1.383329,0.26362 0.637771,0.78761 0.398394,1.53385 -0.622209,1.93968 -1.097747,0.43651 -1.093293,0.43106 -0.719804,0.88109 0.587774,0.70822 0.220068,1.57326 -0.908648,2.13762 -1.372427,0.68621 -1.304796,0.63548 -1.108663,0.83161 0.09359,0.0936 0.77962,-0.0831 1.524519,-0.39269 1.544853,-0.64201 2.362269,-0.43864 2.362269,0.58771 0,0.75087 -0.579929,1.27067 -2.055875,1.84274 -1.621451,0.62847 -2.459582,0.55042 -3.51037,-0.3269 z m 2.126661,-4.92372 c 0.269762,-0.32504 0.251681,-0.39688 -0.0999,-0.39688 -0.236099,0 -0.429271,0.1786 -0.429271,0.39688 0,0.21828 0.04495,0.39687 0.09989,0.39687 0.05494,0 0.248115,-0.17859 0.429272,-0.39687 z m -10.914063,5.13818 c -0.531508,-0.30957 -0.613397,-1.3101 -0.14552,-1.77797 0.926637,-0.92664 2.690361,0.36375 2.073245,1.51684 -0.31386,0.58645 -1.170056,0.70243 -1.927725,0.26113 z m 4.233334,0 c -0.919001,-0.53527 -0.270543,-2.62464 0.814583,-2.62464 0.442261,0 1.368229,0.98483 1.368229,1.45521 0,0.48492 -0.934228,1.45823 -1.389062,1.44716 -0.181901,-0.004 -0.539089,-0.1294 -0.79375,-0.27773 z m 36.903519,0.0108 c -0.76879,-0.30877 -0.78066,-0.35583 -0.97873,-3.87849 l -0.16658,-2.96287 0.79395,-0.41057 c 1.87462,-0.9694 3.94039,-0.12964 5.01649,2.03926 0.46929,0.94587 0.58105,1.48935 0.44997,2.18809 -0.41785,2.2273 -3.1208,3.82557 -5.1151,3.02458 z m 2.74872,-3.26187 c 0.16657,-0.52481 -0.59663,-1.76699 -1.21158,-1.97197 -0.25855,-0.0862 -0.30898,0.0528 -0.18595,0.51248 0.0928,0.3469 0.17042,1.07823 0.17241,1.62516 0.003,0.92974 0.0382,0.97282 0.53574,0.66212 0.29266,-0.18278 0.60289,-0.55528 0.68938,-0.82779 z m 3.4742,3.08008 c -0.5809,-0.64189 -0.59611,-1.55874 -0.0311,-1.87494 0.2372,-0.13274 0.95158,-0.1827 1.5875,-0.11102 1.01675,0.1146 1.15623,0.0677 1.15623,-0.38893 0,-0.30838 -0.40293,-0.78251 -0.99219,-1.16753 -0.89733,-0.5863 -0.98998,-0.75527 -0.96911,-1.76736 0.0321,-1.55518 0.87984,-2.43551 2.34542,-2.43551 1.42923,0 2.31775,0.62175 2.21067,1.54693 -0.0472,0.40802 -0.31522,0.8048 -0.63993,0.94743 -0.55659,0.24449 -0.55678,0.24862 -0.0509,1.10603 0.76016,1.28838 0.57552,3.18631 -0.37906,3.89647 -1.05952,0.78821 -3.61353,0.93795 -4.23754,0.24843 z m -15.80821,-2.4e-4 c -1.39702,-0.25426 -1.5875,-0.70735 -1.5875,-3.7763 0,-2.4943 0.0626,-2.88509 0.53025,-3.30827 0.43812,-0.3965 0.64496,-0.42759 1.19062,-0.17897 0.62839,0.28632 0.66038,0.40935 0.66038,2.53991 0,1.23146 0.10853,2.30608 0.24116,2.38806 0.13264,0.082 0.59977,-0.0568 1.03807,-0.30832 0.76163,-0.43711 0.82123,-0.43535 1.34634,0.0399 0.74072,0.67034 0.69241,1.1067 -0.22396,2.02307 -0.7759,0.77589 -1.45041,0.89853 -3.19536,0.58095 z m 27.18594,-0.35791 c -0.53151,-0.30958 -0.6134,-1.3101 -0.14552,-1.77798 0.74216,-0.74215 2.06375,-0.18302 2.06375,0.87313 0,1.04616 -0.92581,1.48288 -1.91823,0.90485 z m -4.16433,-0.37225 c -0.44838,-0.54026 -0.12317,-1.64938 0.54589,-1.86173 0.63234,-0.2007 1.56792,0.50635 1.56792,1.18493 0,0.99367 -1.46227,1.46186 -2.11381,0.6768 z M 116.36146,70.5765 c -0.23958,-0.28868 -0.35726,-1.23874 -0.36312,-2.93165 -0.008,-2.17977 0.0579,-2.55328 0.50491,-2.88021 0.67611,-0.49451 0.84096,-0.4763 1.48088,0.16361 0.42546,0.42546 0.50258,0.73479 0.36544,1.46578 -0.0959,0.51101 -0.0262,1.45382 0.1554,2.10234 0.28438,1.01571 0.26982,1.26648 -0.10696,1.84152 -0.50183,0.76589 -1.50172,0.88304 -2.03655,0.23861 z m 139.87436,120.08488 c -0.10307,-1.41882 -0.24344,-16.74812 -0.31193,-34.0651 -0.12199,-30.84123 -0.0848,-33.05682 0.73792,-43.92083 0.40455,-5.34229 0.40229,-25.83657 -0.003,-29.10417 -1.03081,-8.30657 -1.04293,-8.65021 -0.96145,-27.25208 0.044,-10.04094 0.165,-20.60774 0.26891,-23.48177 l 0.18894,-5.22552 -17.82746,-0.003 c -22.54015,-0.004 -42.06925,0.39075 -52.09101,1.05355 -12.97767,0.85831 -17.7729,1.07795 -19.62833,0.89907 l -1.76896,-0.17054 -0.0205,5.1299 c -0.0199,4.99109 -0.28331,9.72605 -0.79035,14.20731 -0.13822,1.22154 -0.15255,2.80855 -0.0323,3.57187 0.11906,0.75551 0.17572,6.96958 0.12592,13.80906 -0.10583,14.53339 -0.10573,14.60589 0.0404,28.04583 0.0617,5.67532 0.14228,15.49797 0.17905,21.82813 0.0368,6.33015 0.16536,11.66173 0.28575,11.84794 0.1204,0.18622 0.2667,12.68778 0.32511,27.78125 0.10465,27.03958 0.26947,36.99918 0.61585,37.21325 0.0969,0.0599 2.37595,-0.004 5.06445,-0.14129 2.68851,-0.13763 7.92429,-0.33646 11.63507,-0.44184 l 6.74688,-0.1916 -0.0695,-1.53242 c -0.0382,-0.84283 0.0483,-1.75259 0.19232,-2.02169 0.14401,-0.26909 0.37702,-1.50285 0.51778,-2.74168 0.42593,-3.74844 0.94378,-5.11265 2.55072,-6.71959 0.81075,-0.81075 1.64095,-1.40441 1.96398,-1.40441 0.30776,0 0.89968,-0.17589 1.31538,-0.39085 1.19854,-0.61979 4.84582,-1.60545 9.14326,-2.47092 5.08394,-1.02387 9.28459,-1.21891 15.85513,-0.73617 2.75589,0.20247 5.14861,0.31522 5.31716,0.25054 0.16855,-0.0647 0.83076,0.065 1.47159,0.28813 0.64082,0.22315 1.48601,0.40746 1.87819,0.40958 1.21637,0.007 4.30323,1.74447 5.48678,3.08905 2.30934,2.62355 5.38676,9.69323 5.42342,12.45907 0.016,1.20413 0.0889,1.38998 0.54758,1.39597 0.29104,0.004 2.37463,0.13057 4.63021,0.28172 2.25557,0.15115 4.81541,0.26614 5.68854,0.25554 0.87312,-0.0106 2.12328,0.15231 2.77812,0.36203 0.65485,0.20973 1.53427,0.38929 1.95428,0.39902 l 0.76366,0.0177 z m -23.76183,-25.46019 c -1.14554,-0.90108 -1.07094,-1.64251 0.47622,-4.73319 0.7746,-1.54736 1.48314,-3.08128 1.57454,-3.4087 0.15018,-0.53795 0.0743,-0.59531 -0.78699,-0.59531 -1.2055,0 -2.14015,-0.60568 -2.49195,-1.61486 -0.54119,-1.55245 0.50703,-2.73601 2.35887,-2.66345 0.5211,0.0204 1.77395,-0.19923 2.78412,-0.48812 1.01017,-0.28888 2.14842,-0.52524 2.52944,-0.52524 0.99604,0 2.03835,0.92658 2.23771,1.98924 0.17948,0.95671 -0.0973,1.56612 -1.51885,3.3444 -0.3887,0.48624 -0.95467,1.51462 -1.25771,2.2853 l -0.55097,1.40122 0.99312,-0.18745 c 1.82451,-0.34437 2.49628,-0.23127 3.15166,0.53066 1.23758,1.43877 0.43648,3.1453 -1.62135,3.45389 -0.65595,0.0984 -2.22836,0.52894 -3.49424,0.95684 -2.70902,0.9157 -3.48598,0.96086 -4.38362,0.25477 z m -25.81888,-2.25695 c -0.42157,-0.53595 -0.52354,-1.08277 -0.53038,-2.84428 -0.009,-2.29086 -0.58184,-4.45041 -1.63115,-6.14822 -0.79168,-1.28097 -3.91291,-4.13347 -5.73203,-5.23853 -1.32898,-0.80731 -1.74307,-0.9365 -2.57111,-0.80212 -1.97616,0.32068 -3.14262,-1.2429 -2.46473,-3.30387 0.60676,-1.84472 2.08666,-2.06357 4.88519,-0.72241 5.83703,2.79733 10.02141,7.32925 11.2833,12.22049 0.23068,0.89413 0.41942,2.65572 0.41942,3.91464 0,2.07745 -0.06,2.34894 -0.64944,2.93837 -0.89481,0.89481 -2.29931,0.88824 -3.00907,-0.0141 z m 9.74383,-1.85014 c -0.57165,-0.6085 -0.61674,-0.86017 -0.56229,-3.13851 0.10808,-4.52168 -1.02501,-7.3231 -4.30294,-10.63846 -2.15809,-2.18274 -6.71327,-5.40522 -7.64063,-5.40522 -0.77589,0 -1.78155,-1.19483 -1.78155,-2.11667 0,-1.04784 1.03151,-2.1176 2.0385,-2.11408 2.20857,0.008 8.71132,4.44334 11.63281,7.93491 2.99716,3.58201 4.45381,7.81984 4.26358,12.40401 -0.0963,2.32025 -0.15053,2.523 -0.83162,3.10885 -0.95249,0.8193 -2.02592,0.80602 -2.81586,-0.0348 z m 22.75383,-15.95349 c -1.51169,-0.81279 -3.17072,-1.23443 -6.05738,-1.53946 -1.81948,-0.19227 -2.53597,-0.65251 -2.82817,-1.81673 -0.23675,-0.94329 0.3925,-1.77396 2.05638,-2.71463 1.58435,-0.89572 5.457,-3.7218 5.98655,-4.36872 0.30729,-0.37539 0.21528,-0.44068 -0.79375,-0.56329 -0.62773,-0.0763 -1.54712,-0.1244 -2.04309,-0.10693 -0.67711,0.0238 -1.05613,-0.1477 -1.52136,-0.68856 -0.84717,-0.98489 -0.78682,-1.88719 0.19168,-2.86569 0.80366,-0.80365 0.83032,-0.80962 2.84427,-0.63616 5.00666,0.43121 5.9062,0.61085 6.61671,1.32136 1.55789,1.55789 0.0309,4.74889 -3.70716,7.7471 l -1.57473,1.26305 0.98275,0.34023 c 0.54051,0.18713 1.12704,0.45999 1.3034,0.60636 0.17636,0.14637 0.69012,0.19223 1.14169,0.10191 0.68069,-0.13613 0.95851,-0.0267 1.62537,0.64015 1.00658,1.00657 1.02982,1.9073 0.0768,2.97388 -1.08386,1.21295 -2.4345,1.3091 -4.29991,0.30613 z m -3.30686,-24.68192 c -1.01865,-0.11628 -2.81412,-0.14418 -3.98994,-0.062 -2.09627,0.14652 -2.14903,0.13523 -2.71198,-0.58045 -0.75375,-0.95823 -0.73851,-2.11333 0.0376,-2.85335 0.33647,-0.32081 1.91405,-1.59158 3.50573,-2.82393 1.59168,-1.23236 4.26288,-3.61361 5.936,-5.29167 l 3.04203,-3.05102 -1.85141,-0.0827 c -1.08711,-0.0486 -2.58286,0.0938 -3.62326,0.34481 -1.61393,0.38941 -1.84351,0.39046 -2.57585,0.0118 -1.34191,-0.69393 -1.42694,-2.63663 -0.15198,-3.47202 1.0203,-0.66853 2.35449,-0.90263 6.49282,-1.13924 2.68479,-0.15351 4.09812,-0.35064 4.68322,-0.65321 0.94728,-0.48986 1.99075,-0.55709 2.70592,-0.17434 0.68033,0.3641 1.11543,1.72709 0.78621,2.46288 -1.3438,3.00331 -5.34274,7.99315 -8.79039,10.96857 -1.65062,1.42453 -2.22686,2.07042 -1.98438,2.22425 0.47179,0.29931 4.57954,0.26822 6.03024,-0.0457 0.65485,-0.14168 1.7917,-0.57349 2.52635,-0.95957 1.2301,-0.64648 1.39728,-0.67248 2.11426,-0.32884 0.42819,0.20523 0.9366,0.70294 1.12979,1.10602 0.30448,0.63526 0.28718,0.864 -0.12988,1.71738 -1.13862,2.32983 -6.57602,3.43632 -13.18114,2.68233 z m -175.742804,68.9459 c -0.04006,-1.52797 -0.13242,-4.05804 -0.205252,-5.62239 -0.07283,-1.56435 -0.244578,-7.13052 -0.381656,-12.36927 -0.391569,-14.96471 -0.745708,-22.6054 -1.30603,-28.17813 -0.285319,-2.83765 -0.589138,-6.40953 -0.675155,-7.9375 -0.08602,-1.52797 -0.34226,-5.57609 -0.569431,-8.99583 -0.227171,-3.41974 -0.466902,-10.92068 -0.532736,-16.66875 -0.06583,-5.74807 -0.22695,-16.58276 -0.358034,-24.07708 -0.157597,-9.01008 -0.147701,-14.4948 0.02921,-16.19056 0.200069,-1.91772 0.183182,-3.05215 -0.06696,-4.49792 -0.203064,-1.17369 -0.36141,-4.93435 -0.40298,-9.57061 -0.03766,-4.20047 -0.151002,-7.83187 -0.251867,-8.06979 -0.100864,-0.23792 -0.287796,-3.17102 -0.415404,-6.518 -0.127609,-3.34698 -0.302336,-7.11328 -0.388283,-8.36956 -0.106611,-1.55833 -0.05445,-2.47439 0.164167,-2.88288 0.313251,-0.58531 0.296814,-0.59496 -0.733228,-0.43025 -0.579515,0.0927 -3.063549,0.34579 -5.520076,0.56248 -2.456528,0.2167 -6.252352,0.64473 -8.435164,0.95119 -5.295111,0.74342 -9.666437,0.74492 -13.758334,0.005 -1.74625,-0.31588 -5.318125,-0.69345 -7.9375,-0.83904 -2.619367,-0.14555 -6.429367,-0.4962 -8.4666592,-0.77919 -4.1354336,-0.57443 -10.19628545,-1.12149 -17.7270846,-1.60009 -5.3422082,-0.3395 -25.2457212,-0.14821 -27.7812502,0.267 -0.727605,0.11915 -2.215886,0.36004 -3.307292,0.53531 -1.091406,0.17527 -2.282031,0.40216 -2.645834,0.50421 l -0.661458,0.18555 -0.01227,7.66508 c -0.0068,4.21579 0.07647,8.61758 0.184932,9.78174 0.344176,3.69418 0.361146,17.00741 0.02529,19.84375 -0.86079,7.26958 -1.161825,12.32277 -1.040299,17.4625 0.06882,2.91042 0.246791,11.48292 0.395502,19.05 0.148711,7.56708 0.461783,16.25865 0.695716,19.31458 0.596636,7.79406 0.629544,22.72834 0.104648,47.49271 -0.242125,11.42339 -0.380925,20.82932 -0.308444,20.90209 0.264228,0.26524 12.34968,0.009 14.978141,-0.31811 1.487126,-0.18483 3.733259,-0.3136 4.991407,-0.28616 2.548177,0.0556 2.595545,0.0184 2.603682,-2.04157 0.0087,-2.20224 1.601526,-8.52829 2.679561,-10.64212 0.27624,-0.54166 0.856557,-1.38836 1.289591,-1.88156 l 0.787336,-0.89672 -0.551512,-0.49912 c -0.39873,-0.36084 -2.451363,-3.55339 -2.733741,-4.2519 -0.01055,-0.0261 -0.581364,0.0724 -1.26847,0.21899 -0.739348,0.15769 -2.121359,0.8468 -3.385765,1.68826 -1.175065,0.78199 -2.36563,1.49453 -2.645699,1.58343 -0.696929,0.22119 -1.873658,-0.38996 -2.334742,-1.21259 -0.620018,-1.10619 -0.211736,-1.96403 1.468132,-3.08468 0.822832,-0.54892 1.913722,-1.2809 2.4242,-1.62664 0.510478,-0.34573 1.651347,-0.8875 2.535264,-1.20392 1.836699,-0.6575 2.105867,-1.25242 0.672093,-1.48548 -0.514266,-0.0836 -1.055764,-0.2266 -1.20333,-0.3178 -0.147566,-0.0912 -1.45321,0.065 -2.901431,0.34723 -1.44822,0.28218 -3.407034,0.58497 -4.35292,0.67286 -1.509385,0.14027 -1.808809,0.0892 -2.447395,-0.41737 -1.579856,-1.25326 -0.571683,-3.71378 1.521683,-3.71378 0.470254,0 2.441048,-0.29887 4.379542,-0.66415 2.076509,-0.39128 3.884613,-0.59659 4.400977,-0.49972 l 0.876444,0.16442 0.0065,-1.4185 c 0.01322,-2.89969 1.52439,-7.161 3.322219,-9.36825 l 1.110697,-1.36363 -0.22753,-2.09019 c -0.125141,-1.14961 -0.349226,-2.98316 -0.497967,-4.07457 -0.701291,-5.14583 -0.811615,-7.0201 -0.87154,-14.80644 -0.06403,-8.31952 -0.06205,-8.35315 0.658523,-11.18989 0.818078,-3.22059 1.306308,-4.29948 2.801824,-6.19145 1.371931,-1.73562 2.593309,-2.32068 4.3824792,-2.09928 3.709779,0.45905 3.653474,0.43883 5.14386,1.84798 2.2640692,2.14068 3.65405125,5.4797 4.14182085,9.9495 0.08734,0.80036 0.5629355,3.65786 1.0568786,6.35 1.27053755,6.9248 1.53654205,9.33577 1.56718725,14.20439 l 0.026956,4.28251 1.2737104,0.17642 c 0.7005407,0.097 1.3157905,0.13433 1.3672219,0.0829 0.051431,-0.0514 -0.00471,-0.6292 -0.1247612,-1.28393 -0.12005,-0.65473 -0.3018351,-4.88135 -0.4039669,-9.3925 -0.1747433,-7.71838 -0.1519018,-8.38932 0.3873237,-11.37708 1.2365089,-6.8513 2.7926156,-10.9906 4.9954708,-13.28813 1.6904174,-1.76308 2.7890894,-2.09143 5.2757944,-1.57675 2.272487,0.47034 3.792072,1.24813 5.17992,2.65131 0.932219,0.94251 1.253493,1.58646 2.11395,4.23714 1.356063,4.17742 1.60968,6.8414 1.552826,16.3108 -0.05337,8.88862 -0.147009,11.02059 -0.557819,12.7 -0.664811,2.71778 -0.824622,4.09727 -0.487776,4.21053 0.56574,0.19021 3.539438,3.29399 3.986246,4.16062 0.418603,0.81192 1.809341,5.04254 2.148496,6.53572 0.131215,0.57769 0.27533,0.70877 0.622672,0.56634 0.248568,-0.10192 1.583036,-0.36533 2.965484,-0.58536 1.382448,-0.22003 2.829568,-0.56418 3.215823,-0.76478 0.973619,-0.50566 1.622947,-0.45673 2.437037,0.18364 0.924135,0.72692 0.973229,2.27501 0.09822,3.09704 -0.83047,0.78019 -2.369783,1.38044 -3.559767,1.38814 -1.197588,0.008 -2.967248,0.38692 -4.506414,0.96558 -1.886026,0.70907 -1.544514,1.16892 1.984375,2.67201 1.709869,0.72829 3.40651,1.41063 3.770312,1.5163 1.754329,0.50956 2.404959,2.28682 1.276796,3.48769 -0.925101,0.98473 -2.173276,0.80805 -6.081344,-0.8608 -1.8974,-0.81024 -3.476461,-1.43532 -3.509025,-1.38906 -0.03256,0.0462 -0.275756,0.66793 -0.540428,1.38151 -0.551591,1.48713 -1.846681,3.02404 -3.516105,4.17263 l -1.15558,0.79506 1.28532,1.36537 c 0.706926,0.75095 1.687375,1.96068 2.178776,2.68828 0.4914,0.7276 1.189094,1.6801 1.550429,2.11667 0.361336,0.43656 0.927005,1.40214 1.257044,2.14574 0.737951,1.66264 1.962005,6.05949 1.962262,7.04853 2.29e-4,0.88236 -0.744455,0.81808 9.922064,0.85643 8.415692,0.0302 13.032644,0.25667 16.271875,0.79797 1.091406,0.18239 2.285039,0.34612 2.652517,0.36386 l 0.668142,0.0323 z M -27.447088,111.851 c -1.094192,-0.53284 -1.443893,-0.87403 -1.814099,-1.76991 -0.252236,-0.61041 -0.688063,-1.64561 -0.968504,-2.30045 -0.436354,-1.01891 -1.127833,-3.36733 -2.376109,-8.06979 -0.170309,-0.64158 -0.234806,-2.82954 -0.16379,-5.55625 0.09582,-3.67928 0.213582,-4.74443 0.647,-5.85233 l 0.529854,-1.3544 -1.688155,-0.15764 c -1.921543,-0.17944 -3.654837,-0.87028 -4.503398,-1.79492 -0.8948,-0.97502 -1.737036,-5.22198 -1.419741,-7.15901 0.135286,-0.8259 0.191435,-2.13559 0.124776,-2.91042 -0.319346,-3.71203 -0.580706,-20.38491 -0.349883,-22.32004 0.411267,-3.4479 1.147716,-5.51569 2.432557,-6.83011 1.940862,-1.98553 4.824855,-3.55087 8.367807,-4.54177 l 3.169246,-0.88639 15.029797,-0.0909 c 21.250677,-0.12856 27.392141,0.16726 31.16938,1.50137 0.582083,0.20559 1.653646,0.45155 2.38125,0.54658 1.205008,0.15738 4.994965,1.5719 7.259906,2.70962 0.988588,0.49658 2.726343,2.98487 4.370719,6.25842 1.433881,2.8545 2.314229,8.48 2.342447,14.96843 0.02109,4.84932 0.01337,4.91786 -0.831383,7.37829 -0.468968,1.36592 -1.244751,3.06848 -1.723962,3.78346 -1.347117,2.00988 -4.711064,4.80275 -7.307039,6.06657 -4.015826,1.95506 -5.221847,2.29936 -9.66952,2.7605 -5.797667,0.60111 -11.3017323,0.41937 -16.0047095,-0.52845 -3.2526369,-0.65553 -3.9384077,-0.70755 -7.6729173,-0.582 -2.255573,0.0758 -4.8569512,0.28772 -5.7808412,0.47089 -1.408036,0.27915 -1.721352,0.44232 -1.936645,1.00859 -0.373771,0.98309 -0.966923,1.55023 -1.816488,1.73683 -0.750428,0.16482 -1.40185,0.88091 -3.111852,3.42077 -1.302075,1.93397 -1.510032,2.39354 -2.532205,5.59602 -1.974725,6.18684 -2.368345,8.00097 -2.397543,11.04988 -0.0268,2.79857 -0.04605,2.88671 -0.765713,3.50573 -0.910749,0.7834 -1.278634,0.77637 -2.990242,-0.0571 z m 0.680105,-10.87131 c 0.371517,-1.67423 2.090293,-7.00058 2.793304,-8.65623 1.193571,-2.81094 5.794078,-8.59243 7.719701,-9.7014 1.97792,-1.13909 5.417852,-1.66158 11.0644612,-1.6806 4.23790935,-0.0143 5.18281275,0.0684 8.5783076,0.75018 3.6800018,0.73894 4.0001658,0.76042 8.9958332,0.60356 6.952931,-0.21833 8.264256,-0.44686 11.841283,-2.06362 2.566686,-1.16011 3.246409,-1.61133 5.070078,-3.36564 C 31.6228,74.62761 32.322592,73.2556 32.825903,69.94522 33.428534,65.98159 32.327141,56.06773 30.959368,53.14418 29.568703,50.1717 28.390488,48.59138 27.295596,48.23004 26.747056,48.049 25.583347,47.56267 24.709576,47.1493 23.821874,46.72934 22.65393,46.39251 22.062567,46.3859 21.480483,46.3799 20.527983,46.19744 19.9459,45.98155 17.752178,45.16791 12.612374,44.52691 6.8504692,44.34837 3.7209771,44.25137 0.74376485,44.19536 0.23444185,44.22383 -0.27488105,44.25233 -6.1152158,44.32738 -12.74408,44.39068 l -12.052479,0.11509 -2.499605,0.71035 c -3.866685,1.09886 -6.811747,2.9762 -7.373295,4.70014 -0.642068,1.97113 -0.748989,4.60047 -0.529469,13.02041 0.125158,4.80059 0.218543,10.21662 0.207521,12.03563 -0.02913,4.80803 -0.02984,4.7834 0.17589,6.12904 0.224398,1.46775 0.377855,1.53511 3.509011,1.54027 l 2.193429,0.004 1.051633,1.12448 c 0.578397,0.61846 1.121323,1.38844 1.206501,1.71106 0.09323,0.35311 -0.183077,1.4589 -0.694162,2.77813 -1.405193,3.62712 -1.546027,8.43146 -0.371977,12.68947 0.267918,0.97167 0.560631,1.72125 0.650475,1.66572 0.08984,-0.0555 0.316475,-0.791 0.503624,-1.63439 z M 1.7167485,77.3835 C 1.3378537,76.96482 1.2405596,76.0904 1.1137462,71.96407 L 0.96253495,67.04386 1.8140488,66.24843 c 0.8404382,-0.78509 2.9554207,-1.59488 4.1654551,-1.59488 1.0871214,0 2.4067326,0.72278 2.8363235,1.55352 C 9.39392,67.32498 9.366212,70.33448 8.7668434,71.52745 8.1273957,72.80019 6.77419,73.64939 5.3855123,73.64939 H 4.2648376 l -0.1115449,1.75178 c -0.084346,1.32462 -0.233225,1.84075 -0.6105592,2.11666 -0.6859187,0.50156 -1.2907824,0.45706 -1.825985,-0.13433 z M 5.9475242,70.53648 C 6.3291626,70.2799 6.5955449,68.8542 6.400912,68.10993 6.2651056,67.5906 6.1303931,67.54016 5.2909154,67.6943 c -1.1924339,0.21895 -1.2887993,0.31859 -1.3969036,1.44437 -0.07235,0.75344 0.028049,0.97267 0.5737635,1.25287 0.7570495,0.38871 1.071378,0.4195 1.4797489,0.14494 z m -12.508807,6.28606 c -1.01774,-0.41006 -1.139757,-1.06011 -1.065828,-5.6782 0.07658,-4.78388 0.0044,-4.56358 1.748302,-5.33752 1.054571,-0.46803 3.2534045,-0.27115 3.8711669,0.34661 1.11695475,1.11696 -0.1408594,2.67636 -1.8935382,2.34755 -0.9113337,-0.17097 -0.9541417,-0.14773 -0.7985307,0.43336 0.09044,0.3377 0.166053,0.69197 0.16804,0.78727 0.002,0.0953 0.458541,0.11224 1.0145648,0.0377 1.170597,-0.15701 1.8994645,0.3727 1.8994645,1.38047 0,0.7144 -0.892137,1.45131 -1.7570236,1.45131 -0.9938257,0 -1.4179767,0.29567 -1.4179767,0.98844 0,0.64971 0.03555,0.66252 1.353654,0.48766 1.0806194,-0.14334 1.454188,-0.0886 1.8520834,0.27151 0.67723225,0.61289 0.62613945,1.32373 -0.1510023,2.10088 -0.5665333,0.56653 -0.878938,0.64729 -2.4473961,0.63266 -0.98888,-0.009 -2.058071,-0.12157 -2.37598,-0.24966 z m -8.7419202,-0.51963 c -2.312576,-0.54945 -2.96462,-1.97659 -2.481644,-5.43165 0.41317,-2.95568 0.71961,-3.9132 1.481401,-4.62886 0.576357,-0.54146 0.98494,-0.6348 3.196194,-0.73015 2.845091,-0.12268 3.5521102,0.18208 3.5521102,1.53116 0,1.05792 -0.4555532,1.28152 -2.7877932,1.36836 -1.727963,0.0643 -2.116492,0.15803 -2.186995,0.52734 -0.07127,0.37335 0.06717,0.42429 0.820738,0.302 1.128316,-0.1831 1.979872,0.25056 2.197909,1.11928 0.217669,0.86726 -0.523657,1.7015 -1.512,1.7015 -0.962757,0 -2.088109,0.51924 -2.088109,0.96347 0,0.49581 1.141694,0.7192 2.720201,0.53225 1.044672,-0.12373 1.461742,-0.0619 1.829964,0.27135 0.6697582,0.60613 0.6119502,1.81251 -0.11112,2.31897 -0.629777,0.44111 -3.081237,0.52315 -4.630856,0.15498 z m 25.790249,-0.55805 c -0.300273,-0.17489 -0.463021,-0.59255 -0.463021,-1.18825 0,-0.73184 0.139468,-0.98211 0.686092,-1.23117 1.376229,-0.62705 2.688096,0.81509 1.967046,2.16238 -0.316654,0.59168 -1.397744,0.71856 -2.190117,0.25704 z m 5.509004,-0.39458 c -0.665646,-0.66565 -0.526188,-1.88093 0.276172,-2.40666 0.619745,-0.40607 0.764687,-0.41274 1.389062,-0.0639 0.443142,0.24759 0.72844,0.66005 0.783094,1.13214 0.16404,1.41694 -1.474226,2.31252 -2.448328,1.33842 z m -38.118901,-0.1621 c -0.291042,-0.16346 -1.032522,-0.75515 -1.647734,-1.31487 -0.656154,-0.59697 -1.385511,-1.01767 -1.764298,-1.01767 -0.355152,0 -0.834062,-0.0723 -1.064245,-0.1606 -0.322021,-0.12357 -0.418515,0.0154 -0.418515,0.60259 0,1.10237 -0.67758,1.93926 -1.570106,1.93926 -0.410493,0 -0.872736,-0.15229 -1.027208,-0.33842 -0.179896,-0.21676 -0.247588,-1.74545 -0.188307,-4.25254 0.07721,-3.26512 0.169074,-3.99869 0.554052,-4.42409 1.036341,-1.14514 2.678845,-0.19432 2.414447,1.3977 -0.295669,1.7803 0.05381,1.85972 1.933789,0.43946 0.945885,-0.71459 1.828438,-1.5376 1.961227,-1.82893 0.479982,-1.05303 2.308125,-0.89162 2.601351,0.22967 0.216168,0.82663 -0.460359,2.01777 -1.742953,3.06876 l -1.210824,0.99218 1.24612,1.01983 c 2.728917,2.23337 2.863637,2.47574 1.907579,3.43179 -0.591738,0.59174 -1.197761,0.65767 -1.984375,0.21588 z m 43.390738,-0.31245 c -0.932039,-1.42247 0.907241,-3.06036 2.098698,-1.8689 0.590002,0.59 0.534084,1.88354 -0.096,2.22075 -0.831555,0.44503 -1.564989,0.31618 -2.002699,-0.35185 z M 0.15318965,61.88867 c -0.2109983,-0.211 -0.463884,-1.02594 -0.5619683,-1.81098 l -0.1783352,-1.42734 -1.17795915,0.025 c -1.1053775,0.0235 -1.1962466,0.0821 -1.4747561,0.95108 -0.5849097,1.82499 -1.7721087,2.39622 -2.7452517,1.32091 -0.459749,-0.50802 -0.460962,-0.60317 -0.02782,-2.18281 0.727751,-2.65408 2.6311452,-6.3253 3.8506603,-7.42706 1.99474315,-1.80213 3.7552668,-1.09778 4.227449,1.69131 0.1339223,0.79105 0.3039042,3.01601 0.3777376,4.94436 0.1106686,2.89039 0.064611,3.57571 -0.2622788,3.9026 -0.5039013,0.5039 -1.52994055,0.51042 -2.02747595,0.0129 z m -0.718381,-7.09084 -0.00588,-0.8599 -0.51740025,0.66146 c -0.6582714,0.84155 -0.6582714,1.05833 0,1.05833 0.42182655,0 0.52797335,-0.17443 0.52328355,-0.85989 z M -12.657256,61.8168 c -0.178193,-0.0623 -0.803271,-0.71522 -1.389062,-1.45094 -1.053447,-1.32308 -1.065074,-1.362 -1.065074,-3.56522 0,-2.53012 0.265732,-3.22774 1.908222,-5.00963 l 1.069589,-1.16037 h 2.2152612 c 1.862483,0 2.29953,0.0843 2.744428,0.52916 0.670414,0.67042 0.673771,1.37462 0.0094,1.97585 -0.414075,0.37474 -0.84561,0.4468 -2.122516,0.35443 -1.5431112,-0.11161 -1.6263492,-0.085 -2.2362882,0.71466 -1.317297,1.72706 -0.757502,5.12189 0.780911,4.73578 0.356792,-0.0895 1.2550682,-0.0173 1.9961692,0.16043 1.567015,0.37592 2.125903,1.13596 1.632165,2.21959 -0.276366,0.60656 -0.40279,0.63514 -2.754449,0.62263 -1.3556332,-0.007 -2.6105822,-0.0641 -2.7887762,-0.12637 z M 11.475597,60.7469 C 11.097491,60.47288 8.9971707,57.90805 7.9735045,56.47028 L 7.1136087,55.26254 v 2.04357 c 0,1.89664 -0.04834,2.07525 -0.6722968,2.48408 C 5.9060203,60.14093 5.637915,60.17097 5.1256945,59.93758 4.3829268,59.59916 4.2858366,59.24419 4.0998039,56.18689 4.0245389,54.94996 3.8846437,53.55887 3.7889264,53.09557 c -0.2311194,-1.11868 0.775558,-2.20035 2.047793,-2.20035 0.7299415,0 1.1856852,0.32752 2.9403865,2.11312 l 2.0765561,2.11312 -0.06958,-2.22223 c -0.07832,-2.50144 0.174976,-3.06234 1.382903,-3.06234 1.266941,0 1.486943,0.71133 1.636617,5.29166 0.102952,3.15056 0.05069,4.26225 -0.225499,4.79659 -0.47422,0.91747 -1.446238,1.29738 -2.102511,0.82176 z m -43.196868,-0.47397 c -0.713207,-0.49955 -0.762035,-1.46531 -0.104184,-2.06066 0.634773,-0.57446 1.444127,-0.55575 1.98868,0.046 0.581913,0.64301 0.552539,1.25357 -0.09128,1.8974 -0.636831,0.63683 -1.016048,0.66163 -1.793211,0.11728 z m 56.999845,-0.33656 c -0.240835,-0.26612 -0.437882,-0.67434 -0.437882,-0.90715 0,-0.51688 0.700189,-1.25483 1.190625,-1.25483 1.07234,0 1.608758,1.87427 0.678852,2.37194 -0.708389,0.37912 -0.927577,0.34697 -1.431595,-0.20996 z m 3.614059,0.0208 c -0.09063,-0.25467 -0.2103,-0.54798 -0.26593,-0.65181 -0.150003,-0.27998 0.914988,-1.26642 1.367265,-1.26642 0.214926,0 0.580576,0.28967 0.812554,0.64371 0.328096,0.50074 0.356767,0.7652 0.129082,1.19063 -0.375695,0.70199 -1.802148,0.76056 -2.042971,0.0839 z m -56.351458,-0.7581 c -0.406039,-0.61969 -0.412721,-0.76474 -0.06399,-1.38906 0.53561,-0.95889 1.874459,-1.09811 2.464131,-0.25624 0.554941,0.79229 0.532703,1.16851 -0.106874,1.80808 -0.748562,0.74856 -1.742352,0.67802 -2.293266,-0.16278 z m 5.039959,0.0197 c -0.350737,-0.53529 -0.380773,-0.80339 -0.147389,-1.31561 0.576866,-1.26609 2.511996,-1.07181 2.852889,0.28642 0.380765,1.51709 -1.833826,2.35954 -2.7055,1.02919 z M 20.574153,59.3287 C 20.05489,58.80944 20.02114,58.55592 20.133861,56.02141 l 0.12208,-2.74492 h -0.744234 c -0.984042,0 -1.721235,-1.03809 -1.298339,-1.82828 0.453334,-0.84706 1.223208,-1.11743 3.136054,-1.10131 0.974313,0.008 2.181939,-0.0139 2.683612,-0.0491 0.749335,-0.0526 0.984483,0.0637 1.317485,0.65146 0.375171,0.66221 0.364753,0.77055 -0.139927,1.4552 -0.299902,0.40685 -0.922535,0.85365 -1.38363,0.99289 l -0.838354,0.25315 v 2.6824 c 0,2.26265 -0.07572,2.75093 -0.483854,3.12029 -0.651873,0.58993 -1.255069,0.55104 -1.930601,-0.12449 z M 15.27644,50.25329 c -0.546174,-1.19872 0.565099,-3.3268 1.73724,-3.3268 0.691909,0 1.477012,0.75641 1.477012,1.42303 0,0.55193 -0.754365,2.07393 -1.161397,2.34323 -0.667094,0.44135 -1.757929,0.20783 -2.052855,-0.43946 z m 105.88322,125.36994 c 4.49689,-0.62277 7.21234,-1.58755 10.33119,-3.67059 2.87737,-1.92175 3.0584,-2.16382 4.25429,-5.68868 1.07109,-3.15702 1.18499,-4.70676 0.53555,-7.28645 -1.16378,-4.62273 -1.23666,-4.73734 -5.11734,-8.04813 -0.80595,-0.68759 -0.98475,-1.03144 -1.07979,-2.0765 -0.0769,-0.84503 0.01,-1.39823 0.26581,-1.70058 0.58126,-0.68598 0.85095,-3.88588 0.99748,-11.83524 0.18327,-9.94165 -0.1628,-15.21312 -1.22587,-18.67288 -0.94975,-3.09097 -1.79364,-4.0863 -3.86854,-4.56273 -1.08239,-0.24854 -1.33839,-0.22651 -1.75739,0.15121 -1.40955,1.27067 -2.79537,5.07705 -3.87146,10.63357 -0.55815,2.88204 -0.57939,3.45355 -0.41299,11.10816 0.10985,5.05333 0.3206,8.93244 0.5638,10.37759 0.41972,2.49408 0.32971,3.36451 -0.41788,4.04108 -0.72057,0.65211 -2.77454,0.84993 -5.29598,0.51008 -1.23861,-0.16695 -2.61851,-0.24975 -3.06642,-0.18401 -0.60182,0.0883 -1.01525,-0.0532 -1.58386,-0.54234 l -0.76947,-0.66186 -0.0241,-6.04267 c -0.0251,-6.30068 -0.072,-6.76161 -1.54306,-15.17079 -0.4964,-2.83766 -1.03286,-6.09948 -1.19211,-7.24849 -0.31701,-2.28714 -1.34096,-4.92654 -2.33331,-6.0145 -0.82225,-0.90146 -2.8574,-1.20582 -3.60184,-0.53866 -0.7435,0.66633 -1.394539,2.10053 -2.071844,4.56417 -0.557013,2.02609 -0.612127,2.77258 -0.613649,8.31144 -0.0019,6.93676 0.214254,11.60583 0.661454,14.2875 0.321092,1.92545 0.381686,2.61161 0.648404,7.34242 0.177882,3.1551 0.0247,3.70584 -1.410065,5.06984 -0.445819,0.42383 -1.191217,1.67399 -1.65644,2.77813 -1.787968,4.24347 -1.116693,10.17386 1.687378,14.90717 1.730469,2.92106 3.838622,4.37566 7.993432,5.51537 2.41575,0.66267 3.08832,0.73162 7.30168,0.74859 2.89195,0.0116 5.78347,-0.13956 7.67292,-0.40122 z m -6.07501,-3.43946 c -1.02279,-0.86062 -1.81527,-3.28166 -1.38401,-4.22818 0.51754,-1.13586 1.44237,-1.50763 3.46595,-1.39329 1.48999,0.0842 1.96828,0.22448 2.51435,0.73748 1.0248,0.96275 0.92055,2.25507 -0.30924,3.83357 -1.47981,1.8994 -2.87255,2.24065 -4.28705,1.05042 z m 9.68549,-5.9346 c -0.40949,-0.12292 -0.88574,-0.33439 -1.05834,-0.46994 -0.17259,-0.13556 -0.62704,-0.32112 -1.00987,-0.41236 -0.87679,-0.20897 -4.17791,-3.5676 -4.79327,-4.87677 -1.19725,-2.54716 1.4131,-4.35597 3.56261,-2.46867 0.4784,0.42004 1.6039,1.19395 2.50112,1.71979 1.4892,0.8728 1.80754,0.95608 3.65439,0.95608 1.92306,0 2.0561,-0.0392 2.69098,-0.79375 0.93099,-1.10642 2.1696,-1.09834 3.11088,0.0203 1.16895,1.38922 0.90305,2.43398 -1.15544,4.53988 -0.85055,0.87015 -1.62539,1.37444 -2.5364,1.65078 -1.41706,0.42985 -3.77068,0.49366 -4.96666,0.13466 z m -20.68673,-0.68687 c -1.02299,-0.24393 -1.79469,-0.61172 -2.17013,-1.03427 -0.32044,-0.36065 -0.77608,-0.65573 -1.01254,-0.65573 -0.60848,0 -1.976713,-1.4424 -1.976713,-2.08386 0,-0.97484 0.588742,-1.85286 1.547453,-2.3078 0.9293,-0.44098 0.96766,-0.43614 2.31424,0.29228 1.15481,0.62468 1.57088,0.71628 2.6564,0.58479 1.55809,-0.18873 4.10426,-1.19936 4.4444,-1.76408 0.53219,-0.88357 1.72504,-1.86508 2.26668,-1.86508 0.31343,0 0.9179,0.34803 1.34327,0.7734 0.67219,0.67219 0.77339,0.96891 0.77339,2.26743 0,1.23482 -0.14091,1.69885 -0.81218,2.67451 -1.84054,2.67512 -5.76222,3.9797 -9.37427,3.11841 z m -1.22553,-11.73836 c -0.68933,-0.68933 -0.79449,-0.95675 -0.65672,-1.67005 0.21326,-1.10408 1.04764,-1.77534 2.20678,-1.77534 0.51005,0 1.49478,-0.20153 2.18829,-0.44784 1.19091,-0.42297 1.30009,-0.4222 1.96579,0.014 1.10454,0.72372 1.38633,1.59238 0.8687,2.67786 -0.56134,1.17713 -1.46994,1.61333 -3.8299,1.83863 -1.89978,0.18138 -1.93174,0.17395 -2.74294,-0.63725 z m 21.04005,0.10366 c -1.39372,-0.92673 -1.69057,-1.36575 -1.69057,-2.50028 0,-2.08062 1.91317,-2.55365 4.10105,-1.01396 1.13936,0.80182 1.33456,1.07008 1.40683,1.93347 0.17557,2.09736 -1.8062,2.91802 -3.81731,1.58077 z M 9.5054849,175.09406 c 4.4968931,-0.62277 7.2123371,-1.58754 10.3311961,-3.67058 2.877366,-1.92176 3.058399,-2.16383 4.254285,-5.68869 1.071088,-3.15701 1.184993,-4.70675 0.535552,-7.28645 -1.163145,-4.62021 -1.239793,-4.74087 -5.106045,-8.03821 -0.819157,-0.69862 -0.982643,-1.03077 -1.152293,-2.34108 -0.271306,-2.09546 -0.232469,-2.87965 0.226313,-4.56966 1.09185,-4.02204 1.461828,-11.95269 0.95043,-20.37292 -0.220663,-3.63326 -0.401526,-4.80949 -1.078115,-7.01146 -0.949746,-3.09097 -1.793639,-4.08629 -3.86854,-4.56273 -1.082394,-0.24854 -1.338394,-0.22651 -1.757394,0.15121 -1.409545,1.27068 -2.795364,5.07705 -3.8714564,10.63357 -0.5581453,2.88205 -0.5793934,3.45355 -0.4129918,11.10816 0.1098532,5.05333 0.3206009,8.93244 0.563803,10.37759 0.4197231,2.49408 0.3297125,3.36452 -0.4178829,4.04108 -0.7205721,0.65211 -2.7745366,0.84994 -5.2959747,0.51009 -1.2386161,-0.16695 -2.61850835,-0.24976 -3.06642735,-0.18402 -0.601818,0.0883 -1.0152487,-0.0532 -1.58385985,-0.54233 l -0.7694617,-0.66186 -0.024081,-6.04267 c -0.025109,-6.30069 -0.071991,-6.76161 -1.5430592,-15.1708 -0.4964079,-2.83765 -1.0328609,-6.09948 -1.1921179,-7.24849 -0.317004,-2.28714 -1.340952,-4.92654 -2.333311,-6.0145 -0.822243,-0.90146 -2.857392,-1.20582 -3.6018292,-0.53866 -0.743506,0.66633 -1.394542,2.10053 -2.071848,4.56418 -0.588839,2.14185 -0.609715,2.55433 -0.552155,10.90958 0.04184,6.07392 0.185578,9.64721 0.478272,11.89005 0.230147,1.76356 0.486584,3.31672 0.56986,3.45146 0.08328,0.13474 0.197178,1.6627 0.253117,3.39546 0.11205,3.47089 -0.0339,4.00608 -1.46295,5.36465 -0.445818,0.42382 -1.191217,1.67398 -1.65644,2.77812 -1.787967,4.24348 -1.116693,10.17386 1.687378,14.90717 1.73047,2.92106 3.8386272,4.37567 7.9934282,5.51538 2.4157513,0.66266 3.0883233,0.73162 7.3016816,0.74858 2.8919472,0.0117 5.7834675,-0.13955 7.6729171,-0.40122 z m -6.0750097,-3.43945 c -1.022791,-0.86062 -1.8152657,-3.28167 -1.3840023,-4.22819 0.5175306,-1.13585 1.4423616,-1.50763 3.465947,-1.39329 1.4899882,0.0842 1.9682801,0.22448 2.5143459,0.73748 1.024802,0.96276 0.9205553,2.25508 -0.3092395,3.83357 -1.479808,1.8994 -2.8725476,2.24065 -4.2870511,1.05043 z m -13.6943892,-0.95308 c -0.713453,-0.34492 -1.25108,-1.57495 -1.01437,-2.32076 0.246221,-0.77577 1.18883,-1.59805 1.8319032,-1.59805 0.494609,0 0.485221,-0.0356 -0.116036,-0.43985 -1.1990622,-0.80621 -2.4978052,-2.35849 -3.3000172,-3.94425 -0.727347,-1.43776 -0.797091,-1.81251 -0.83369,-4.47944 -0.02876,-2.09545 0.06366,-3.07421 0.330022,-3.49534 0.530523,-0.83878 2.269737,-1.25266 3.7245532,-0.88633 2.050123,0.51622 5.8782137,0.39071 7.6472704,-0.25073 2.77800155,-1.00729 3.1029279,-1.07063 3.9900486,-0.77785 0.9203943,0.30375 1.6782551,1.2492 1.6782551,2.09365 0,0.29616 0.1117671,0.53847 0.2483715,0.53847 0.1366044,0 0.3365993,0.56555 0.4444332,1.25677 l 0.1960617,1.25677 0.2034165,-0.92604 c 0.1167403,-0.53145 0.086271,-1.26426 -0.071507,-1.71979 -0.3604388,-1.04065 0.063675,-2.15165 0.9809055,-2.56957 0.5579315,-0.25421 1.0416627,-0.22336 2.5367757,0.16179 2.5008486,0.64424 5.5284596,0.81661 7.7646686,0.44208 4.064498,-0.68075 3.680949,-0.71323 4.87359,0.41269 0.938201,0.88571 1.159391,1.32337 1.639445,3.2439 0.57643,2.3061 0.58074,2.1662 -0.186189,6.04336 -0.06521,0.32965 -0.494967,0.78255 -0.972867,1.02526 -1.528385,0.77619 -1.579354,0.8802 -0.853861,1.7424 0.362591,0.43092 0.659256,1.08116 0.659256,1.44499 0,0.92035 -1.273532,2.10337 -2.668733,2.47906 -2.160982,0.58189 -6.014075,-0.7011 -7.936267,-2.6426 -0.5814132,-0.58726 -1.210695,-1.06773 -1.3984042,-1.06773 -0.8116797,0 -2.8586901,-1.69685 -3.4495487,-2.85947 l -0.6133723,-1.20691 -0.3006741,0.90871 c -0.1653708,0.49979 -0.8664633,1.53112 -1.5579832,2.29185 -0.69152,0.76074 -1.665819,1.87064 -2.1651089,2.46646 -1.17902335,1.40697 -2.4247885,2.02449 -5.9327764,2.94084 -3.010984,0.78653 -4.416329,0.90038 -5.3775712,0.43566 z m 7.2122553,-9.39386 c 1.0472937,-0.38947 2.28052455,-1.01529 2.74051305,-1.39072 0.7675081,-0.62641 0.8219386,-0.77266 0.6613318,-1.77704 l -0.1750109,-1.09446 -1.1689686,0.39831 c -0.89388615,0.30457 -1.25390745,0.60159 -1.52991785,1.26218 -0.4137861,0.99033 -1.3349278,1.72678 -2.1598286,1.72678 -0.842793,0 -1.961186,-0.99169 -1.961186,-1.739 0,-0.6021 -0.09098,-0.64225 -1.455208,-0.64225 -1.380756,0 -1.455208,0.0343 -1.455208,0.66995 0,0.68867 0.609476,2.36108 1.056919,2.90022 0.504353,0.60771 3.420113,0.43963 5.4465641,-0.31397 z M 18.406051,159.837 c 0.557474,-0.55747 0.139853,-2.72148 -0.51904,-2.68952 -2.372417,0.11505 -2.23803,0.0579 -2.420143,1.02868 -0.319363,1.70234 -2.247283,2.30117 -3.470494,1.07796 -0.357188,-0.35719 -0.649432,-0.88023 -0.649432,-1.16232 0,-0.57701 -0.486433,-0.83408 -1.5782808,-0.83408 -0.7654153,0 -1.0559192,0.48338 -1.0639397,1.77032 -0.00667,1.07075 1.0661822,1.29056 6.0409485,1.23765 2.504689,-0.0266 3.358305,-0.12661 3.660381,-0.42869 z m -26.4567958,-6.63451 c -2.1139322,-0.65021 -2.8803212,-2.27704 -1.749777,-3.7143 0.604894,-0.769 1.605354,-0.91001 2.751446,-0.38782 0.598308,0.27261 0.766366,0.2255 1.41599,-0.39687 0.890513,-0.85317 2.377705,-0.96345 3.0452531,-0.22582 0.8445012,0.93317 0.8177818,1.93238 -0.084981,3.178 -1.2813301,1.76795 -3.0267771,2.26998 -5.3779311,1.54681 z m 19.1335358,-0.581 c -2.159683,-0.53909 -2.9515472,-1.84077 -1.9712382,-3.24035 0.7313558,-1.04416 1.3253092,-1.19752 3.2540192,-0.84022 1.935478,0.35855 2.950121,1.12707 2.950121,2.23451 0,0.87342 -1.030363,1.9623 -1.984376,2.09707 -0.436562,0.0617 -1.448399,-0.0513 -2.248526,-0.25101 z"
       id="path1" /></g></svg>
