<?xml version="1.0" encoding="UTF-8" standalone="no"?>
<!-- Created with Inkscape (http://www.inkscape.org/) -->

<svg
   width="420.49304mm"
   height="351.15115mm"
   viewBox="0 0 420.49304 351.15115"
   version="1.1"
   id="svg1"
   xml:space="preserve"
   inkscape:version="1.4.2 (ebf0e940d0, 2025-05-08)"
   sodipodi:docname="no_trees.svg"
   xmlns:inkscape="http://www.inkscape.org/namespaces/inkscape"
   xmlns:sodipodi="http://sodipodi.sourceforge.net/DTD/sodipodi-0.dtd"
   xmlns="http://www.w3.org/2000/svg"
   xmlns:svg="http://www.w3.org/2000/svg"><sodipodi:namedview
     id="namedview1"
     pagecolor="#ffffff"
     bordercolor="#000000"
     borderopacity="0.25"
     inkscape:showpageshadow="2"
     inkscape:pageopacity="0.0"
     inkscape:pagecheckerboard="0"
     inkscape:deskcolor="#d1d1d1"
     inkscape:document-units="mm"
     inkscape:zoom="0.36976783"
     inkscape:cx="35.157196"
     inkscape:cy="980.34488"
     inkscape:window-width="2880"
     inkscape:window-height="1583"
     inkscape:window-x="0"
     inkscape:window-y="0"
     inkscape:window-maximized="1"
     inkscape:current-layer="layer1" /><defs
     id="defs1" /><g
     inkscape:label="Layer 1"
     inkscape:groupmode="layer"
     id="layer1"
     transform="translate(79.895106,23.060355)"><rect
       style="fill:#ffffff;stroke-width:1.801"
       id="rect1"
       width="422.16806"
       height="352.04523"
       x="-80.610641"
       y="-23.775894"
       ry="1.404" /><path
       style="fill:#000000"
       d="m 230.97587,327.81515 c -1.30776,-0.23331 -2.81589,-0.7458 -3.35139,-1.13888 -0.79111,-0.58071 -2.82523,-3.74193 -3.36965,-5.23678 -0.0682,-0.18724 -2.25912,0.49063 -4.86873,1.50637 -2.60961,1.01575 -5.5351,1.93346 -6.5011,2.03937 -2.57845,0.28268 -7.32079,-0.68321 -10.02401,-2.04162 -2.83244,-1.42336 -3.90319,-2.84784 -3.90319,-5.19263 0,-3.45635 4.43605,-8.76809 10.10649,-12.10154 l 2.83501,-1.6666 -0.99102,-2.03757 c -1.39783,-2.87398 -2.05069,-7.1625 -1.80939,-11.88548 0.1883,-3.68545 0.16795,-3.8387 -0.47426,-3.57133 -5.14998,2.14406 -10.04109,2.54758 -13.01822,1.07402 -2.81595,-1.39379 -5.6491,-3.58062 -8.05723,-6.21914 -2.05538,-2.25203 -2.38627,-2.47421 -4.08455,-2.74267 -3.28601,-0.51945 -5.01834,-2.38849 -5.01834,-5.41436 0,-2.60942 0.65202,-3.74354 3.29401,-5.72956 3.03123,-2.27861 4.22105,-2.82705 7.69885,-3.54874 2.89493,-0.60074 3.0548,-0.59992 4.36623,0.0224 0.75296,0.35731 1.88285,1.36734 2.52846,2.26025 1.0502,1.45249 2.51752,2.72658 2.80137,2.43247 0.0598,-0.0619 1.02275,-2.33513 2.13992,-5.05152 1.11716,-2.71639 2.55582,-5.76745 3.19701,-6.78014 l 1.16581,-1.84125 -2.54633,-1.78224 c -1.40048,-0.98022 -3.5467,-2.43245 -4.76938,-3.22717 -1.31077,-0.85197 -3.01791,-2.4287 -4.15995,-3.84219 l -1.9369,-2.39726 -0.85109,0.8511 c -0.46811,0.4681 -1.09231,0.8511 -1.38712,0.8511 -0.29481,0 -1.77046,0.49096 -3.27923,1.09103 -2.85247,1.13448 -6.00603,1.84046 -10.05247,2.25042 -2.22388,0.22531 -2.42555,0.18498 -3.2632,-0.65267 -1.15832,-1.15832 -1.18339,-2.78306 -0.0603,-3.90617 0.644,-0.644 1.38299,-0.8873 3.26319,-1.07433 3.43212,-0.34141 6.41773,-1.05804 8.8032,-2.11301 1.12937,-0.49946 2.73725,-0.93787 3.57307,-0.97425 0.83582,-0.0364 1.51967,-0.11887 1.51967,-0.18332 0,-0.0644 -0.2484,-0.59753 -0.552,-1.18463 -0.30359,-0.58709 -0.69567,-1.95024 -0.87128,-3.02922 -0.17561,-1.07899 -0.41624,-2.05919 -0.53474,-2.17824 -0.1185,-0.11904 -2.38549,-0.33021 -5.03775,-0.46926 -10.36524,-0.54341 -12.37065,-0.78875 -13.19638,-1.61448 -1.06499,-1.06499 -1.03814,-3.11597 0.0523,-3.99899 0.94592,-0.76596 3.81166,-0.87501 8.35385,-0.31788 1.53457,0.18822 4.49669,0.39067 6.58249,0.44988 l 3.79236,0.10766 0.009,-1.42002 c 0.0147,-2.41681 0.65569,-4.43274 2.84085,-8.93433 1.49002,-3.06952 2.58476,-4.81765 3.74112,-5.97402 l 1.63473,-1.63473 0.28546,-5.13847 c 0.65067,-11.7126 1.91483,-20.22159 4.24759,-28.5904 1.27078,-4.55892 2.02663,-5.65224 3.9076,-5.65224 2.21374,0 5.24302,4.01854 8.15512,10.81831 0.65096,1.52 2.79439,6.01801 4.76316,9.99558 1.96877,3.97757 3.94821,8.26382 4.39875,9.525 0.65131,1.8232 0.95825,2.27674 1.49794,2.21343 0.37333,-0.0438 1.63128,-0.23713 2.79545,-0.42964 1.16416,-0.19251 4.719,-0.39221 7.89964,-0.44378 l 5.78297,-0.0938 1.27258,-2.05988 c 0.69992,-1.13294 2.08394,-3.19928 3.07558,-4.59187 1.82403,-2.56152 4.92108,-7.78196 9.76895,-16.46671 4.01373,-7.19041 3.76476,-6.86312 5.3181,-6.99106 1.70198,-0.14018 2.94417,0.90793 3.23072,2.72595 0.10979,0.69657 0.42193,2.13962 0.69364,3.20677 0.68151,2.67665 1.47302,8.43814 1.93858,14.11112 0.25734,3.13578 0.80628,6.41321 1.60712,9.59524 0.66896,2.65802 1.21629,5.1308 1.21629,5.49508 0,0.63031 4.25949,4.92399 6.68966,6.74336 1.61194,1.20678 5.30478,9.16686 5.30478,11.43466 0,0.62615 0.16947,0.66767 1.85209,0.45374 1.01864,-0.12951 3.57477,-0.55591 5.68028,-0.94755 4.95501,-0.92167 6.56812,-0.61517 7.33164,1.39303 0.41859,1.10099 -0.21407,3.10249 -1.13678,3.59631 -0.37409,0.2002 -1.35356,0.33209 -2.17661,0.29309 -1.19723,-0.0567 -10.11487,1.18707 -11.77066,1.64174 -0.21803,0.0599 -0.50879,0.71684 -0.64614,1.45994 -0.13734,0.74309 -0.87176,2.68274 -1.63204,4.31033 -1.7425,3.73029 -1.7477,4.13427 -0.0594,4.62066 2.3299,0.67123 11.8229,2.17782 14.34929,2.27729 2.04184,0.0804 2.54876,0.22676 3.08681,0.89122 0.91052,1.12445 0.8172,2.69216 -0.22214,3.7315 -0.76157,0.76157 -1.17605,0.86568 -3.43959,0.86403 -2.83202,-0.002 -9.34641,-0.99241 -14.09094,-2.14215 l -3.0506,-0.73926 -4.83181,4.10897 c -2.65749,2.25994 -5.37253,4.36683 -6.03342,4.68199 -0.6609,0.31515 -1.20163,0.72025 -1.20163,0.90021 0,0.17996 1.15094,1.37604 2.55764,2.65797 5.57747,5.08273 9.41618,9.02452 10.1672,10.44021 l 0.78884,1.48697 0.92393,-1.7686 c 1.60286,-3.06821 5.75077,-5.00246 10.18969,-4.75164 4.83195,0.27303 7.09282,2.95165 9.03427,10.70359 1.54692,6.17661 1.80901,8.75044 1.28899,12.6582 -0.74374,5.58884 -3.57946,11.82315 -6.64666,14.61261 -1.87183,1.70233 -5.38267,3.4938 -9.07751,4.63197 -2.19686,0.67673 -3.31601,0.76279 -10.13896,0.77968 -7.08548,0.0175 -7.73694,0.072 -8.55486,0.71539 -1.06963,0.84138 -1.11268,1.47963 -0.17979,2.66561 0.39862,0.50676 0.70556,1.43114 0.70556,2.12487 0,1.27633 -0.88096,2.30731 -4.40972,5.16072 -3.24369,2.62289 -11.86046,6.88656 -15.87501,7.85512 -1.16416,0.28087 -2.75166,0.73049 -3.52777,0.99914 -2.01638,0.69799 -6.65612,0.89402 -9.43332,0.39858 z m 7.33073,-5.72301 c 1.15642,-0.31335 2.97571,-0.76982 4.04286,-1.01437 1.7805,-0.40802 5.32751,-1.8594 7.9375,-3.24789 2.56091,-1.36237 5.34164,-3.0308 5.9224,-3.55342 0.84933,-0.7643 0.51308,-2.18458 -1.02362,-4.32355 -1.80825,-2.51694 -1.41785,-5.28271 0.74567,-5.28271 1.49721,0 2.08659,-1.19095 2.13264,-4.30939 0.0683,-4.62817 0.21806,-4.42214 -2.9541,-4.06521 -5.96455,0.67111 -8.56311,-0.3081 -10.17792,-3.83531 -0.8204,-1.792 -0.85217,-2.05757 -0.45054,-3.76665 0.23765,-1.01129 0.67204,-2.31496 0.9653,-2.89705 1.28519,-2.5509 5.80196,-7.55298 7.77245,-8.60755 0.42454,-0.22721 0.7708,-0.52658 0.76947,-0.66528 -0.001,-0.13869 -1.25679,-1.6291 -2.7899,-3.31202 -1.53311,-1.68292 -2.8958,-3.40119 -3.02821,-3.81837 -0.32039,-1.00945 0.38832,-2.63969 1.34588,-3.09596 2.58766,-1.233 3.81711,-1.50657 4.75156,-1.05731 1.37713,0.66209 2.08035,2.10059 1.63013,3.33456 -0.33284,0.91225 -0.21829,1.15401 1.39046,2.93443 1.76354,1.95174 3.03038,4.20466 3.04475,5.41474 0.015,1.25923 -1.11724,3.00226 -2.57605,3.96587 -3.78007,2.49687 -7.7774,7.18108 -7.58119,8.88391 l 0.11082,0.96187 2.94383,-0.0964 c 1.79074,-0.0587 3.35752,-0.31034 3.99996,-0.64256 2.22797,-1.15213 12.15981,-11.8191 13.68971,-14.703 0.7897,-1.4886 0.79459,-1.55833 0.19737,-2.81688 -0.33681,-0.70977 -1.98157,-2.52752 -3.65503,-4.03943 -1.67345,-1.51191 -3.76199,-3.46389 -4.64118,-4.33773 -0.8792,-0.87384 -2.06663,-1.82634 -2.63874,-2.11667 -0.5721,-0.29032 -1.67147,-1.12505 -2.44304,-1.85494 -0.82761,-0.78291 -1.63066,-1.25501 -1.95842,-1.15133 -0.49421,0.15634 -3.45158,0.4941 -13.80785,1.57698 -2.07879,0.21736 -4.83091,0.16719 -8.81944,-0.1608 -14.09132,-1.15877 -17.60304,-1.58979 -20.08359,-2.46497 -0.8258,-0.29136 -1.68568,-0.52975 -1.91085,-0.52975 -1.37804,0 -7.27967,13.25857 -7.44655,16.72938 -0.0676,1.40551 -0.27232,1.91654 -1.02842,2.56691 -1.86137,1.60108 -2.1961,1.40335 -9.26874,-5.47536 -1.86614,-1.81498 -1.97961,-1.86952 -3.39787,-1.63342 -1.67534,0.27889 -3.45985,1.13841 -4.99504,2.40588 l -1.05833,0.87377 1.94028,0.25174 c 1.76232,0.22865 2.08587,0.41646 3.52777,2.04767 2.49964,2.82782 4.32128,4.51393 6.65952,6.16406 2.10325,1.48429 2.23168,1.52448 4.36831,1.36679 4.15679,-0.30677 5.22904,-0.76634 7.31374,-3.13469 1.24426,-1.41354 1.93213,-2.52611 2.00854,-3.24862 0.31613,-2.98929 0.91151,-5.06558 1.88961,-6.58983 0.59231,-0.92304 1.32055,-1.77173 1.6183,-1.88598 1.20045,-0.46066 2.53106,-0.18079 3.43416,0.7223 1.18096,1.18096 1.19838,2.57747 0.0492,3.94319 -0.65263,0.7756 -0.8311,1.30817 -0.68886,2.05554 0.19687,1.03436 -0.0209,2.73691 -1.09918,8.59344 -0.54629,2.96709 -0.57079,3.99863 -0.21368,8.99583 0.37212,5.20737 0.48864,5.81296 1.50481,7.82066 0.7642,1.5099 1.3578,2.24056 1.93869,2.38635 0.46047,0.11557 1.39762,0.70216 2.08254,1.30353 1.8371,1.613 9.44743,4.92512 11.82789,5.14767 1.67387,0.15649 2.37743,0.004 5.00338,-1.08279 2.44237,-1.01102 6.18849,-1.97328 7.75027,-1.99081 0.13063,-10e-4 0.72594,0.40832 1.32291,0.91064 1.22034,1.02684 1.41863,2.33452 0.54347,3.58398 -0.53417,0.76263 -1.90126,1.27468 -4.47501,1.67612 -0.72203,0.11262 -1.51578,0.49073 -1.76389,0.84025 -0.64689,0.91128 -1.81712,1.45301 -3.13876,1.45301 -1.72454,0 -3.79777,1.16662 -5.95483,3.35081 l -1.93601,1.96036 0.70313,1.31317 c 0.54673,1.02105 0.9778,1.36169 1.93786,1.53131 2.23613,0.39506 4.05569,0.31899 6.18769,-0.25871 z m -22.13548,-3.87919 c 6.88412,-2.56115 10.30156,-4.52919 9.39542,-5.41066 -0.17974,-0.17484 -1.83492,-0.97798 -3.67819,-1.78474 -1.84326,-0.80676 -3.60201,-1.69183 -3.90833,-1.96681 -1.38828,-1.24628 -5.01069,0.23917 -9.76021,4.00239 -1.2907,1.02267 -3.61757,3.8891 -3.61757,4.45642 0,0.61528 4.57007,1.89104 6.98277,1.94927 0.63906,0.0154 2.70281,-0.54521 4.58611,-1.24587 z m 56.16446,-15.69022 c 0.67909,-0.17536 2.211,-0.21987 3.40424,-0.0989 1.69779,0.17209 2.73138,0.0493 4.7536,-0.56498 5.55828,-1.68828 7.60793,-3.25717 9.75845,-7.46956 1.86653,-3.65613 2.67691,-7.27724 2.43615,-10.88574 -0.24335,-3.64737 -2.1429,-10.76026 -3.26729,-12.23441 -0.79707,-1.04501 -1.07915,-1.17115 -2.61905,-1.17115 -2.13512,0 -3.98726,1.01836 -4.61693,2.53851 -0.59195,1.42908 -0.5823,5.15513 0.0162,6.26466 1.99651,3.70115 1.82243,10.02739 -0.35879,13.03847 -1.29732,1.7909 -2.16876,2.35525 -5.24273,3.39525 l -2.47382,0.83695 -4.68739,-0.68515 c -2.57806,-0.37683 -4.95839,-0.74993 -5.28962,-0.8291 -0.54245,-0.12967 -0.60134,0.27224 -0.59327,4.04891 l 0.009,4.19287 1.38795,-0.0544 c 0.76338,-0.0299 1.49777,0.0554 1.63198,0.18964 0.28199,0.28198 3.93658,-0.0433 5.75135,-0.51187 z m 3.86103,-13.01388 c 2.03038,-0.84101 2.31502,-3.94908 0.78617,-8.58444 l -0.99723,-3.02356 -1.44257,2.18398 c -0.79341,1.20119 -2.81109,3.59531 -4.48373,5.32025 -1.67264,1.72495 -2.98312,3.31245 -2.91218,3.52778 0.32615,0.99001 7.02124,1.41613 9.04954,0.57599 z M 238.99808,253.8632 c 0.97013,-0.18124 3.90701,-0.48605 6.52638,-0.67737 2.61938,-0.19131 5.55625,-0.59012 6.52639,-0.88624 0.97014,-0.29612 3.00053,-0.54012 4.51197,-0.54222 3.4059,-0.005 4.54729,-0.53636 8.85689,-4.12526 1.72607,-1.43741 3.40744,-2.80468 3.73638,-3.03838 0.77612,-0.5514 1.29556,-1.55534 2.49078,-4.81405 0.5379,-1.46653 1.57569,-4.09516 2.30621,-5.84141 1.06453,-2.54467 1.35957,-3.74917 1.48614,-6.06713 0.14945,-2.73717 0.085,-3.06427 -1.20244,-6.10476 -1.30237,-3.07569 -1.49968,-3.33272 -4.62939,-6.03066 -1.79797,-1.54993 -3.26904,-2.94952 -3.26904,-3.11019 0,-0.16068 -0.55313,-0.6698 -1.22919,-1.13137 -1.48104,-1.01116 -1.63445,-1.34443 -1.76671,-3.83783 -0.0566,-1.06716 -0.58925,-3.92466 -1.18367,-6.35 -0.59441,-2.42535 -1.17371,-5.7591 -1.28734,-7.40834 -0.3319,-4.81747 -0.9599,-10.36758 -1.23177,-10.88606 -0.1663,-0.31716 -0.76252,0.45797 -1.76377,2.29305 -2.56554,4.70211 -5.86171,10.15385 -8.21957,13.59487 -1.23931,1.80863 -2.85938,4.32029 -3.60016,5.58148 -1.45317,2.47405 -2.62093,3.93915 -2.96848,3.72436 -0.44147,-0.27285 -7.38076,-0.63462 -11.05898,-0.57655 -2.2647,0.0358 -4.38032,0.26663 -5.24783,0.57271 -3.04235,1.0734 -6.02623,0.39554 -7.27007,-1.65158 -0.39668,-0.65285 -1.14532,-2.37529 -1.66365,-3.82764 -0.51832,-1.45235 -2.4806,-5.7386 -4.36061,-9.525 -3.18452,-6.4137 -4.67517,-9.57718 -5.94591,-12.61851 -0.2892,-0.69214 -0.64834,-1.10075 -0.81465,-0.92686 -1.17217,1.22569 -3.4223,18.35051 -3.56373,27.12212 -0.0619,3.83906 -0.70749,6.83121 -1.65987,7.6931 -0.33309,0.30144 -1.02073,0.7059 -1.52811,0.8988 -1.04567,0.39757 -3.00442,3.69469 -4.40413,7.41337 -0.76535,2.03336 -0.87911,2.94929 -0.94602,7.6169 l -0.0761,5.30561 1.3354,2.73792 c 1.82294,3.73752 4.53059,6.51205 8.36599,8.57264 8.28398,4.45061 13.12912,6.00262 20.46111,6.55416 2.61938,0.19705 5.63563,0.49181 6.70278,0.65504 2.04457,0.31272 4.65017,0.18949 7.58473,-0.35872 z m -8.12669,-6.08656 c -1.82775,-1.82774 -2.36578,-4.02999 -1.42775,-5.84395 0.77519,-1.49905 1.65401,-1.88241 4.38967,-1.91485 3.13273,-0.0372 3.81151,0.24258 4.66951,1.92441 0.97367,1.90855 0.71792,2.6668 -1.75847,5.21337 -2.65897,2.73431 -3.65441,2.83957 -5.87296,0.62102 z m -15.15665,-7.62476 c -2.70512,-0.78636 -3.91684,-1.4336 -6.43106,-3.43518 -2.89298,-2.30312 -3.50856,-3.1442 -4.48639,-6.12982 -1.30011,-3.96967 -1.39112,-4.93089 -0.70003,-7.39391 1.18991,-4.24079 3.99617,-7.52577 7.74654,-9.06803 1.8644,-0.76669 2.01395,-1.17695 0.42903,-1.17695 -1.52515,0 -3.49479,-0.58356 -3.84802,-1.14008 -0.53017,-0.83528 -0.29772,-2.01675 0.49896,-2.53597 1.12295,-0.73186 4.68318,-0.22556 9.78958,1.39218 2.23132,0.7069 4.58484,1.36997 5.23004,1.47349 1.49871,0.24047 2.1377,1.43212 1.50846,2.81313 -0.36101,0.79235 -0.34145,0.99415 0.12149,1.25322 0.30349,0.16984 1.56703,1.17009 2.80787,2.22277 3.48165,2.95369 4.52659,5.98824 3.74549,10.87701 -0.50605,3.16729 -1.29472,4.63527 -3.97169,7.39269 -1.97139,2.03063 -2.51423,2.37561 -5.03314,3.19856 -3.25926,1.06484 -4.48184,1.10724 -7.40713,0.25689 z m 5.5119,-5.52318 c 1.66377,-0.58664 3.93224,-2.55882 4.76194,-4.13996 0.28286,-0.53904 0.60319,-1.96779 0.71186,-3.175 0.19233,-2.13664 0.16151,-2.24082 -1.16073,-3.92414 -1.07656,-1.37055 -1.3807,-1.59007 -1.46628,-1.05834 -0.41093,2.55308 -1.79954,3.68465 -4.59989,3.74844 -1.92013,0.0437 -3.35408,-0.73076 -4.12961,-2.23047 -0.59639,-1.15328 -0.66869,-3.24489 -0.14594,-4.22165 0.28964,-0.54122 0.24953,-0.68237 -0.19391,-0.68237 -1.7302,0 -4.29152,2.4607 -5.29422,5.08623 -0.58502,1.53187 -0.5877,1.74347 -0.0433,3.42898 0.31909,0.98801 0.58016,1.99698 0.58016,2.24217 0,0.37794 1.86763,2.11434 4.34122,4.03618 0.63428,0.49281 3.43095,1.36507 4.52207,1.41041 0.31515,0.0131 1.26765,-0.22112 2.11667,-0.52048 z m 24.12144,4.22517 c -0.97014,-0.46727 -1.96866,-0.85162 -2.21892,-0.85412 -0.25026,-0.002 -1.05484,-0.31054 -1.78795,-0.68454 -1.36592,-0.69684 -2.81203,-2.19594 -4.98897,-5.17177 -1.2187,-1.66594 -1.23423,-1.73211 -1.19717,-5.10016 0.0339,-3.07954 0.15228,-3.66124 1.21394,-5.96454 0.92626,-2.00953 1.70588,-3.03863 3.66662,-4.83989 3.28703,-3.01968 4.54618,-3.64496 7.32686,-3.63842 5.4581,0.0128 11.90335,2.94613 14.21057,6.4674 0.79902,1.21945 1.59029,5.63936 1.59029,8.88305 0,3.60683 -0.91091,6.34562 -2.70836,8.14307 -3.24369,3.24369 -11.11638,4.68197 -15.10691,2.75992 z m 9.11598,-5.5307 c 1.34313,-0.7106 2.345,-1.51427 2.62661,-2.10696 0.99205,-2.08792 0.41987,-8.41773 -0.89398,-9.88975 -0.76182,-0.85353 -1.02191,-0.77883 -1.43732,0.4128 -0.57155,1.63956 -1.65435,2.49779 -3.14949,2.4963 -2.78175,-0.003 -5.15183,-2.70741 -4.36084,-4.97642 0.31523,-0.90427 0.27511,-1.01948 -0.35501,-1.01948 -1.84745,0 -4.62233,2.57544 -5.60517,5.20232 -1.09974,2.93932 -0.94956,4.69799 0.5722,6.70088 0.70152,0.92331 1.53496,1.81949 1.85209,1.9915 0.31712,0.17202 0.89409,0.5921 1.28215,0.9335 1.05883,0.93153 4.03123,1.7356 5.76537,1.5596 0.84261,-0.0855 2.50914,-0.67245 3.70339,-1.30429 z m 1.64374,-23.45444 c -3.3226,-1.06969 -5.34065,-1.18558 -6.25387,-0.35912 -0.84565,0.76529 -1.9873,0.79126 -2.71677,0.0618 -1.17806,-1.17806 -0.38586,-2.85654 1.90857,-4.04378 2.15976,-1.11756 9.67977,0.36605 11.03136,2.17636 0.55704,0.74609 0.61289,1.06441 0.29195,1.66409 -0.70735,1.3217 -1.44265,1.40809 -4.26124,0.50066 z m -274.637516,117.7002 c -3.24352,-0.4481 -10.56411,-2.48076 -12.26453,-3.40542 -0.92465,-0.50281 -2.30085,-1.44461 -3.05822,-2.09289 -1.82033,-1.55814 -2.15313,-3.12774 -2.39914,-11.31524 l -0.19345,-6.43843 -1.60749,-0.79351 c -0.88413,-0.43643 -2.19477,-1.34914 -2.91254,-2.02824 -1.11155,-1.05164 -1.34318,-1.54033 -1.56221,-3.29587 -0.3192,-2.55836 0.0231,-5.66971 0.76128,-6.91931 0.83509,-1.41369 3.58203,-3.11554 5.7738,-3.57712 1.06715,-0.22474 2.05691,-0.58685 2.19946,-0.80468 0.14255,-0.21784 0.26164,-1.5867 0.26464,-3.0419 0.006,-3.08635 0.70932,-7.07005 1.99198,-11.28889 1.07941,-3.55032 1.8775,-5.1994 3.30081,-6.82046 l 1.04978,-1.19563 -0.73535,-0.66548 c -0.53164,-0.48113 -3.26848,-4.73786 -3.64499,-5.66921 -0.0141,-0.0348 -0.77515,0.0966 -1.69129,0.29199 -0.9858,0.21025 -2.82848,1.12907 -4.51436,2.25101 -1.56675,1.04266 -3.15417,1.99271 -3.52759,2.11124 -0.92924,0.29492 -2.49821,-0.51995 -3.11299,-1.61679 -0.82669,-1.47491 -0.28232,-2.6187 1.95751,-4.1129 1.09711,-0.73189 2.55163,-1.70787 3.23226,-2.16885 0.68064,-0.46098 2.2018,-1.18334 3.38035,-1.60524 2.44894,-0.87666 2.80783,-1.66989 0.89613,-1.98063 -0.68569,-0.11145 -1.40769,-0.30214 -1.60444,-0.42374 -0.19676,-0.1216 -1.93761,0.0867 -3.86857,0.46298 -1.93097,0.37623 -4.54272,0.77995 -5.8039,0.89715 -2.01251,0.18702 -2.41174,0.11893 -3.26319,-0.5565 -2.10648,-1.67101 -0.76225,-4.95171 2.02891,-4.95171 0.627,0 3.25473,-0.39849 5.83939,-0.88553 2.76868,-0.52171 5.17948,-0.79545 5.86797,-0.66629 l 1.16859,0.21923 0.009,-1.89135 c 0.0177,-3.88115 2.03384,-9.5496 4.45295,-12.51962 l 1.50426,-1.84682 -0.34387,-2.22912 c -0.61034,-3.95648 -0.69995,-4.24178 -1.20146,-3.82556 -0.25021,0.20765 -0.54847,0.84528 -0.6628,1.41695 -0.70777,3.53888 -5.1643,3.18379 -5.75537,-0.45858 -0.36907,-2.27433 1.90095,-5.12555 5.28436,-6.63733 l 0.99364,-0.44398 -0.23053,-3.37225 c -0.12678,-1.85474 -0.25642,-7.89663 -0.28808,-13.42642 -0.0566,-9.88415 -0.0413,-10.11832 0.9061,-13.84788 1.09077,-4.29412 1.74175,-5.73264 3.73577,-8.25527 1.82924,-2.31416 3.45774,-3.09424 5.8433,-2.79905 4.94637,0.61208 4.8713,0.58511 6.85848,2.46399 3.01876,2.85423 4.8720701,7.30625 5.5224301,13.26599 0.11645,1.06715 0.75058,4.87715 1.40917,8.46667 1.69405,9.23307 2.04873,12.44769 2.08959,18.93918 l 0.0359,5.71002 1.69828,0.23522 c 0.93405,0.12937 1.75437996,0.17911 1.82295996,0.11054 0.0686,-0.0686 -0.006,-0.83894 -0.16634996,-1.71191 -0.16007,-0.87297 -0.40245,-6.50847 -0.53862,-12.52333 -0.23299,-10.29118 -0.20254,-11.18576 0.51643,-15.16945 1.64867996,-9.13506 3.72349,-14.65412 6.66063,-17.7175 2.25389,-2.35077 3.71878,-2.78857 7.0343899,-2.10233 3.02998,0.62712 5.0561,1.66417 6.90656,3.53507 1.24283,1.25655 1.67133,2.11532 2.81782,5.64717 0.84256,2.59559 1.49097,5.45129 1.72059,7.57782 0.39634,3.67046 0.57094,17.75865 0.28001,22.59376 -0.17686,2.93945 -0.17269,2.95762 0.88063,3.83853 1.5371,1.2855 3.24231,3.80488 3.49809,5.16829 0.65312,3.48145 -3.29804,5.53462 -5.06367,2.63127 l -0.63231,-1.03976 -0.19365,1.69079 c -0.12802,1.11777 -0.0555,1.74026 0.21397,1.83676 0.74678,0.26745 4.70914,4.4239 5.28843,5.54749 0.55813,1.08257 2.41245,6.7234 2.86466,8.7143 0.17495,0.77026 0.3671,0.94503 0.83023,0.75513 0.33142,-0.1359 2.11071,-0.48712 3.95397,-0.78049 1.84327,-0.29337 3.77276,-0.75223 4.28777,-1.01971 1.29816,-0.6742 2.16393,-0.60897 3.24938,0.24485 1.23218,0.96923 1.29764,3.03336 0.13096,4.1294 -1.1073,1.04025 -3.15971,1.84059 -4.74636,1.85084 -1.59678,0.0103 -3.95633,0.5159 -6.00855,1.28745 -2.5147,0.94542 -2.05935,1.55856 2.64583,3.56267 2.27983,0.97107 4.54202,1.88085 5.02709,2.02174 2.37915,0.69104 3.25854,3.19132 1.65295,4.69969 -1.31077,1.23141 -2.93785,0.98971 -8.05902,-1.19717 -2.52987,-1.08032 -4.63528,-1.91375 -4.6787,-1.85208 -0.0434,0.0617 -0.36767,0.89058 -0.72057,1.84201 -0.73545,1.98284 -2.46224,4.03206 -4.68814,5.56351 l -1.54077,1.06009 1.71376,1.82048 c 0.94256,1.00127 2.24983,2.61423 2.90503,3.58437 0.6552,0.97014 1.58546,2.24014 2.06724,2.82222 1.80385,2.1794 3.61102,7.55396 4.49755,13.3758 0.56715,3.72445 0.64422,7.89654 0.16896,9.14655 -0.27642,0.72703 -0.1281,1.15717 0.88984,2.58061 1.80308,2.52133 2.60241,5.52135 2.99297,11.23315 0.39658,5.79982 0.0893,7.91767 -1.41323,9.74051 -1.50295,1.82334 -3.7413,3.23484 -5.6045,3.53418 -0.90676,0.14569 -3.0774,0.69619 -4.82365,1.22334 -2.40562,0.7262 -4.14498,0.9931 -7.1778,1.10145 -4.57612,0.16348 -7.12571,-0.26581 -8.69711,-1.46438 -0.8617399,-0.65728 -1.2362499,-0.75679 -1.7551999,-0.46637 -0.42453,0.23758 -2.41954,0.29393 -5.5961,0.15808 l -4.93638,-0.21112 -1.44093,1.44854 c -2.29519,2.30731 -3.82152,2.80874 -8.8021301,2.89165 -2.35426,0.0392 -5.07422,-0.0384 -6.04436,-0.17243 z m 9.2604201,-5.55358 c 0.90569,-0.12125 0.38007,-0.7505 -1.6642101,-1.99233 -1.79449,-1.0901 -2.2173,-1.21882 -2.86494,-0.87221 -2.08036,1.11337 -4.66315,-0.008 -4.64331,-2.01595 0.0109,-1.10678 0.64704,-5.58274 0.98445,-6.92709 0.16821,-0.6702 -0.12039,-1.27007 -1.31029,-2.72355 -1.59072,-1.94309 -1.82711,-2.12155 -3.76342,-2.84116 -1.6382,-0.60882 -2.44626,-2.30383 -1.77048,-3.7138 0.75851,-1.58258 1.91904,-1.97189 4.13533,-1.38725 2.31876,0.61168 3.79749,1.72954 5.89677,4.45771 2.13648,2.77652 2.748,4.75139 2.27072,7.3332 -0.47434,2.56594 -0.47682,2.5527 0.43632,2.32514 0.57268,-0.14271 1.5797901,0.31629 3.6159701,1.64803 2.62009,1.71363 3.06226,1.87801 6.17361,2.29506 4.56604,0.61203 7.21696,0.60111 7.7423,-0.0319 0.23119,-0.27857 0.88381,-0.60828 1.45026,-0.7327 0.56645,-0.12441 1.12188,-0.37501 1.23428,-0.55688 0.1124,-0.18187 0.85731,-0.66379 1.6553599,-1.07092 0.79804,-0.40713 1.71594,-1.06744 2.03976,-1.46734 0.52259,-0.64537 0.53524,-0.90499 0.11258,-2.3094 -1.03689,-3.44533 -0.3741,-6.58543 2.01843,-9.56261 2.71618,-3.37992 6.67759,-3.04107 6.67759,0.57118 0,0.88925 -0.27799,1.35869 -1.25919,2.12637 -1.44348,1.12937 -2.26859,2.50044 -2.26859,3.7697 0,0.4836 0.42009,2.0126 0.93352,3.39777 0.89643,2.41844 0.91067,2.5664 0.35849,3.72435 -0.31627,0.66322 -0.73106,1.20586 -0.92176,1.20586 -0.1907,0 -0.87986,0.53313 -1.53147,1.18474 -0.65161,0.65161 -1.41097,1.26488 -1.68746,1.36282 -0.27649,0.0979 -0.37017,0.31886 -0.20818,0.49095 0.45143,0.47955 6.43192,0.1643 7.81054,-0.41173 0.67149,-0.28056 1.58317,-0.51019 2.02597,-0.51029 0.44279,-10e-5 1.64022,-0.3176 2.66094,-0.70556 1.02073,-0.38796 2.23693,-0.70538 2.70267,-0.70538 0.5125,0 1.20736,-0.42849 1.76011,-1.0854 0.79983,-0.95054 0.9133,-1.40502 0.9133,-3.65795 0,-4.48378 -0.90095,-8.5269 -2.48555,-11.15418 -0.76814,-1.27358 -1.69228,-2.63295 -2.05365,-3.02084 -1.80681,-1.93938 -1.92353,-3.64703 -0.34977,-5.11714 1.07015,-0.99967 1.1012,-1.11065 0.90334,-3.22834 -0.79389,-8.49708 -3.02334,-13.50375 -8.53798,-19.1737 l -2.46945,-2.53899 -3.70714,1.16295 c -5.4948399,1.72377 -11.8187299,2.42217 -20.0195999,2.21093 -6.0785801,-0.15657 -6.9158301,-0.25885 -10.3754701,-1.26747 -2.06982,-0.60344 -4.30544,-1.41703 -4.96803,-1.80797 l -1.20472,-0.71079 -1.09501,1.36259 c -1.17668,1.46422 -2.92714,6.40234 -3.64372,10.27908 -0.25444,1.37655 -0.44262,6.15155 -0.4708,11.94678 -0.0464,9.53362 -0.0567,9.66164 -0.83387,10.29092 -0.4328,0.35046 -0.98323,0.70243 -1.22316,0.78215 -0.54039,0.17954 -0.79295,7.04526 -0.43555,11.83984 l 0.24496,3.28607 1.36267,0.98711 c 0.98622,0.71442 2.6578,1.28928 6.05078,2.08088 2.57846,0.60157 5.08498,1.13926 5.57005,1.19487 0.90124,0.10332 7.22823,0.0905 8.0257001,-0.0163 z m -6.2756101,-28.24204 c -2.51576,-1.33073 -4.92509,-3.90218 -4.92509,-5.25648 0,-1.07731 0.97572,-2.35811 2.05814,-2.70166 0.95804,-0.30407 2.34765,0.31431 3.42602,1.5246 1.08615,1.21902 2.57418,1.91441 3.74247,1.74894 0.60938,-0.0863 0.94747,-0.48596 1.2849701,-1.51896 0.5141,-1.57352 1.35599,-2.6551 2.06669,-2.6551 1.03547,0 0.39472,-0.62845 -0.84843,-0.83215 -2.4566101,-0.40253 -8.5912101,-2.61066 -9.0928201,-3.27294 -0.82775,-1.09286 -0.62619,-2.54615 0.51082,-3.68316 1.25301,-1.253 1.67079,-1.26885 4.42304,-0.16778 1.187,0.47488 2.9457101,1.05593 3.9082301,1.29123 4.49079,1.09784 5.66219,1.52715 6.52043,2.38969 l 0.91913,0.92372 0.68301996,-1.00579 c 0.76364,-1.12453 4.26454004,-2.67358 8.52509004,-3.77211 1.40272,-0.36167 2.8607199,-0.82367 3.2399999,-1.02665 2.61786,-1.40104 5.2579,0.94082 4.12291,3.65723 -0.54832,1.31232 -1.07732,1.5625 -6.0132899,2.8439 -3.86174,1.00252 -4.39238,1.2437 -2.73638,1.2437 1.26451,0 3.31446,1.60174 4.1718099,3.25967 0.50387,0.97438 0.63846,1.02699 2.18684,0.85483 0.90746,-0.1009 2.12852,-0.28673 2.71346,-0.41295 1.6002,-0.3453 2.99341,0.87066 2.99341,2.61256 0,2.3713 -2.23618,3.55912 -6.70278,3.56038 -2.8122499,7.9e-4 -4.2153399,-0.75177 -5.5728999,-2.98911 -0.91345,-1.50542 -1.0246,-1.57188 -2.6467,-1.58257 -1.74933,-0.0115 -3.30734004,-0.61026 -4.11251004,-1.58044 -0.40868996,-0.49244 -0.58660996,-0.38895 -1.52488996,0.88691 -0.58422,0.79442 -1.44075,1.58831 -1.9034,1.76421 -0.51725,0.19666 -1.10656,0.93894 -1.53035,1.9276 -0.83218,1.94141 -2.14399,2.60756 -5.5988901,2.84315 -2.07145,0.14126 -2.55376,0.0429 -4.28805,-0.87447 z m -19.40737,4.03989 c 0.21084,-0.25405 0.28476,-0.71881 0.16426,-1.03281 -0.12049,-0.31399 0.12264,-1.15006 0.54028,-1.85791 0.53115,-0.90023 0.69276,-1.59025 0.53774,-2.29603 -0.33702,-1.53446 -1.76342,-1.37097 -3.62227,0.41518 -1.2844,1.23417 -1.48145,1.62253 -1.47677,2.91042 0.006,1.77261 0.20891,2.13778 1.78728,3.22351 l 1.20593,0.82953 0.2401,-0.865 c 0.13206,-0.47575 0.41261,-1.07285 0.62345,-1.32689 z M 5.2969541,265.65756 c 5.9958599,-0.83036 9.6164499,-2.11673 13.7749299,-4.89411 3.83649,-2.56234 4.07786,-2.8851 5.67238,-7.58491 1.42812,-4.20936 1.57999,-6.27568 0.71407,-9.71527 -1.55086,-6.16029 -1.65306,-6.32117 -6.80806,-10.71762 -1.09252,-0.93176 -1.31003,-1.37387 -1.53566,-3.12144 -0.33075,-2.56179 -0.26541,-4.58755 0.17447,-5.40949 0.18751,-0.35035 0.34092,-1.28245 0.34092,-2.07131 v -1.43431 h -1.53282 c -1.06074,0 -1.72063,0.20753 -2.14263,0.67383 -0.87421,0.96599 -2.16295,1.19031 -3.3404,0.58143 -2.4933699,-1.28937 -1.7155299,-4.61931 1.4571,-6.23786 1.16664,-0.59518 1.92523,-0.70867 4.02724,-0.60252 1.5984,0.0807 2.60095,-0.007 2.61885,-0.22885 0.2729,-3.38424 0.26142,-13.73875 -0.0203,-18.3513 -0.30703,-5.02616 -0.54197,-6.56844 -1.45097,-9.525 -1.26708,-4.12127 -2.39249,-5.44847 -5.1587,-6.08364 -1.44319,-0.33139 -1.78452,-0.30202 -2.3431899,0.20161 -1.87939,1.69424 -3.72715,6.7694 -5.16194,14.17809 -0.7442,3.84273 -0.77253,4.60474 -0.55066,14.81088 0.14647,6.73777 0.42747,11.90992 0.75174,13.83679 0.55963,3.32544 0.43961,4.48602 -0.55718,5.38811 -0.96076,0.86947 -3.69938004,1.13325 -7.0613,0.68011 -1.65149,-0.2226 -3.49134,-0.33301 -4.08857,-0.24535 -0.80242,0.11777 -1.35366,-0.071 -2.11181,-0.72311 l -1.0259501,-0.88249 -0.0321,-8.05689 c -0.0335,-8.40091 -0.096,-9.01548 -2.05741,-20.22773 -0.66188,-3.78354 -1.37715,-8.13263 -1.58949,-9.66465 -0.42268,-3.04952 -1.78794,-6.56872 -3.11108,-8.01934 -1.09633,-1.20194 -3.80986,-1.60775 -4.80244,-0.7182 -0.99135,0.88843 -1.85939,2.8007 -2.76247,6.08556 -0.77783,2.82932 -0.8131,3.47087 -0.75462,13.72775 0.0337,5.91784 0.16422,11.59315 0.28997,12.6118 l 0.22862,1.85208 1.47392,0.008 c 1.78101,0.009 4.27329,1.07745 4.79685,2.05574 0.56868,1.0626 0.46219,2.34449 -0.26988,3.24856 -0.68804,0.8497 -1.91155,0.99138 -4.25244,0.49244 l -1.19939,-0.25564 0.25289,1.54711 c 0.13909,0.8509 0.32388,3.09844 0.41065,4.99452 0.17476,3.81898 -0.0707,4.63339 -1.92838,6.39949 -0.59442,0.5651 -1.58829,2.23198 -2.20858,3.70417 -2.38396,5.65797 -1.48893,13.56514 2.24983,19.87623 2.3073,3.89474 5.11817,5.83421 10.65791,7.35383 3.221,0.88355 4.11776,0.97549 9.7355701,0.99811 3.85593,0.0155 7.71129,-0.18607 10.23056,-0.53496 z m -8.10001,-4.58594 c -1.36373,-1.14749 -2.42036,-4.37555 -1.84534,-5.63758 0.69004,-1.51447 1.92315,-2.01018 4.62125996,-1.85772 1.98665004,0.11226 2.62438004,0.29931 3.35246004,0.98331 1.36641,1.28367 1.22741,3.00676 -0.41232,5.11142 -1.97307004,2.53254 -3.83006004,2.98754 -5.71606,1.40057 z m -13.1788201,-5.41685 c -3.53394,-1.15343 -4.51968,-1.71052 -6.25201,-3.53326 -2.96397,-3.11866 -4.05889,-7.22899 -3.01123,-11.30407 0.57969,-2.25481 2.81865,-6.46125 3.99779,-7.51084 2.22021,-1.97628 8.56789,-3.20618 12.1332001,-2.35087 3.40794,0.81755 6.47613,4.60761 7.49604,9.25969 0.26401,1.20423 0.49597,1.76909 0.51545,1.25524 0.0195,-0.51386 0.74487996,-2.35149 1.61198996,-4.08363 1.71894004,-3.43375 4.75861004,-6.76226 6.25162004,-6.84567 4.1573599,-0.23227 9.7913099,1.42239 12.0464799,3.53798 2.51402,2.35842 4.8219,8.43989 4.28631,11.29482 -0.74965,3.99595 -4.35857,7.61733 -8.49328,8.52261 -3.31803,0.72647 -3.98106,0.74578 -6.4359599,0.18743 -4.64501,-1.05649 -6.72608,-2.29741 -7.97538004,-4.75562 l -0.8059,-1.58576 -0.40411996,1.22447 c -0.77557,2.35002 -5.40499,6.25589 -8.48884,7.16209 -2.5102201,0.73764 -2.8298401,0.7142 -6.4721601,-0.47461 z m 5.03688,-4.9709 c 0.6791,-0.19811 2.0201501,-1.05414 2.9801201,-1.9023 l 1.74541,-1.54211 -0.61246,-3.78396 c -0.33685,-2.08118 -0.82821,-4.2012 -1.09192,-4.71115 -0.83798,-1.62047 -2.7569001,-2.87321 -3.2295901,-2.10838 -0.14926,0.24151 -1.01866,0.28947 -2.45635,0.13551 -2.68822,-0.28788 -3.26955,-0.0236 -4.73941,2.15427 -3.18092,4.71323 -1.66024,9.44573 3.6313,11.30095 2.66301,0.93365 2.29315,0.88884 3.7729,0.45717 z m -1.27419,-1.03996 c -1.02413,-0.41379 -2.25359,-2.05353 -2.25359,-3.00564 0,-0.43274 0.34299,-1.22283 0.76219,-1.75576 0.69284,-0.8808 0.92349,-0.95346 2.53521,-0.79859 2.9733001,0.28569 4.0028901,2.60559 2.1393001,4.82034 -0.92568,1.10011 -1.7924901,1.30153 -3.1831101,0.73965 z m 24.81705,-1.11251 c 2.5147,-0.59836 3.15646,-0.98394 4.15893,-2.49876 0.85955,-1.29888 0.89038,-1.49289 0.52042,-3.275 -0.53924,-2.59752 -2.03717,-4.74006 -3.71791,-5.31787 -1.6174,-0.55604 -5.4540299,-0.73737 -6.2331799,-0.29461 -0.88635,0.50368 -2.65866,4.03435 -2.92517,5.82732 -0.30336,2.04088 0.69489,4.24901 2.18615,4.83576 2.8243,1.11125 3.8573799,1.23554 6.0107599,0.72316 z m -4.7171999,-0.71824 c -0.75827,-0.36716 -1.53955,-1.67417 -1.53955,-2.57553 0,-0.26703 0.41099,-0.97393 0.91331,-1.5709 0.7265,-0.86341 1.18909,-1.0854 2.26169,-1.0854 1.0726099,0 1.5351899,0.22199 2.2616999,1.0854 1.14576,1.36165 1.16138,2.57914 0.0474,3.69313 -0.92951,0.92951 -2.5713999,1.11819 -3.9445399,0.4533 z M 132.45998,314.00452 c -1.13453,-0.88099 -3.63537,-2.48442 -5.5574,-3.56318 -1.92204,-1.07876 -4.70288,-2.87436 -6.17964,-3.99023 l -2.68503,-2.02885 -0.84642,1.00592 c -0.65134,0.77407 -1.14889,1.00591 -2.15875,1.00591 -2.71299,0 -3.29663,-1.41472 -2.61571,-6.34043 0.25554,-1.84852 1.01987,-5.02813 1.69852,-7.06578 0.67865,-2.03766 1.2339,-3.79172 1.2339,-3.89792 0,-0.10619 -0.54653,-0.12928 -1.21452,-0.0513 -0.96139,0.11224 -1.41338,-0.0571 -2.1687,-0.8124 l -0.95418,-0.95418 0.22338,-3.93275 c 0.12286,-2.16301 0.3063,-4.56775 0.40766,-5.34386 l 0.18428,-1.41111 -0.89846,1.94028 c -1.57008,3.3907 -1.75207,3.67655 -2.66812,4.19072 -1.80032,1.01049 -4.16551,-0.44465 -4.87479,-2.99914 -0.20891,-0.75238 -0.388,-2.63797 -0.39799,-4.19019 l -0.0182,-2.82222 -1.07861,2.29305 -1.07861,2.29306 0.42932,3.73869 c 0.48736,4.2442 0.25007,6.48774 -0.8079,7.63839 -1.426296,1.55126 -4.231996,0.69905 -4.616206,-1.40214 -1.14487,-6.26104 -1.65284,-7.84674 -2.93391,-9.15868 -0.71563,-0.73286 -1.33905,-1.29457 -1.38539,-1.24823 -0.0463,0.0463 0.12515,1.19436 0.38109,2.55116 0.30375,1.61029 0.3495,2.68476 0.13177,3.09426 -0.24257,0.45619 -0.1508,0.85969 0.33637,1.47903 0.38876,0.49424 0.85374,2.00766 1.10787,3.60599 0.24087,1.51487 0.60448,3.62743 0.80803,4.69458 0.80675,4.22955 0.77836,4.83015 -0.27446,5.80586 -1.2235,1.13391 -2.7427,1.16772 -3.82529,0.0851 -0.71688,-0.71688 -1.97836,-4.83822 -1.97836,-6.46343 0,-1.18364 -2.25342,-0.21626 -7.01198,3.0102 -1.09112,0.73982 -2.81729,1.76665 -3.83594,2.28185 -1.01864,0.5152 -1.85205,0.97374 -1.85202,1.01897 4e-4,0.54232 1.24784,6.36637 1.81591,8.47811 0.80097,2.97751 0.72213,4.84124 -0.25023,5.91569 -1.35876,1.50141 -3.43027,0.93637 -4.98464,-1.35964 -1.10759,-1.63605 -1.59954,-3.50115 -3.72214,-14.11141 l -0.44368,-2.21784 -2.99862,3.06273 c -1.95057,1.99229 -2.50639,2.70579 -1.59029,2.04145 l 1.40831,-1.02128 -0.61699,0.96142 c -0.33934,0.52879 -1.38987,1.7591 -2.33451,2.73403 -1.5794,1.63006 -1.85001,1.77261 -3.365,1.77261 -1.2788,0 -1.84125,-0.19378 -2.51338,-0.86591 -0.96133,-0.96133 -1.01762,-1.33146 -0.52858,-3.47579 0.18553,-0.81353 0.5941,-2.82851 0.90793,-4.47775 0.31383,-1.64923 1.10379,-4.23208 1.75546,-5.73966 l 1.18486,-2.74105 -1.00665,0.7168 c -0.55366,0.39424 -1.43708,1.23084 -1.96316,1.85911 -1.37602,1.64331 -2.62336,2.37204 -4.0647,2.3747 -1.55381,0.003 -2.57661,-0.99789 -3.12245,-3.05513 -0.2145,-0.80844 -0.62459,-1.91969 -0.91131,-2.46941 -0.28671,-0.54972 -0.52485,-1.23761 -0.5292,-1.52865 -0.004,-0.29104 -0.72305,-1.79917 -1.59711,-3.35139 -1.76307,-3.131 -1.78404,-3.05009 -0.6401,2.46944 1.29315,6.2394 1.1644,7.50583 -0.83384,8.20242 -1.3672,0.47661 -3.18145,-0.25812 -3.43038,-1.38925 -0.0988,-0.44877 -0.48439,-2.16532 -0.85695,-3.81455 -0.37256,-1.64924 -0.86719,-4.18924 -1.09919,-5.64445 -0.23199,-1.45521 -0.80439,-4.18273 -1.272,-6.06115 -1.30375,-5.23724 -1.067,-6.82633 1.17559,-7.8905 1.1422,-0.54201 1.32945,-0.53925 2.8516,0.0421 2.53565,0.96836 4.76902,3.32678 6.89691,7.28307 l 1.87636,3.48864 2.52531,-4.3811 c 2.7132,-4.70708 5.26974,-9.95922 6.64315,-13.64769 0.4696,-1.26118 1.40648,-3.59253 2.08195,-5.18079 2.64974,-6.23047 3.8895,-11.5843 5.49895,-23.74698 1.06183,-8.02426 1.09515,-8.68082 1.03848,-20.46111 -0.0322,-6.69396 0.10721,-16.61584 0.30981,-22.04862 0.63755,-17.09622 0.85492,-53.78809 0.3668,-61.9125 -0.42399,-7.0569 -0.20656,-23.32467 0.65777,-49.212505 0.85531,-25.61747 -2.34128,-48.7901 -8.38088,-60.75447 -1.69706,-3.36187 -3.57826,-5.41189 -8.38992,-9.1428799 -6.37925,-4.94649 -11.24015,-8.14759999 -16.43883,-10.82564 l -2.02423,-1.04276 -1.59329,1.46864 c -3.4384,3.16940001 -7.39328,5.28658 -14.03848,7.51525 -4.02543,1.35005 -4.63329,1.45624 -9.2475399,1.61558 -5.42051,0.18717 -7.7349,-0.13552 -10.64387004,-1.48406 l -1.82441996,-0.84577 -0.92031,1.39068 c -2.9499,4.4575899 -16.1879001,10.4843599 -26.9998201,12.2919999 -5.90987,0.98807 -12.83829,1.29896 -16.23241,0.72836 -3.80821,-0.6402 -9.22376,-2.31411 -11.98413,-3.70421 -4.27436,-2.15253 -9.94728,-7.2191899 -12.40518,-11.0794399 -1.59362,-2.50286 -3.21661,-6.76082 -3.33326,-8.74492 -0.0591,-1.00512 -0.41551,-2.43387 -0.79202,-3.175 -2.2814,-4.4906901 -3.34918,-11.1126501 -2.22248,-13.7829201 l 0.48378,-1.14653 h 3.51462 3.51462 l -1.12235,1.41708 c -0.64132,0.80974 -1.19379,1.9815 -1.28905,2.73403 -0.22959,1.81364 1.3575,7.05637 3.08166,10.1798201 1.4091,2.5527 1.64371,3.58047 1.06439,4.66293 -0.59194,1.10605 1.79383,5.20473 4.83101,8.29954 4.73294,4.82274 8.778,6.9567199 16.12922,8.5090099 6.30105,1.33054 17.64189,-0.0407 26.10556,-3.1563999 6.82675,-2.51314 12.1546401,-5.59102 13.2629501,-7.66191 0.27419,-0.51234 0.26127,-0.98843999 -0.047,-1.73276999 -0.33456,-0.80771 -0.33055,-1.25464001 0.0188,-2.09814001 0.9936,-2.39876 3.09132,-2.38027 6.6189,0.0584 3.39326,2.34575001 5.01119,2.81868001 9.65847,2.82320001 6.8005199,0.007 14.4698999,-2.63520001 19.9950899,-6.88753001 2.42583,-1.86698 8.84281,-9.5417801 10.31608,-12.3381801 1.72038,-3.26545 2.33916,-4.01482 3.68081,-4.4576 0.98757,-0.32593 1.43093,-0.30317 2.27244,0.11663 0.89553,0.44674 1.1044,0.45058 1.45615,0.0268 0.32504,-0.39166 1.7599,-0.49481 6.88277,-0.49481 5.63228,0 6.44555,0.0693 6.26734,0.53366 -0.11263,0.29351 -0.0261,0.7489 0.19218,1.01197 0.21833,0.26308 0.68678,1.58222 1.04101,2.93144 0.68573,2.6119 0.53978,3.85257 -0.73909,6.28265 -1.25824,2.3908901 -4.98632,4.7668001 -7.46347,4.7564701 -3.01987,-0.0126 -6.24995,-1.13827 -8.47634,-2.9540101 l -2.09069,-1.70506 -1.51173,1.71519 c -1.6298,1.8491601 -1.81341,2.2443601 -1.0427,2.2443601 0.27288,0 1.66194,0.76918 3.08681,1.70929 1.42486,0.94011 3.70192,2.35253 5.06011,3.13872 2.51963,1.45848 6.45514,4.32303001 11.8258,8.60767 4.49644,3.58721 6.98329,7.1480399 9.52483,13.6382699 5.03801,12.86534 7.7788,35.65939 7.00747,58.27827 -0.8461,24.811515 -1.08711,43.065875 -0.6596,49.959795 0.48279,7.78531 0.26762,42.20453 -0.38127,60.98882 -0.19437,5.6268 -0.33363,15.70743 -0.30947,22.40139 0.0402,11.12491 -0.0348,12.80748 -0.87189,19.57916 -1.60221,12.96074 -2.93483,19.23623 -5.33209,25.10958 -0.69875,1.71195 -1.72112,4.30327 -2.27194,5.75848 -2.30183,6.0812 -4.3035,10.20486 -8.17214,16.83548 -0.93085,1.59542 -2.0364,3.5798 -2.45679,4.40973 -0.87484,1.72711 -1.15357,1.88825 3.20959,-1.85552 1.45521,-1.24863 3.28083,-2.93448 4.05695,-3.74634 0.77611,-0.81186 1.83057,-1.58103 2.34325,-1.70927 1.36103,-0.34044 3.07336,0.67329 3.70967,2.19621 0.68006,1.62761 0.33439,3.07177 -1.8526,7.73991 -0.89413,1.90854 -1.92801,4.18445 -2.2975,5.05758 l -0.67179,1.5875 2.12721,-2.22351 c 1.16997,-1.22293 2.93154,-3.24699 3.9146,-4.49792 1.62852,-2.07224 1.90449,-2.27441 3.10481,-2.27441 0.95284,0 1.54916,0.24669 2.15484,0.8914 0.83314,0.88684 0.83528,0.91059 0.4176,4.64824 -0.23089,2.06627 -0.35136,3.8253 -0.26769,3.90897 0.0837,0.0837 1.70936,-0.87624 3.61264,-2.13314 4.29547,-2.83666 6.7451,-4.14047 7.77923,-4.14047 0.96537,0 0.96544,-0.003 0.11299,-4.64285 -0.89147,-4.85215 -1.58109,-12.27296 -1.28647,-13.84339 0.13429,-0.71582 0.61923,-1.54303 1.14879,-1.95958 1.79588,-1.41264 3.86006,-0.64452 5.42559,2.01897 1.46677,2.49546 3.68087,5.72685 3.92395,5.72685 0.13398,0 0.34769,-0.32793 0.4749,-0.72873 0.12721,-0.40081 0.67212,-1.23424 1.2109,-1.85208 0.53878,-0.61785 1.09763,-1.52023 1.24187,-2.0053 1.29914,-4.3687 3.417566,-8.08137 5.248066,-9.19754 1.47844,-0.90149 2.4548,-0.856 3.64922,0.17005 0.98565,0.84672 0.99055,0.87256 1.1662,6.1571 l 0.17639,5.30682 2.45088,-3.02963 c 3.2751,-4.04849 5.26784,-5.16835 6.9283,-3.89349 1.62628,1.24861 1.72713,2.92621 0.49582,8.24778 -0.48659,2.103 -0.96983,4.19661 -1.07386,4.65246 l -0.18914,0.82883 1.07051,-0.76227 c 0.58878,-0.41925 1.62027,-0.85148 2.29221,-0.96052 1.68976,-0.27421 3.37111,1.34136 3.37111,3.23922 0,0.70844 -1.19063,4.91573 -2.64583,9.34953 -1.45521,4.43379 -2.64572,8.35106 -2.64558,8.70503 1.5e-4,0.38122 1.1915,1.60455 2.92249,3.00093 2.71476,2.18999 4.25737,3.20797 11.89874,7.85203 1.57711,0.95849 3.25308,2.20098 3.72438,2.76109 1.11479,1.32485 1.11132,2.85858 -0.009,3.9789 -1.31035,1.31034 -2.55755,1.12508 -4.95412,-0.73589 z M 53.267214,-13.771785 c 1.36571,-0.80675 1.70363,-1.71385 1.259,-3.37967 -0.34525,-1.29347 -0.43446,-1.36618 -1.43426,-1.16893 -2.46786,0.48688 -6.09611,0.62217 -6.78585,0.25303 -0.58362,-0.31235 -0.84158,-0.24653 -1.37961,0.35199 -0.65079,0.72396 -0.64727,0.74571 0.21184,1.31156 0.48049,0.31647 1.35939,0.99864 1.95313,1.51593 1.8497,1.61154 4.52005,2.09414 6.17575,1.11609 z M 153.44946,309.21408 c -0.6791,-0.40984 -2.10785,-1.57201 -3.175,-2.58261 -1.06715,-1.0106 -3.22038,-2.50261 -4.78494,-3.31557 -4.87316,-2.53215 -6.66525,-4.88631 -5.60755,-7.36629 1.14868,-2.69327 4.26384,-3.2536 9.33416,-1.67895 6.59523,2.04822 7.77065,2.30908 12.5711,2.78991 5.66952,0.56787 7.97969,1.347 9.65646,3.25673 2.80727,3.1973 -0.83458,6.96655 -3.90031,4.03676 -1.19228,-1.1394 -1.68598,-1.2632 -7.21475,-1.80917 -2.13431,-0.21076 -4.51556,-0.52928 -5.29167,-0.70782 -0.77611,-0.17854 -1.54961,-0.3285 -1.71889,-0.33324 -0.52022,-0.0146 0.5307,1.04427 2.67109,2.69127 2.19191,1.68663 2.71842,2.74504 2.01878,4.05822 -0.98595,1.85059 -2.54097,2.17833 -4.55848,0.96076 z m 28.38181,-9.62591 c -0.59132,-0.25757 -1.70707,-1.18624 -2.47945,-2.06371 l -1.40432,-1.59539 -0.97981,0.84279 c -1.10024,0.94639 -1.57632,1.02015 -2.84713,0.44113 -0.80166,-0.36526 -1.97388,-2.1824 -1.97388,-3.05985 0,-0.19594 -0.34079,-1.24682 -0.75732,-2.33528 -0.63707,-1.66475 -0.86701,-1.94419 -1.44807,-1.75977 -1.7786,0.5645 -5.20294,-1.37755 -5.20294,-2.95076 0,-0.29391 -0.75406,-1.26469 -1.6757,-2.15728 -1.94905,-1.88765 -7.44514,-11.69225 -8.32549,-14.85207 -0.61926,-2.22265 -1.00624,-4.79815 -1.98777,-13.22915 -0.96408,-8.2812 -1.33171,-14.38945 -1.9852,-32.98473 -1.16488,-33.14691 -0.27655,-78.6655 2.18935,-112.18333 0.58979,-8.01679 1.00262,-17.468765 1.20953,-27.693065 0.30546,-15.09469 0.9125,-36.61532 1.214,-43.03889 0.80797,-17.21393 1.25785,-21.77566 2.64283,-26.79808 0.37651,-1.36536 1.10375,-4.3749899 1.6161,-6.6880699 0.51234,-2.31308 1.38467,-5.48808 1.93851,-7.05555999 1.89036,-5.35009001 7.5398,-16.59493011 10.3284,-20.55799011 0.66541,-0.94566 0.97314,-1.74196 0.85209,-2.20487 -0.18005,-0.68851 -0.0418,-0.7246 2.7761,-0.7246 h 2.96558 l 0.008,1.14653 c 0.0161,2.27786 1.82309,6.48862 3.69607,8.6127 2.08234,2.36151 4.25363,3.4741401 7.77206,3.9826101 4.14208,0.59861 5.72294,0.45416 9.51043,-0.8690001 1.93829,-0.67715 3.77003,-1.23117 4.07055,-1.23117 0.30051,0 1.16915,-0.3175 1.93029,-0.70555 1.85452,-0.94549 3.05112,-0.89428 4.05425,0.17351 2.18403,2.3247901 0.20313,4.9289101 -4.5728,6.0115101 -1.07299,0.24322 -3.14152,0.88329 -4.59672,1.42238 -2.83615,1.05067 -6.78195,1.32848 -10.98062,0.77312 -1.96738,-0.26023 -1.9865,-0.25397 -2.18011,0.7141 -0.10743,0.53714 -0.67079,1.57491 -1.2519,2.30614001 -3.16125,3.97791999 -2.5697,12.29673989 1.19234,16.76767989 1.17836,1.40039 6.11071,4.69494 8.83997,5.90463 2.32592,1.03091 8.11565,2.43368 11.51064,2.78885 3.37078,0.35265 10.73573,-1.46151 14.18454,-3.49398 0.79162,-0.46652 2.85418,-2.29734 4.58347,-4.0685 2.38928,-2.44711 3.0457,-3.31875 2.73403,-3.63042 -0.62049,-0.62048 -0.4914,-2.55995 0.22965,-3.45041 0.86331,-1.0661399 3.89496,-1.3978899 5.1657,-0.5652799 2.96313,1.9415199 0.94438,6.9861899 -5.04653,12.6107199 -4.33404,4.06899 -6.54696,5.315 -12.10781,6.81742 -1.89021,0.5107 -2.30994,0.748 -2.134,1.20651 0.31725,0.82673 3.50063,5.94505 4.87163,7.83273 1.26868,1.7468 4.70861,4.35219 6.5709,4.97679 0.63711,0.21369 1.3965,0.5923 1.68754,0.84136 0.29104,0.24907 1.79917,0.88823 3.35139,1.42035 3.67063,1.25835 10.28136,1.58788 14.06725,0.70123 6.14803,-1.43988 12.74903,-6.49459 12.06104,-9.23575 -0.27026,-1.0768 0.58938,-3.14713 1.51171,-3.64074 2.07736,-1.11177 4.19316,0.18704 4.54204,2.78818 0.17032,1.26977 0.48876,1.71695 2.29037,3.21626 3.62718,3.01857 10.91779,6.03131 16.97395,7.01424 3.10132,0.50335 8.12812,0.43051 10.9053,-0.15801 3.0121,-0.63831 7.45413,-2.93562 9.53915,-4.93342 1.78007,-1.7056 4.45991,-6.0317 5.56937,-8.9907 1.07104,-2.85651 1.23898,-5.75787 0.49146,-8.49056 -1.06874,-3.907 -1.07619,-5.11663 -0.0379,-6.15495 0.495,-0.495 1.2644,-0.90238 1.70978,-0.90531 1.59401,-0.0104 3.65203,-1.01017 4.82356,-2.34312 1.34389,-1.52908 2.87951,-4.7040899 3.04442,-6.2946199 0.1883,-1.81602 1.18052,-3.65938 2.27411,-4.2249 1.29153,-0.66788 1.90335,-0.67446 3.14219,-0.0338 0.86645,0.44806 1.20276,0.42835 3.04143,-0.17823 4.10492,-1.35422 6.87307,-3.74889999 6.89377,-5.96368 0.005,-0.48853 0.32648,-2.07887 0.71536,-3.53408 0.63062,-2.35981 0.66616,-3.00812 0.32882,-5.9972201 -0.39609,-3.50957 -1.60551,-6.57589 -3.33943,-8.46667 -0.44483,-0.48507 -0.91669,-1.23913 -1.04858,-1.67569 -0.23677,-0.78375 -0.19815,-0.79375 3.06742,-0.79375 h 3.30722 l 1.56725,2.91042 1.56725,2.91041 -0.0252,6.52639 c -0.0139,3.5895201 -0.21225,7.5342201 -0.44081,8.7660101 -0.47334,2.55098001 -2.4214,6.0138 -4.10568,7.2981 -1.31028,0.99914 -5.27191,2.99301 -6.71716,3.38072 -0.58208,0.15616 -1.88489,0.56776 -2.89513,0.91469 -1.79474,0.6163199 -1.86527,0.6936999 -3.07997,3.3793399 -1.01446,2.24295 -1.84473,3.36473 -4.5132,6.09788 l -3.27003,3.34929 -0.017,4.13268 c -0.0146,3.55431 -0.14798,4.49798 -0.95307,6.74289 -1.06016,2.95615 -3.62635,7.57584 -5.47862,9.8627 -2.53391,3.12843 -7.64179,6.42566 -11.82679,7.6344 -1.12621,0.32528 -1.99097,0.6967 -1.92167,0.82539 1.02901,1.91091 1.37957,3.23059 1.24107,4.67198 -0.36073,3.75413 -4.15306,9.24473 -6.99541,10.12806 -0.66684,0.20723 -2.36337,0.56118 -3.77007,0.78654 l -2.55764,0.40975 v 1.67558 c 0,4.27607 -2.75835,11.28591 -5.52801,14.04844 -5.07335,5.06028 -14.4595,10.68419 -20.19483,12.10016 -3.7565,0.92742 -9.90147,1.42039 -12.90633,1.03538 -1.35819,-0.17402 -4.61257,-1.08076 -7.23194,-2.01496 l -4.76251,-1.69856 -2.46944,1.86659 c -3.68686,2.78681 -5.64975,3.30252 -13.40556,3.52205 l -6.35,0.17973 -3.31596,-1.11253 c -3.72835,-1.2509 -6.96805,-3.10151 -8.51612,-4.86467 -0.97984,-1.11598 -1.08614,-1.1537 -1.84671,-0.65536 -0.82959,0.54357 -5.59335,1.87152 -10.03865,2.79839 -1.38223,0.28821 -4.54877,1.34557 -7.03674,2.34971 -2.48798,1.00413 -6.34203,2.46499 -8.56457,3.246355 -2.22253,0.78136 -4.25443,1.63412 -4.51533,1.89502 -0.2609,0.2609 -0.68106,0.59693 -0.93369,0.74673 -0.25264,0.1498 -0.97359,1.70112 -1.60211,3.44737 -0.62852,1.74625 -1.60544,4.445 -2.17093,5.99722 -0.56548,1.55222 -1.17236,3.85409 -1.3486,5.11528 -0.17625,1.26117 -0.90296,3.95992 -1.61491,5.99722 -1.4638,4.18878 -1.50984,4.71296 -2.29303,26.10555 -1.48465,40.55313 -0.75015,85.21791 1.76649,107.42084 1.20139,10.59916 1.4791,11.69276 4.32726,17.04022 l 2.49959,4.693 1.01235,-3.61903 c 2.05914,-7.36115 4.96118,-10.9341 7.65472,-9.42437 1.65348,0.92677 1.91214,2.05071 1.22871,5.33892 -0.84892,4.08434 -0.85083,10.94307 -0.004,14.30284 0.53715,2.13113 0.74966,2.5346 1.22416,2.32416 1.2656,-0.56131 3.23881,-0.56207 4.09423,-0.002 1.10208,0.72211 1.59252,1.63751 2.28817,4.27084 0.47774,1.80842 0.72864,2.1968 1.72292,2.66695 1.38217,0.65357 1.80478,1.23841 1.81206,2.50766 0.008,1.416 -0.32997,2.03021 -1.43094,2.59954 -1.20598,0.62364 -1.59871,0.6263 -2.99018,0.0202 z M 161.99667,96.707705 c 0.97993,-1.94028 2.20549,-4.00403 2.72348,-4.58611 1.44175,-1.62015 2.84042,-3.96106 2.84042,-4.75392 0,-0.39166 0.5299,-1.30787 1.17756,-2.03604 1.20355,-1.35316 3.57794,-5.33335 5.87697,-9.85159 2.16425,-4.25335 6.75246,-9.38753 8.82047,-9.87005 0.48507,-0.11318 1.43757,-0.63881 2.11667,-1.16807 1.51028,-1.17704 5.79622,-3.37799 7.21043,-3.70276 0.57024,-0.13095 1.44337,-0.52493 1.94027,-0.87551 1.21342,-0.8561 4.649,-2.56787 7.3855,-3.67981 1.22832,-0.49911 3.47011,-1.62086 4.98176,-2.49278 1.51165,-0.87192 5.10695,-2.79339 7.98955,-4.26995 2.88261,-1.47656 5.35363,-2.79315 5.49117,-2.92577 0.13754,-0.13261 -0.31191,-0.62619 -0.99878,-1.09683 l -1.24884,-0.85573 -14.37975,7.29704 c -8.37726,4.25107 -14.78562,7.29705 -15.35207,7.29705 -1.57658,0 -3.26734,-1.00715 -3.88859,-2.31635 -0.80824,-1.70323 -0.31807,-3.19264 2.36344,-7.18145 1.21554,-1.80816 3.16258,-4.74777 4.32674,-6.53248 2.85863,-4.38238 5.694,-8.37525 7.88451,-11.10323 0.99929,-1.24448 1.81606,-2.35573 1.81505,-2.46945 -0.001,-0.11372 -1.03473,-0.45313 -2.29717,-0.75423 l -2.29534,-0.54747 -6.35625,7.9558 c -6.45719,8.08213 -10.5731,14.11055 -16.99308,24.88913 -1.96465,3.29848 -4.84046,7.89581 -6.39069,10.21629 -1.55023,2.32049 -3.26294,5.19904 -3.80602,6.39678 -0.54308,1.19774 -1.44443,2.9528 -2.003,3.90014 l -1.01559,1.72244 -0.24592,8.79857 c -0.13525,4.83922 -0.32416,9.202455 -0.41979,9.696075 -0.13074,0.67486 -0.0326,0.59121 0.39567,-0.33723 0.31325,-0.6791 1.3713,-2.822225 2.35122,-4.762505 z m 14.30243,-4.52621 c 3.53175,-1.42133 7.53678,-2.71111 11.01703,-3.5479 5.85069,-1.40675 7.76111,-1.98547 7.76111,-2.35106 0,-0.61728 -0.81259,-2.45122 -1.0861,-2.45122 -0.58407,0 -12.57524,3.15587 -15.5389,4.08957 -4.41342,1.39046 -5.4183,2.01027 -6.82544,4.20999 -1.24683,1.94911 -1.40221,2.28377 -1.06034,2.28377 0.10102,0 2.6807,-1.00492 5.73264,-2.23315 z m 48.0587,-0.47013 c 2.3631,-1.08418 5.29166,-3.61082 5.29166,-4.56544 0,-0.94501 1.53767,-2.25628 2.64584,-2.25628 1.0229,0 2.51168,1.18272 2.76841,2.19929 0.16834,0.66659 0.98039,1.06293 4.89034,2.38683 4.44753,1.50591 4.86977,1.58369 8.21625,1.51338 5.76523,-0.12111 8.58659,-0.78888 13.58194,-3.21462 6.5616,-3.18631 12.00944,-7.53422 13.74289,-10.96817 1.99611,-3.95427 2.67374,-8.25052 1.47274,-9.33741 -0.83791,-0.7583 -1.22788,-3.44201 -0.67612,-4.65299 0.42891,-0.94136 1.92402,-1.91519 2.94036,-1.91519 0.31986,0 1.14335,0.26658 1.82999,0.59241 1.07775,0.51143 1.61557,0.53975 3.93387,0.20713 2.51419,-0.36072 2.76975,-0.48007 4.0075,-1.87155 1.76395,-1.98302 2.3405,-3.86861 1.55121,-5.0732 -0.31912,-0.48704 -0.58021,-1.28799 -0.58021,-1.77988 0,-0.86882 -0.068,-0.8944 -2.38125,-0.89578 -7.53584,-0.004 -19.69612,-4.07522 -24.57703,-8.22731 l -1.38189,-1.17554 -2.00378,1.96811 c -2.43991,2.39647 -6.3834,4.69689 -10.49985,6.12504 -2.62092,0.90929 -3.75045,1.09277 -7.61999,1.23778 -5.18034,0.19413 -8.14324,-0.2168 -12.39038,-1.71843 l -2.82223,-0.99783 -1.26021,1.00825 c -0.69311,0.55454 -3.55061,2.15167 -6.35,3.54917 -7.44946,3.71891 -9.14673,4.80368 -9.14673,5.84593 0,0.5755 -0.81376,1.73754 -2.46047,3.51351 -2.1886,2.36042 -4.71647,6.11567 -5.45196,8.09913 -2.39145,6.44921 -2.49589,10.4367 -0.38814,14.81888 1.06415,2.21246 1.50595,2.74374 3.09525,3.72216 1.01966,0.62773 2.8858,1.51811 4.14699,1.97862 2.13649,0.78012 2.70251,0.82961 8.29027,0.72481 5.15967,-0.0968 6.21893,-0.2142 7.58473,-0.84081 z m -40.37932,-11.17534 c 3.29092,-0.86999 6.85661,-1.75816 7.92376,-1.97372 l 1.94028,-0.39191 0.57624,-2.19663 c 1.37886,-5.25619 1.85527,-6.5919 3.33054,-9.33794 l 1.56228,-2.908 -2.32286,1.2323 c -1.27757,0.67777 -2.56816,1.2323 -2.86798,1.2323 -0.6441,0 -4.204,1.94892 -5.22151,2.8586 -0.39047,0.3491 -1.45103,0.96253 -2.3568,1.3632 -2.18873,0.96817 -5.37803,4.48779 -6.72352,7.41987 -0.57874,1.26118 -1.35112,2.71444 -1.71641,3.22946 -0.69191,0.97553 -0.86373,1.52163 -0.38582,1.22627 0.15308,-0.0946 2.97089,-0.88382 6.2618,-1.7538 z m -20.23135,-14.87276 c 1.25099,-1.94028 2.80685,-4.48028 3.45746,-5.64445 4.38778,-7.85125 12.11715,-19.31163 17.90668,-26.55031 3.15295,-3.94216 5.73264,-7.29368 5.73264,-7.44781 0,-0.15413 -1.24328,-1.09003 -2.76285,-2.07977 -6.28993,-4.09684 -9.1363,-8.81583 -9.76715,-16.1929099 -0.35833,-4.19018 1.27755,-10.04966 3.46635,-12.41599 0.76742,-0.82966 0.76794,-0.83917 0.0678,-1.23576 -1.28124,-0.72577 -5.77611,-5.6663601 -6.3922,-7.0260601 l -0.60477,-1.33472 -1.3953,2.39305 c -1.29947,2.2287001 -4.17612,8.2765801 -6.09629,12.81690011 -0.45525,1.07643999 -1.17012,3.37831999 -1.58862,5.11527999 -0.41849,1.73695 -1.28308,5.3012299 -1.92131,7.9205999 -0.63823,2.61938 -1.34554,5.95313 -1.57181,7.40833 -0.62787,4.03801 -1.36648,19.53605 -1.95869,41.09862 -0.2686,9.77965 -0.62029,9.45392 3.42805,3.175 z m 39.79678,-19.88717 c 5.52979,-2.78371 10.24251,-5.21364 10.47271,-5.39984 0.30844,-0.24949 -0.0999,-1.19054 -1.55214,-3.57716 -1.08388,-1.78124 -2.27184,-3.9133 -2.63992,-4.73792 -0.42481,-0.95172 -0.88867,-1.48786 -1.27008,-1.46797 -0.80677,0.0421 -4.78994,4.49898 -7.78866,8.71501 -3.05782,4.29913 -7.94318,11.83081 -7.56223,11.65856 0.15738,-0.0712 4.81052,-2.40697 10.34032,-5.19068 z M 136.6933,284.0061 c -2.31429,-1.2067 -2.88746,-2.43265 -2.05877,-4.40351 0.40542,-0.96422 0.40094,-1.54879 -0.0293,-3.82216 -0.27936,-1.47611 -0.68512,-4.66821 -0.90167,-7.09356 -0.21656,-2.42534 -0.62482,-5.87644 -0.90725,-7.66911 -0.71045,-4.50946 -0.64187,-11.67326 0.18258,-19.07024 0.38285,-3.43495 1.01716,-10.21411 1.40959,-15.06481 0.96509,-11.92933 1.3827,-16.2539 1.77146,-18.34444 0.63026,-3.38913 1.15092,-14.15313 0.93852,-19.40278 -0.34922,-8.63147 -1.2347,-14.89127 -3.20688,-22.67061 -1.01158,-3.9902 -3.9661,-10.66689 -4.72024,-10.66689 -0.26359,0 -1.17354,-0.71437 -2.02213,-1.5875 -0.84858,-0.87312 -1.69777,-1.5875 -1.88709,-1.5875 -0.18933,0 -1.60829,-0.9525 -3.15326,-2.11666 -1.65372,-1.24612 -3.16435,-2.11667 -3.67295,-2.11667 -1.91091,0 -6.61343,4.47388 -8.52855,8.11389 -2.4059,4.5728 -3.93305,10.83703 -5.33223,21.87222 -1.6892,13.32268 1.24417,26.78034 6.96362,31.94752 2.15765,1.9493 4.18476,2.74116 5.86144,2.28968 3.58083,-0.96422 8.43636,-8.84016 9.90663,-16.06914 1.1627,-5.71673 1.80646,-12.52687 1.18362,-12.52121 -0.14552,0.001 -0.94132,2.42226 -1.76844,5.37986 -1.74167,6.2278 -2.82541,8.64839 -4.72056,10.54354 -1.15454,1.15454 -1.58857,1.36031 -2.86931,1.36031 -1.95704,0 -2.50273,-0.41811 -4.91079,-3.76261 -3.02207,-4.19729 -4.69354,-8.01371 -6.31925,-14.42864 -1.30825,-5.16222 -1.41182,-5.90934 -1.26836,-9.14903 0.28512,-6.43885 1.92965,-9.28365 6.73716,-11.65436 5.01889,-2.47495 8.52137,-2.41383 11.8364,0.20655 3.98136,3.14708 7.94328,12.18034 8.84904,20.17595 0.61672,5.44418 -0.81145,15.56382 -2.95033,20.90519 -2.43865,6.08998 -6.98863,12.2138 -10.17424,13.69349 -3.39247,1.57579 -6.85723,1.38562 -10.1354,-0.5563 -9.40926,-5.57385 -14.015176,-21.16061 -11.700556,-39.59552 2.039146,-16.24085 4.596406,-23.42288 10.432826,-29.30046 5.87826,-5.9197 9.92735,-6.55033 15.19449,-2.36648 2.17355,1.72652 3.72806,2.55888 4.80813,2.57451 1.62973,0.0236 3.81826,2.84535 6.76705,8.72506 4.59354,9.15926 7.27837,27.65256 6.26745,43.1707 -0.23207,3.56247 -0.6497,8.22347 -0.92806,10.35778 -0.76662,5.87794 -1.21943,10.41284 -1.60298,16.05391 -0.19119,2.81201 -0.7039,8.36713 -1.13935,12.3447 -1.35261,12.35524 -1.04981,21.07929 1.22444,35.27777 1.20166,7.50216 1.21857,8.61539 0.14713,9.68682 -1.0285,1.02851 -2.06504,1.12734 -3.57362,0.34074 z m -15.75769,-94.69422 c 2.38616,-8.25184 2.6036,-9.41332 1.98589,-10.60784 -0.67506,-1.30543 -1.42154,-1.17404 -1.33706,0.23533 0.19854,3.31183 -1.77813,4.88593 -4.41994,3.5198 -2.06518,-1.06795 -2.31288,-3.32724 -0.71529,-6.52429 1.92966,-3.86159 5.14123,-5.29364 7.98427,-3.5602 0.63059,0.38448 1.14653,0.60454 1.14653,0.48904 0,-0.75938 -2.46324,-4.59674 -3.62364,-5.64509 -1.27434,-1.15128 -1.53299,-1.24544 -2.84503,-1.03564 -0.79379,0.12693 -2.32213,0.67629 -3.39632,1.22078 -2.65546,1.34603 -3.28978,2.51034 -3.47469,6.3779 -0.12492,2.6129 0.0324,3.74553 1.1304,8.13631 1.2699,5.07838 2.34857,7.75282 4.47055,11.08422 l 1.11471,1.75004 0.45425,-0.86809 c 0.24983,-0.47746 0.93625,-2.53498 1.52537,-4.57227 z m -45.270706,85.9364 c -0.74233,-0.74233 -0.84399,-1.15915 -0.82313,-3.37516 0.0199,-2.11274 0.159,-2.68892 0.84657,-3.50605 1.13779,-1.35218 6.33326,-15.51735 7.58141,-20.67028 2.83807,-11.71696 3.35529,-18.45884 2.84174,-37.04185 -0.48502,-17.55084 -0.8332,-42.65473 -0.96146,-69.32084 -0.0555,-11.54465 -0.23769,-28.45153 -0.40482,-37.57083 -0.16868,-9.203835 -0.16947,-17.092145 -0.002,-17.730425 0.37749,-1.43673 1.62538,-2.28424 3.14739,-2.13755 0.97223,0.0937 1.44997,0.49403 2.87058,2.40547 0.93734,1.26118 1.83097,2.3388 1.98584,2.39471 0.15487,0.0559 0.5661,-1.25406 0.91383,-2.91106 0.60335,-2.87508 0.6043,-3.16983 0.0208,-6.45166 -0.33628,-1.89142 -0.98822,-5.10581 -1.44876,-7.14311 -0.46054,-2.03729 -1.01681,-5.05354 -1.23614,-6.70277 -0.24617,-1.85102 -0.98757,-4.57316 -1.93724,-7.11281 -1.90785,-5.10209 -2.63811,-8.55322 -2.63811,-12.46752 0,-2.74616 0.081,-3.11051 0.86591,-3.89543 1.09436,-1.09436 2.53932,-1.11592 4.10435,-0.0612 1.65888,1.11792 2.02078,2.32149 1.2272,4.08134 -0.48894,1.08428 -0.57149,1.81407 -0.37117,3.28129 0.24402,1.78729 0.6245,3.01519 2.79367,9.01597 0.50559,1.39865 1.1588,4.17677 1.45158,6.17361 0.29279,1.99684 0.83271,4.82125 1.19982,6.27646 1.24526,4.93605 2.20093,11.36834 1.96552,13.22916 -0.31471,2.48761 -1.52161,7.10139 -2.38076,9.10127 -0.7091,1.65063 -1.99155,2.71679 -3.26793,2.71679 -0.3084,0 -1.2048,-0.32857 -1.99198,-0.73017 -0.78718,-0.40159 -1.48505,-0.67636 -1.55081,-0.6106 -0.28145,0.28145 -0.22841,13.348995 0.1207,29.739385 0.20664,9.70139 0.35717,23.51264 0.3345,30.69167 -0.0227,7.17903 0.18574,24.16528 0.46313,37.74722 0.7448,36.46893 0.64208,40.00917 -1.47705,50.9045 -1.36231,7.00418 -2.13516,9.60641 -5.63017,18.95719 -1.59306,4.26218 -3.18951,8.7813 -3.54766,10.04248 -0.366,1.28881 -0.97898,2.56343 -1.39965,2.91041 -1.06649,0.87968 -2.65629,0.78012 -3.66597,-0.22956 z m -121.69345,-75.68614 c -0.34138,-0.37721 -0.94993,-0.7344 -1.35233,-0.79375 -1.3812,-0.2037 -8.4151,-9.87827 -10.72267,-14.74818 -0.68954,-1.4552 -1.94465,-4.07458 -2.78914,-5.82083 -1.61522,-3.34 -3.06453,-7.85931 -3.84654,-11.99444 -0.25685,-1.3582 -0.79087,-4.09086 -1.18671,-6.07259 -0.39585,-1.98173 -0.89899,-5.23611 -1.1181,-7.23195 -0.21911,-1.99584 -0.61668,-4.5813 -0.88349,-5.74546 -0.2668,-1.16417 -0.6469,-4.00358 -0.84465,-6.30981 -0.19776,-2.30622 -0.4041,-4.2247 -0.45855,-4.26327 -0.0545,-0.0386 -1.21024,0.0325 -2.56844,0.15787 -3.19184,0.29471 -4.77771,-0.12548 -6.60979,-1.75131 l -1.48615,-1.31884 0.0433,-31.35733 c 0.0367,-26.591835 0.12873,-31.973875 0.60555,-35.414265 0.33038,-2.38383 0.56863,-6.603 0.57769,-10.23056 0.008,-3.39548 0.17797,-7.76111 0.37662,-9.70139 0.19864,-1.94027 0.43323,-4.7184 0.52129,-6.17361 0.24151,-3.99095 1.12515,-4.84603 6.53997,-6.3286 2.45171,-0.67128 3.41764,-0.72354 11.1125,-0.60125 4.63506,0.0737 10.33239,0.32838 12.66072,0.56606 2.32833,0.23767 5.45206,0.33525 6.94162,0.21685 6.40648,-0.50924 17.59898,-0.57256 35.7444901,-0.20224 26.3496799,0.53776 30.9938999,1.04176 34.6496499,3.7602 1.32018,0.98171 1.81821,2.39677 3.11296,8.845 0.77958,3.88253 0.86586,5.17502 0.85957,12.87638 -0.004,4.70836 -0.15799,9.60429 -0.34255,10.87985 -0.77503,5.35644 -1.18868,19.31137 -1.12336,37.897475 0.0375,10.67154 -0.0628,19.87904 -0.22287,20.46112 -0.22559,0.82027 -0.80162,1.33544 -2.56084,2.29023 -2.25107,1.22175 -2.30779,1.23216 -6.88272,1.26417 -2.53711,0.0177 -4.83899,0.17382 -5.11527,0.34683 -0.46086,0.28858 -27.1657699,0.58018 -44.42318,0.48508 -5.90161,-0.0325 -8.02929,0.0977 -11.56646,0.70791 -2.49873,0.43107 -5.63636,0.72626 -7.40833,0.69698 -1.6906,-0.0279 -3.92893,0.12606 -4.97406,0.3422 -1.04512,0.21614 -1.92261,0.39299 -1.94996,0.39299 -0.0273,0 -0.0246,6.70719 0.006,14.90486 0.0454,12.1126 0.1629,15.4574 0.62705,17.85425 0.31413,1.62216 0.57131,3.44779 0.57151,4.05694 0.002,4.3835 6.21719,22.05422 8.31069,23.62657 1.0605,0.7965 1.17474,2.66425 0.21602,3.53187 -0.8674,0.78498 -2.28139,0.73756 -3.04119,-0.10201 z m -5.98856,-13.51345 c -0.25791,-0.82462 -0.64828,-1.94907 -0.8675,-2.49878 -0.64873,-1.6268 -2.51039,-9.74297 -2.51045,-10.94473 -4e-5,-0.60972 -0.2524,-2.37858 -0.56082,-3.9308 -0.44524,-2.24088 -0.58149,-5.80158 -0.66144,-17.28611 -0.0554,-7.95514 -0.22042,-15.28401 -0.36676,-16.28637 -0.24589,-1.68424 -0.19381,-1.89475 0.68655,-2.77512 0.808,-0.808 1.15359,-0.92048 2.27642,-0.74094 0.72809,0.11643 2.47512,-0.008 3.88229,-0.27581 1.40717,-0.26812 3.47289,-0.40458 4.59049,-0.30324 1.26908,0.11507 3.87492,-0.11109 6.94058,-0.60238 4.03993,-0.64743 6.15718,-0.77588 11.96414,-0.72586 16.37649,0.14108 43.76575,-0.25465 44.97917,-0.64988 0.76311,-0.24856 2.19873,-0.31593 3.75858,-0.17638 3.83313,0.34292 4.78207,0.058 5.73483,-1.72161 0.79222,-1.4798 0.79923,-1.61138 0.68061,-12.78408 -0.1999,-18.828625 0.28861,-37.779295 1.12311,-43.568065 0.18181,-1.26118 0.3337,-6.06597 0.33755,-10.67732 0.006,-7.4876 -0.085,-8.84674 -0.85348,-12.70872 -0.47325,-2.37846 -1.02787,-4.76478 -1.23247,-5.30294 -0.45732,-1.20283 -1.97761,-1.88208 -5.25183,-2.34645 -1.33702,-0.18962 -2.65235,-0.42524 -2.92295,-0.5236 -2.30327,-0.83719 -48.30336,-1.56976 -56.87613,-0.90578 -4.13685,0.32041 -6.43329,0.318 -10.11449,-0.0106 -2.61938,-0.23381 -8.49313,-0.47582 -13.05278,-0.53779 -7.78506,-0.1058 -8.44077,-0.0646 -10.75972,0.67664 l -2.46945,0.78931 -0.24059,2.27987 c -0.13232,1.25393 -0.40584,3.788 -0.6078,5.63126 -0.20197,1.84327 -0.37151,6.10252 -0.37677,9.46501 -0.005,3.36249 -0.24875,7.96624 -0.5411,10.23056 -0.5427,4.2034 -0.83232,29.19367 -0.60782,52.447495 0.0524,5.43278 -0.003,10.54036 -0.12268,11.35019 -0.20154,1.36096 -0.142,1.51065 0.78658,1.97763 0.80588,0.40527 1.61637,0.44025 4.09676,0.17678 2.70508,-0.28733 3.25707,-0.24785 4.40973,0.31542 l 1.31758,0.64387 0.27718,3.88056 c 0.15245,2.1343 0.5187,5.3093 0.81388,7.05555 0.29518,1.74625 0.76917,5.04193 1.05332,7.32374 0.28414,2.28181 0.83686,5.69493 1.22826,7.58472 0.39139,1.88979 0.86926,4.38849 1.06193,5.55265 0.64224,3.88064 2.15567,8.35899 4.4605,13.19897 2.24556,4.71553 4.62336,9.20242 4.87675,9.20242 0.071,0 -0.0819,-0.67469 -0.33976,-1.4993 z m 3.67766,-63.05903 c -0.81482,-0.81483 -0.78476,-0.48192 -0.87598,-9.70139 -0.0406,-4.09876 0.0725,-7.24036 0.26989,-7.49653 0.88435,-1.14797 3.42832,-0.0313 3.42832,1.50489 0,0.57781 0.11508,0.54791 0.97014,-0.25209 2.47088,-2.31179 5.4523,-2.73394 7.17088,-1.01536 1.64575,1.64575 1.26272,4.17797 -1.02632,6.78505 l -1.08746,1.23854 1.51358,1.48547 c 0.83247,0.817 2.05603,1.75624 2.71902,2.08719 1.48694,0.74225 1.78824,2.13559 0.69764,3.22619 -1.48083,1.48083 -2.49736,1.0317 -6.36607,-2.81274 -1.9591,-1.94681 -3.71425,-3.44557 -3.90032,-3.33057 -0.18607,0.115 -0.33832,1.93464 -0.33832,4.04364 0,3.01557 -0.11839,3.95293 -0.55436,4.3889 -0.75502,0.75502 -1.77316,0.69628 -2.62064,-0.15119 z m 6.72992,-12.32009 c 0.91129,-0.91129 1.33719,-1.79103 0.86708,-1.79103 -0.32685,0 -2.65811,2.19785 -2.65811,2.50599 0,0.61272 0.77121,0.30486 1.79103,-0.71496 z m 14.94663,12.68736 c -1.11814,-0.45284 -2.83325,-2.59596 -3.44038,-4.29893 -0.34597,-0.97045 -0.61862,-3.37097 -0.74017,-6.5167 -0.17779,-4.60134 -0.14089,-5.02695 0.48494,-5.59332 0.51053,-0.46202 1.09493,-0.57386 2.37253,-0.45405 0.93233,0.0874 2.53102,0.002 3.55263,-0.18911 1.60237,-0.30027 1.95365,-0.26105 2.55764,0.28556 0.38509,0.34849 0.70016,0.98129 0.70016,1.40622 0,1.34114 -1.22557,2.07141 -3.74559,2.23187 -1.83109,0.1166 -2.25458,0.25024 -2.0967,0.66167 0.10881,0.28355 0.19784,1.1408 0.19784,1.90498 v 1.38943 l 1.47719,-0.75361 c 0.81246,-0.41448 1.69692,-0.97333 1.96548,-1.24189 1.09415,-1.09415 2.90733,-0.0446 2.90733,1.68286 0,1.14865 -1.11092,2.14654 -3.61597,3.24807 -2.18623,0.96133 -2.21022,0.99035 -1.66328,2.01232 0.44538,0.83221 2.35338,0.92558 3.35974,0.16441 1.80631,-1.36622 4.17359,0.11446 3.28855,2.05691 -0.82606,1.813 -5.18229,2.96706 -7.56194,2.00331 z m -34.18791,-0.49108 c -0.84698,-0.61933 -0.79364,-1.66053 0.31893,-6.2262 0.49645,-2.03729 0.90284,-4.47218 0.90309,-5.41087 l 4.6e-4,-1.7067 -1.46338,0.24724 c -0.80485,0.13598 -1.9991,0.47108 -2.65389,0.74466 -1.34603,0.56241 -2.30698,0.24973 -2.95528,-0.96162 -0.49315,-0.92147 0.34215,-2.30719 1.71114,-2.83868 1.06548,-0.41365 4.36422,-1.00117 6.77252,-1.2062 0.87312,-0.0743 2.66607,-0.39639 3.98433,-0.71568 2.26556,-0.54872 2.43463,-0.54631 3.08681,0.0439 0.77073,0.6975 0.91428,2.26631 0.26663,2.91395 -0.23283,0.23284 -0.78057,0.42334 -1.21719,0.42334 -0.43662,0 -0.92081,0.22435 -1.07597,0.49856 -0.15516,0.27421 -0.75836,0.55202 -1.34045,0.61736 -1.04705,0.11753 -1.06081,0.14699 -1.29061,2.76463 -0.3152,3.59025 -1.9752,10.29962 -2.68395,10.84792 -0.73866,0.57145 -1.5497,0.55923 -2.36319,-0.0356 z m 47.69379,-1.28659 c -1.78639,-1.40518 -2.17592,-2.62101 -2.26066,-7.05627 -0.0426,-2.23132 -0.18358,-4.93488 -0.31321,-6.0079 -0.33892,-2.80526 -0.13477,-2.92085 6.5497801,-3.70865 1.68182,-0.19821 2.04601,-0.12836 2.73403,0.52435 1.53029,1.45176 0.66277,3.34748 -1.55975,3.40837 -3.7938801,0.10394 -3.6437201,0.0546 -3.6437201,1.19772 0,0.97805 0.0954,1.05833 1.25791,1.05833 0.6918501,0 1.5756201,-0.17003 1.9639301,-0.37785 1.05492,-0.56457 2.4226,0.43868 2.4226,1.77709 0,1.2176 -0.98653,2.03332 -2.81007,2.32353 -2.6930501,0.42859 -2.8343701,0.49692 -2.8343701,1.37038 0,2.00527 0.95846,2.47011 2.9507401,1.43107 1.35302,-0.70566 2.46002,-0.66438 3.16819,0.11814 0.79169,0.87481 0.73399,1.61396 -0.20991,2.68901 -0.74774,0.85165 -1.23621,1.01661 -5.3799701,1.81685 -0.77255,0.14919 -1.32235,-0.003 -2.03552,-0.56417 z m 13.91305006,-0.0521 c -1.95363996,-0.96703 -3.34259996,-3.01104 -3.38166996,-4.9765 -0.0241,-1.21154 0.11874,-1.53809 0.83052,-1.89896 1.13743996,-0.57666 2.04933996,-0.0767 2.69987996,1.48028 0.64358004,1.5403 2.16641004,2.62404 2.65703004,1.89091 0.63549,-0.94959 0.0221,-2.85581 -1.45503,-4.52191 -0.79181,-0.89309 -1.76848004,-2.32235 -2.17038004,-3.17612 -0.62865,-1.33545 -0.67468,-1.73941 -0.32951,-2.89149 0.73872,-2.46565 3.36539004,-3.67358 5.78755004,-2.66154 3.03993,1.27016 3.64346,5.71896 0.9026,6.65335 -0.38638,0.13172 -0.33236,0.44573 0.26556,1.5434 1.54908,2.84387 1.30916,6.24101 -0.58387,8.26751 -1.21332,1.29887 -2.98697,1.39772 -5.22268004,0.29107 z M 4.0480641,108.52579 c 0.11991,-0.19403 -0.0295,-0.35278 -0.33196,-0.35278 -0.30249,0 -0.54999,0.15875 -0.54999,0.35278 0,0.19402 0.14938,0.35277 0.33196,0.35277 0.18258,0 0.43007,-0.15875 0.54999,-0.35277 z M -61.818946,95.813835 c -2.00101,-0.34427 -4.01123,-1.93409 -5.02965,-3.97778 -1.60195,-3.21471 -1.01602,-8.16573 1.33047,-11.24218 2.25821,-2.96072 5.7338,-4.90494 7.8285,-4.3792 2.44678,0.6141 3.4941,3.52322 1.83092,5.0857 -1.269,1.19216 -2.9817,0.83775 -3.50255,-0.72478 -0.27536,-0.82609 -2.76592,1.48573 -3.65298,3.39082 -1.61127,3.46045 -0.92966,7.07571 1.50883,8.00282 1.26181,0.47974 2.68735,-0.26944 6.00082,-3.15369 2.95015,-2.568 3.86805,-2.93926 4.84689,-1.96042 0.9665,0.9665 0.64617,2.03006 -1.12133,3.72307 -4.62111,4.42637 -7.13226,5.7359 -10.03992,5.23564 z m 15.42822,-0.71477 c -1.3066,-0.38988 -2.28334,-1.617 -2.29365,-2.88161 -0.004,-0.52936 0.32488,-2.98999 0.73154,-5.46806 0.47403,-2.88866 0.68301,-5.4225 0.58231,-7.06061 -0.11289,-1.83656 -0.0176,-2.75416 0.33896,-3.26319 0.69544,-0.99288 2.02455,-0.89142 2.89985,0.22135 0.9684,1.23111 0.97391,4.46105 0.0176,10.32205 -0.39237,2.40482 -0.64678,4.43903 -0.56534,4.52047 0.0814,0.0814 1.68477,-0.11371 3.56297,-0.43365 3.22302,-0.54903 3.45302,-0.54722 4.09319,0.0321 0.37306,0.33761 0.67828,0.9615 0.67828,1.38643 0,1.37872 -1.19411,2.02046 -4.67529,2.5126 -3.74892,0.52999 -3.95547,0.5343 -5.37043,0.11209 z m 21.32835,-0.51558 c -0.31144,-0.37527 -0.37785,-1.18342 -0.22074,-2.68652 0.23226,-2.22215 1.98349,-8.55965 3.06695,-11.09895 0.68112,-1.59632 2.17241,-2.96392 3.23199,-2.96392 1.13451,0 2.65321,1.86008 3.28051,4.0179 l 0.58303,2.00554 0.97566,-1.34685 c 1.11722,-1.54229 4.1662601,-4.32146 4.7489501,-4.32863 0.21522,-0.003 0.7435,-0.0992 1.17396,-0.21463 0.57494,-0.15413 1.07136,0.0789 1.87059,0.87814 l 1.08796,1.08795 -0.24149,6.27043 c -0.13281,3.44873 -0.39871,6.46886 -0.59087,6.7114 -0.53398,0.67393 -2.19415,0.52514 -2.90503,-0.26037 -0.566,-0.62542 -0.61417,-1.20758 -0.44504,-5.37777 l 0.18967,-4.67642 -1.1830201,1.40901 c -1.46409,1.74379 -2.82845,4.48126 -3.16378,6.34791 -0.30766,1.71253 -1.06023,2.64583 -2.13349,2.64583 -1.18848,0 -2.14611,-1.48802 -2.5554,-3.97072 -0.19974,-1.21159 -0.48104,-2.91726 -0.62511,-3.79039 l -0.26194,-1.5875 -0.99607,3.16187 c -0.54784,1.73902 -1.09468,3.96152 -1.2152,4.93888 -0.29217,2.36937 -0.94869,3.36453 -2.21965,3.36453 -0.55385,0 -1.20745,-0.24153 -1.45244,-0.53672 z m 25.32014006,-0.7499 c -1.44342996,-1.02701 -1.93305996,-2.46156 -1.51827996,-4.44835 0.52178996,-2.49938 0.59252996,-4.10239 0.2124,-4.81268 -0.38738,-0.72383 -0.36601,-0.95331 0.55357996,-5.94449 0.0804,-0.43645 0.73852,-1.19511 1.46246,-1.68592 0.72394004,-0.49081 1.85566004,-1.28466 2.51495004,-1.76411 2.63989,-1.91979 5.93083,-0.51984 6.27063,2.6675 0.13006,1.2199 -0.0336,1.96901 -0.72423,3.31491 l -0.89225,1.73885 1.19878,1.32691 c 2.1158499,2.34199 2.0845999,5.36948 -0.0801,7.76559 -2.62791,2.90878 -6.41019,3.68298 -8.99791004,1.84179 z m 5.75771004,-3.97791 c 1.22893,-1.22893 1.30871,-2.21056 0.25912,-3.18839 -0.82539,-0.76898 -1.08652,-0.82617 -2.2938,-0.50242 -0.62969,0.16886 -0.81628,0.55504 -1.00745,2.08516 -0.12905,1.03285 -0.1291,2.04867 -1.1e-4,2.25738 0.44616,0.72189 2.0019,0.38861 3.04224,-0.65173 z m -1.11599,-9.26886 c 1.30086,-1.76888 1.45306,-2.61968 0.36442,-2.03706 -0.7762,0.41541 -2.09429,2.34979 -2.09647,3.0767 -0.002,0.8289 0.64272,0.44163 1.73205,-1.03964 z m -37.6382101,11.162 c -0.73136,-0.51227 -0.78167,-0.80268 -0.74869,-4.32153 0.0194,-2.0748 0.1385,-5.33431 0.26458,-7.24335 0.20304,-3.07447 0.32437,-3.54801 1.06206,-4.14514 1.02406,-0.82894 1.18638,-0.8326 2.15462,-0.0486 0.76525,0.61966 0.77012,0.6936 0.51519,7.81417 -0.22604,6.31349 -0.3368,7.26802 -0.90986,7.84108 -0.79613,0.79613 -1.31599,0.8191 -2.3379,0.10333 z m 31.4951201,-25.62516 c -0.92061,-0.52204 -1.22271,-0.99579 -1.22932,-1.92776 -0.007,-1.01734 -3.23279,-7.39484 -4.50335,-8.90386 l -1.00952,-1.199 -0.44254,4.02122 c -0.59343,5.39226 -0.64251,5.57361 -1.6300001,6.02354 -0.68743,0.31322 -1.04328,0.26926 -1.7921,-0.22138 -0.88963,-0.58291 -0.9262,-0.72457 -0.76434,-2.96046 0.16482,-2.27668 0.84889,-8.58441 1.18122,-10.89177 0.19692,-1.36724 0.96934,-2.2162 2.0163701,-2.2162 0.87818,0 4.81686,3.85942 6.41318,6.28415 1.26772,1.92559 1.58132,1.4957 1.84128,-2.52402 0.19481996,-3.01243 0.70695996,-4.11291 1.91407996,-4.11291 0.35798004,0 0.96837004,0.3175 1.35643004,0.70556 0.91398,0.91398 0.92538,3.06584 0.0395,7.45769 -0.45574,2.2594 -0.61837,4.22161 -0.51507,6.21438 0.14175,2.73434 0.0972,2.96615 -0.72903004,3.79236 -0.98823,0.98824 -1.15118,1.02304 -2.14679996,0.45846 z m 15.1264399,-0.8293 c -0.48249,-0.73637 -0.52065,-1.13338 -0.21191,-2.20486 0.2071,-0.71874 0.63825,-2.63286 0.95813,-4.25362 0.31988,-1.62076 0.66669,-3.16857 0.77069,-3.43958 0.12928,-0.33692 -0.0769,-0.49276 -0.65211,-0.49276 -1.30813,0 -2.40929,-0.95682 -2.40929,-2.09347 0,-1.47539 0.68945,-1.81321 3.93915,-1.93008 1.71299,-0.0616 3.51012,-0.3483 4.30601,-0.68693 1.60609,-0.68333 3.43443,-0.75492 4.0315,-0.15785 1.00829,1.00828 0.0443,3.44757 -1.36833,3.46253 -0.71256,0.007 -3.10989,0.87304 -3.48561,1.25839 -0.41147,0.42201 -1.65013,5.42558 -1.95778,7.90852 -0.31516,2.54341 -0.95412,3.52778 -2.28994,3.52778 -0.72725,0 -1.21985,-0.27132 -1.63051,-0.89807 z m -34.56899,-0.34784 c -0.33826,-0.51625 -0.65927,-1.9283 -0.76073,-3.3463 -0.17428,-2.43585 -0.18204,-2.45163 -1.09862,-2.23449 -0.5077,0.12028 -1.19452,0.45431 -1.52625,0.74228 -0.37762,0.32783 -0.93209,0.44104 -1.4829,0.30279 -0.76918,-0.19305 -1.00005,-0.01 -1.83673,1.4575 -1.32665,2.32666 -2.23798,3.2658 -3.16907,3.2658 -1.83587,0 -2.48913,-2.14421 -1.16528,-3.82476 0.40629,-0.51576 1.67097,-2.52524 2.81041,-4.46552 2.38847,-4.06718 5.38002,-8.10902 6.73893,-9.10486 1.963,-1.43853 3.57634,-0.0807 4.21551,3.54792 0.32545,1.84763 0.46329,2.10023 1.06074,1.94399 0.89092,-0.23298 2.0746,0.84537 2.0746,1.89 0,0.87849 -1.11313,2.10999 -2.22661,2.4634 -0.64764,0.20555 -0.67587,0.44073 -0.44875,3.73829 0.27009,3.9215 0.06,4.51709 -1.59304,4.51709 -0.68822,0 -1.19226,-0.28273 -1.59221,-0.89313 z m -0.90621,-9.86135 c 0.0626,-0.0626 0.0629,-0.59523 7.2e-4,-1.18365 l -0.11307,-1.06985 -1.0316,1.44238 -1.03159,1.44239 1.03087,-0.25874 c 0.56698,-0.1423 1.08208,-0.30994 1.14467,-0.37253 z m -47.1645,8.08406 c -0.51794,-0.65846 -0.63333,-1.11702 -0.42167,-1.67569 0.16028,-0.42304 0.4082,-3.65797 0.55093,-7.18874 0.22606,-5.59173 0.34354,-6.49561 0.91102,-7.00917 0.80586,-0.7293 2.26556,-0.43989 2.79785,0.55472 0.25237,0.47156 0.29488,3.01244 0.13042,7.79551 -0.22352,6.50092 -0.30401,7.15186 -0.95991,7.76292 -0.99395,0.92601 -2.16517,0.83275 -3.00864,-0.23955 z m 25.00354,0.51117 c -3.22178,-1.28092 -5.409,-6.44928 -4.23488,-10.00692 0.55318,-1.67614 2.54674,-3.90594 4.28495,-4.79271 2.76209,-1.40911 6.6527,-0.48277 6.6527,1.58398 0,1.38284 -1.11539,2.05693 -2.94867,1.78201 -1.30636,-0.1959 -1.78946,-0.10524 -2.63058,0.4937 -2.00578,1.42824 -2.33801,4.1954 -0.76836,6.39977 0.41317,0.58024 1.03649,1.05498 1.38517,1.05498 0.93554,0 2.32187,-1.2199 2.99259,-2.63332 0.9029,-1.90274 3.05336,-2.1707 3.70214,-0.46131 0.41462,1.09244 -0.38645,2.94061 -1.98617,4.58234 -2.13448,2.19052 -4.28667,2.85714 -6.44889,1.99748 z M 7.6640341,53.464165 c -0.99999,-0.58243 -0.71682,-2.06295 0.85639,-4.47761 1.8666299,-2.86501 3.2052399,-3.51513 4.5234699,-2.19691 0.94791,0.94791 0.88833,1.88806 -0.19471,3.07244 -0.49515,0.54148 -1.36927,1.6592 -1.94249,2.48381 -1.0743799,1.54557 -1.9754999,1.85633 -3.2426599,1.11827 z M 273.15239,194.94517 c -0.72859,-0.28534 -1.52237,-1.33671 -1.52237,-2.0164 0,-0.68648 3.07908,-5.36386 5.16772,-7.85022 1.22244,-1.45521 2.32153,-3.09553 2.44244,-3.64516 0.52125,-2.36951 -1.49998,-9.61379 -3.10501,-11.12868 -1.63653,-1.54462 -2.79627,-1.75115 -9.99495,-1.77988 -6.78242,-0.0271 -15.97106,-1.04545 -20.96853,-2.32396 -1.06716,-0.27301 -3.84528,-0.73628 -6.17361,-1.02949 -2.32834,-0.2932 -5.34459,-0.78393 -6.70278,-1.09049 -2.06384,-0.46584 -6.03301,-0.58017 -24.16528,-0.69602 -31.93988,-0.20408 -30.64579,0.26505 -33.09232,-11.9966 -0.38714,-1.94028 -0.81052,-4.95529 -0.94084,-6.70003 -0.13033,-1.74474 -0.39393,-3.96724 -0.58578,-4.93889 -1.11476,-5.64593 -1.83972,-24.11253 -1.10511,-28.15008 0.23963,-1.317 0.59616,-2.69442 0.79231,-3.06092 0.19615,-0.3665 1.26704,-1.007 2.37976,-1.42332 1.85201,-0.69292 3.17251,-0.79209 15.61186,-1.17241 23.60913,-0.72183 64.14302,-0.38298 71.09151,0.59431 4.0435,0.5687 14.34435,1.50046 22.225,2.01034 6.55344,0.42401 8.3858,0.96161 10.94937,3.21246 1.6182,1.42079 2.1592,2.50269 2.83026,5.65996 0.64336,3.02687 0.43175,12.38606 -0.40301,17.8252 -0.27513,1.79267 -0.50153,5.28517 -0.50312,7.76111 -0.002,2.47594 -0.16853,5.93046 -0.37098,7.67671 -0.20244,1.74625 -0.41053,5.66501 -0.46243,8.70836 -0.0916,5.37315 -0.1221,5.57341 -1.0529,6.91655 -1.12701,1.62628 -2.19838,2.19037 -4.16014,2.19037 h -1.43004 l 0.25068,4.34622 c 0.32376,5.61317 -0.26425,8.26809 -2.73668,12.35635 -2.15346,3.56084 -2.58941,4.03315 -5.70238,6.17788 -4.32797,2.98185 -7.10374,4.13808 -8.56265,3.56673 z m 10.58557,-11.23913 c 2.31876,-3.48167 2.70764,-5.22098 2.71393,-12.13845 0.006,-6.57569 0.23577,-7.41608 2.07617,-7.59321 0.65084,-0.0626 1.35366,0.0564 1.56182,0.26458 0.45157,0.45157 1.88254,0.50318 2.14569,0.0774 0.10235,-0.1656 8.4e-4,-0.79186 -0.22558,-1.39169 -0.31639,-0.83821 -0.31326,-1.27879 0.0135,-1.90378 0.50413,-0.96422 1.04422,-7.5204 1.46195,-17.74651 0.16645,-4.07458 0.46436,-8.28146 0.66203,-9.34861 0.19767,-1.06715 0.45844,-4.55965 0.5795,-7.76111 0.27959,-7.39415 -0.20077,-10.21956 -1.99111,-11.71141 -1.5754,-1.31274 -2.85562,-1.63792 -8.05306,-2.04547 -13.93841,-1.09296 -18.25323,-1.47889 -22.225,-1.98785 -10.71759,-1.37341 -81.32201,-1.23581 -83.00599,0.16177 -0.28361,0.23537 -1.04788,0.38501 -1.69837,0.33254 -1.13543,-0.0916 -1.1971,-0.032 -1.54265,1.49208 -0.67752,2.98818 0.17362,22.66599 1.17495,27.16389 0.19437,0.87313 0.46071,3.09563 0.59185,4.93889 0.31609,4.4429 2.0311,12.25445 2.87314,13.08662 0.35711,0.35293 1.90318,0.90058 3.46679,1.22802 2.33874,0.48976 5.78352,0.62068 20.10833,0.7642 9.50736,0.0952 19.11174,0.14401 21.34306,0.10835 2.88945,-0.0462 5.07216,0.14004 7.58472,0.64709 1.94028,0.39157 5.0359,0.88544 6.87917,1.09751 1.84326,0.21207 4.22451,0.60991 5.29166,0.8841 1.06716,0.27419 4.6048,0.90216 7.86143,1.39549 4.79045,0.72567 7.22369,0.89696 12.74224,0.89696 8.03172,0 10.36258,0.5026 12.63882,2.72529 1.74498,1.70392 3.25855,5.41874 4.03013,9.89132 0.58744,3.40519 0.58716,3.66286 -0.006,5.54432 -0.3421,1.08524 -1.11987,2.56268 -1.72839,3.2832 -2.1033,2.49041 -2.19435,2.70643 -0.61331,1.45505 0.87312,-0.69107 2.35294,-2.40583 3.28849,-3.81058 z M 271.2845,159.30401 c -2.08703,-0.87846 -2.7418,-2.48472 -1.47878,-3.62773 0.7166,-0.64852 2.01659,-0.77615 2.35347,-0.23107 0.35073,0.5675 1.78262,0.40616 2.39434,-0.26979 0.30989,-0.34242 0.71837,-1.31216 0.90774,-2.15499 l 0.34431,-1.53241 -1.06706,0.21341 c -1.50155,0.30031 -3.20337,-0.6104 -4.07,-2.17802 -0.39836,-0.72058 -1.00327,-2.62129 -1.34424,-4.22381 -0.5951,-2.79688 -0.59447,-2.94182 0.0156,-3.61597 0.78578,-0.86828 1.99775,-0.90453 2.74212,-0.082 0.40966,0.45267 1.66098,4.95936 1.66437,5.99429 1.6e-4,0.0485 0.21381,0.0882 0.47478,0.0882 0.84007,0 1.64218,-1.25471 1.64218,-2.56881 0,-2.57974 1.51185,-4.1492 3.18819,-3.30968 1.02811,0.51488 1.42163,1.92774 1.01944,3.66016 -0.17063,0.73501 -0.31403,2.27588 -0.31866,3.42416 -0.0189,4.6912 -1.22088,8.33362 -3.24533,9.83457 -1.09158,0.80931 -3.92863,1.12412 -5.2225,0.57951 z m -24.83763,-1.49253 c -0.42678,-0.31207 -0.68431,-1.11919 -0.81607,-2.55764 -0.10588,-1.15592 -0.25087,-2.16621 -0.32221,-2.24508 -0.0713,-0.0789 -0.75779,0.13984 -1.52545,0.486 -0.76765,0.34616 -1.63386,0.53801 -1.9249,0.42633 -0.36269,-0.13918 -0.86709,0.34611 -1.60321,1.54247 -0.89365,1.45237 -1.24811,1.74554 -2.11044,1.74554 -1.82124,0 -2.79073,-1.8143 -1.68175,-3.14722 0.25486,-0.30632 1.37668,-2.11025 2.49294,-4.00873 2.38925,-4.06354 5.72482,-7.7967 7.48553,-8.37779 1.01857,-0.33616 1.37664,-0.30654 2.11092,0.17457 1.48157,0.97076 1.64927,1.99548 1.20677,7.37367 -0.22133,2.68999 -0.29651,5.51772 -0.16708,6.28385 0.18064,1.0692 0.0916,1.55182 -0.38323,2.07647 -0.71405,0.78901 -1.86436,0.88379 -2.76182,0.22756 z m -0.49423,-10.02332 0.14453,-1.23801 -0.98242,1.18434 c -1.20905,1.45755 -1.23044,1.65945 -0.15402,1.45367 0.66508,-0.12713 0.87847,-0.42833 0.99191,-1.4 z m 37.15552,9.08238 c -1.44059,-1.59184 0.68645,-3.85232 2.5042,-2.66129 0.91491,0.59947 1.13957,2.20072 0.411,2.9293 -0.6481,0.64809 -2.21664,0.50389 -2.9152,-0.26801 z m -57.66477,-0.28435 c -2.54909,-1.40669 -3.09222,-4.35398 -1.73159,-9.39655 1.02538,-3.80011 2.36895,-5.26451 5.5662,-6.0668 2.60939,-0.65477 5.21187,-0.51834 6.52502,0.34207 1.98417,1.30008 0.37445,4.42632 -1.77488,3.44701 -1.8821,-0.85754 -5.23836,-0.16646 -5.86439,1.20753 -0.21603,0.47414 -0.28861,0.96625 -0.16129,1.09357 0.12732,0.12733 1.30798,-0.19084 2.62368,-0.70704 2.70955,-1.06306 3.69086,-1.16141 4.29729,-0.43071 0.81088,0.97705 0.294,2.41721 -1.1592,3.22981 -1.34645,0.75291 -1.3487,0.75788 -0.44634,0.98436 2.22413,0.55822 1.26704,3.84407 -1.64189,5.63688 -2.16162,1.33223 -4.55503,1.58563 -6.23261,0.65987 z m 4.79813,-4.53482 c 0.66249,-0.70244 1.13666,-1.34503 1.05373,-1.42797 -0.0829,-0.0829 -1.12196,0.1346 -2.30892,0.48343 -1.46601,0.43082 -2.15827,0.81335 -2.1586,1.19278 -0.001,1.53094 1.86372,1.39532 3.41379,-0.24824 z m 23.45833,4.34125 c -0.8391,-0.89318 -1.02145,-2.66856 -0.34372,-3.34629 0.56372,-0.56373 2.03131,-0.53804 2.72389,0.0477 0.41404,0.35015 0.94165,0.39008 2.05625,0.15563 1.74084,-0.36618 1.86015,-0.70305 0.5597,-1.5803 -0.51679,-0.3486 -1.54866,-1.21046 -2.29306,-1.91524 -1.13471,-1.07432 -1.35344,-1.5118 -1.35344,-2.70696 0,-1.69004 1.27343,-3.42743 3.059,-4.17349 1.54482,-0.64546 4.48951,-0.60925 5.80575,0.0714 1.32494,0.68515 2.25534,2.67779 1.71859,3.68071 -0.63486,1.18625 -1.68915,1.54127 -2.6695,0.89891 -0.47206,-0.3093 -0.85829,-0.71746 -0.85829,-0.90701 0,-0.43724 -2.12282,-0.4415 -2.812,-0.006 -0.28543,0.18051 -0.44418,0.39047 -0.35278,0.4666 0.0914,0.0761 0.92003,0.64786 1.84141,1.27053 3.0053,2.03101 3.64454,4.84548 1.5714,6.91862 -1.3474,1.3474 -3.14574,1.93662 -5.91917,1.9394 -1.60146,0.002 -2.10952,-0.14976 -2.73403,-0.81452 z m -66.17393,-1.83903 c -2.29084,-1.19467 -2.63656,-3.26774 -0.8788,-5.26971 1.82156,-2.07465 4.22142,-1.37994 3.75011,1.08559 -0.20405,1.06741 0.63309,1.12159 2.5128,0.16264 2.37633,-1.21231 2.48138,-1.61362 0.8653,-3.30568 -2.0541,-2.15067 -2.57865,-3.06842 -2.57865,-4.51161 0,-2.3579 2.52849,-3.85016 6.52374,-3.85016 3.50597,0 6.00885,2.64567 4.12001,4.35504 -0.79637,0.72071 -1.48329,0.73978 -2.37424,0.0659 -0.74306,-0.56202 -3.52355,-0.73164 -3.83128,-0.23372 -0.10425,0.16866 0.60076,1.20978 1.56668,2.31358 1.32207,1.51081 1.75588,2.28527 1.75489,3.13292 -0.002,1.29015 -0.99535,3.08593 -2.39064,4.31966 -2.22963,1.97147 -6.87672,2.86365 -9.03992,1.73555 z m 19.45206,-0.8147 c -1.44599,-0.95348 -1.8985,-1.70258 -2.94002,-4.86702 l -0.94434,-2.86918 0.66611,-1.34139 c 0.85024,-1.71215 2.10567,-2.62162 3.96272,-2.8707 2.85031,-0.38231 6.14364,1.69115 7.06304,4.44684 0.97005,2.9075 -0.15239,6.39766 -2.42214,7.53153 -1.61605,0.80731 -4.1368,0.79323 -5.38537,-0.0301 z m 3.9037,-3.6559 c 0.51806,-0.51805 0.55184,-2.20516 0.0625,-3.11955 -0.54955,-1.02684 -1.693,-1.53452 -2.30753,-1.02451 -0.5891,0.48891 -0.67634,2.88553 -0.14142,3.88503 0.40821,0.76275 1.73838,0.90713 2.38647,0.25903 z m 73.57245,1.10576 c -0.40234,-0.14883 -0.81932,-0.49941 -0.92663,-0.77906 -0.27197,-0.70874 0.39506,-8.72343 0.80714,-9.69814 0.54138,-1.28057 1.89248,-1.71913 3.02007,-0.9803 0.8219,0.53853 0.909,0.77205 0.70943,1.90212 -0.12512,0.70853 -0.32392,2.71698 -0.44178,4.46323 -0.30034,4.44983 -1.16178,5.83439 -3.16823,5.09215 z m -16.14414,-17.9956 c -1.0979,-1.30479 -1.13942,-1.86348 -0.20775,-2.79516 0.90143,-0.90143 1.78222,-0.89378 2.95104,0.0256 1.01179,0.79587 1.28561,2.65219 0.50619,3.43161 -0.7906,0.7906 -2.283,0.48653 -3.24948,-0.66206 z m -15.18234,-1.48275 c -0.4451,-0.67931 -0.47386,-1.48776 -0.1851,-5.20348 0.18803,-2.41956 0.40617,-4.99277 0.48475,-5.71825 l 0.14288,-1.31904 -1.42625,0.0559 c -2.21594,0.0868 -3.16913,-1.75009 -1.68058,-3.23864 0.64971,-0.64971 1.17593,-0.70556 6.64811,-0.70556 5.30901,0 6.00479,0.0688 6.52639,0.64514 0.72868,0.80519 0.73777,1.44755 0.0347,2.45137 -0.48414,0.6912 -0.86117,0.78405 -3.18373,0.78405 -3.26292,0 -3.18263,-0.15274 -3.59094,6.83108 -0.19342,3.30816 -0.46172,5.29692 -0.7637,5.66077 -0.7022,0.84611 -2.38174,0.71018 -3.0065,-0.24333 z m -67.08163,0.1815 c -0.9556,-0.63808 -1.14108,-1.67281 -0.64362,-3.59057 0.27181,-1.04786 0.53578,-3.40522 0.5866,-5.23857 0.0864,-3.11666 0.0408,-3.36779 -0.70134,-3.86293 -1.0318,-0.68838 -1.05111,-2.43644 -0.0457,-4.14041 1.42403,-2.41354 3.81207,-3.00994 7.86181,-1.96345 3.56227,0.92053 4.86847,1.68681 5.27164,3.0926 0.44318,1.54527 -0.60034,3.11877 -3.10663,4.68442 -4.63581,2.89595 -5.30363,3.37832 -5.3725,3.88056 -0.61368,4.47541 -0.96783,5.82813 -1.72372,6.58402 -0.84884,0.84884 -1.45051,1.00569 -2.12649,0.55433 z m 5.89206,-13.40016 c 0.95003,-0.53358 1.72749,-1.06936 1.72769,-1.19063 2e-4,-0.12127 -0.45737,-0.31203 -1.01682,-0.42392 -0.55945,-0.11189 -1.43257,-0.30769 -1.94028,-0.43512 -0.89559,-0.22478 -0.9231,-0.18324 -0.9231,1.39406 0,0.89417 0.0957,1.62575 0.21259,1.62575 0.11693,0 0.98989,-0.43656 1.93992,-0.97014 z m 8.43083,12.96459 c -0.88014,-0.88014 -0.87785,-1.37685 0.0336,-7.2848 0.71186,-4.61421 0.71607,-4.83403 0.11405,-5.95191 -0.58818,-1.09219 -0.58997,-1.21439 -0.0303,-2.06858 0.76659,-1.16996 2.47844,-2.05049 3.49555,-1.79801 0.43824,0.10878 2.54268,-0.0482 4.67654,-0.34894 3.70542,-0.52216 3.91939,-0.51724 4.7625,0.10967 1.16351,0.86516 1.26388,1.81769 0.31819,3.01994 -0.68993,0.8771 -0.92781,0.95854 -2.22968,0.76331 -1.2474,-0.18706 -6.09841,0.24979 -6.36768,0.57344 -0.0501,0.0602 -0.2003,0.96443 -0.33377,2.00936 l -0.24267,1.89988 1.16502,-0.25149 c 3.00542,-0.64877 3.81951,-0.65116 4.52432,-0.0133 1.74209,1.57656 0.41289,3.05175 -3.326,3.6913 -2.4121,0.41261 -2.71217,0.54686 -2.55611,1.14363 0.27781,1.06233 -0.76746,4.07091 -1.62239,4.66973 -1.0263,0.71885 -1.53392,0.68406 -2.38119,-0.16321 z m 33.45326,-0.36561 c -0.91902,-0.53626 -1.04813,-2.01095 -0.47761,-5.45523 0.28926,-1.74625 0.52869,-4.31786 0.53208,-5.71468 0.006,-2.47178 0.0383,-2.56421 1.20793,-3.45633 1.11595,-0.85117 1.49084,-0.92174 5.24969,-0.98809 3.5452,-0.0626 4.14076,0.012 4.79545,0.60058 0.82444,0.74118 1.00581,2.47056 0.30656,2.92312 -0.24253,0.15697 -2.02847,0.2854 -3.96875,0.2854 h -3.52778 l -0.1058,2.02847 -0.1058,2.02848 h 2.78515 c 2.25019,0 2.8973,0.12391 3.369,0.64514 0.72869,0.80519 0.73777,1.44754 0.0347,2.45136 -0.49789,0.71083 -0.8438,0.78405 -3.70417,0.78405 -1.73524,0 -3.1711,0.11906 -3.19078,0.26459 -0.0197,0.14552 -0.0924,0.89685 -0.16161,1.66962 -0.17667,1.97281 -1.51321,2.82339 -3.03823,1.93352 z m -16.67112,-0.89432 c -0.70185,-0.70184 -0.69632,-1.83631 0.0327,-6.71314 0.58566,-3.91786 0.58523,-3.93013 -0.18194,-5.17143 -1.2722,-2.05848 -0.17173,-3.61298 3.04883,-4.3067 0.63849,-0.13754 3.22774,-0.13575 5.75389,0.004 4.8951,0.27072 5.60884,0.53808 5.60884,2.10099 0,1.06177 -1.65163,2.40681 -2.6326,2.14392 -0.39533,-0.10594 -2.18722,-0.29782 -3.98198,-0.42639 l -3.2632,-0.23376 v 2.16874 2.16874 l 1.14653,-0.008 c 0.63059,-0.005 1.78153,-0.17442 2.55764,-0.37732 0.77611,-0.2029 1.77386,-0.45681 2.21722,-0.56424 0.99884,-0.24204 2.1925,0.75532 2.1925,1.83192 0,1.60449 -2.44846,2.68319 -6.28583,2.76932 -1.29647,0.0291 -2.47385,0.21165 -2.6164,0.40568 -0.14255,0.19403 -0.26162,0.99214 -0.26459,1.77359 -0.01,2.51744 -1.88109,3.88505 -3.33159,2.43454 z m 52.32969,-4.41714 c -0.51181,-0.51181 -0.66595,-0.97157 -0.50266,-1.4993 0.61464,-1.9864 1.21726,-5.13343 1.22844,-6.41528 0.0161,-1.84915 0.81916,-2.98891 2.10587,-2.98891 2.00775,0 2.22053,1.19733 1.26796,7.13519 -0.40124,2.50119 -0.70193,3.41716 -1.27668,3.88912 -0.99734,0.81897 -1.92274,0.77937 -2.82293,-0.12082 z M 122.5814,26.184655 c -0.58208,-0.25797 -1.45521,-0.85661 -1.94028,-1.3303 -2.61574,-2.55439 -13.14978,-14.1429 -14.81667,-16.2998399 -1.06715,-1.38088 -4.7911,-5.3958 -8.275436,-8.92203999 -5.19473,-5.25720001 -6.4448,-6.35268001 -6.94417,-6.08542001 -1.01699,0.54427 -1.72069,0.37323 -2.76631,-0.67239 -0.76411,-0.7641 -1.05775,-1.47404 -1.25167,-3.0261301 -0.32778,-2.62349 0.10643,-3.58368 1.8366,-4.06141 2.30198,-0.6356 3.72233,0.38353 11.775136,8.4489501 3.99676,4.00301 8.23072,8.53548 9.40881,10.07214 1.17809,1.53666 3.86481,4.62793 5.97049,6.8694799 2.10567,2.24155 5.00206,5.37687 6.4364,6.96736 2.88319,3.19707 3.38033,3.38593 5.36415,2.03789 1.06264,-0.72209 1.35469,-1.22593 1.89148,-3.2632 2.55122,-9.6825599 6.77216,-17.17401989 13.56872,-24.0821899 2.0524,-2.0861 4.07682,-4.2146601 4.4987,-4.7301301 1.31738,-1.60963 3.86717,-1.18636 4.68041,0.77696 0.63706,1.5380101 -0.13038,2.7500401 -4.72236,7.4580401 -2.17633,2.23132 -4.67984,5.08882 -5.56335,6.35 -2.80997,4.01113 -5.22047,9.3924199 -7.15836,15.9806099 -1.10587,3.75961 -2.53313,5.53151 -5.64229,7.00476 -2.33612,1.10695 -4.59004,1.28686 -6.35,0.50686 z m -1.76389,-36.77862 c -4.12733,-1.02894 -6.92349,-2.17662 -9.74313,-3.99904 -1.20137,-0.77649 -2.40571,-1.41179 -2.67631,-1.41179 -1.02736,0 -2.51121,-1.07732 -2.85934,-2.07596 -0.19922,-0.57148 -0.27468,-1.1266 -0.16769,-1.23359 0.10699,-0.10699 -0.30285,-0.76101 -0.91075,-1.45338 -1.84598,-2.10245 -1.62946,-2.29263 2.61022,-2.29263 4.41348,0 6.01643,0.50432 6.37349,2.00523 0.45587,1.91624 1.85305,2.88684 6.22458,4.32413 2.09701,0.68946 2.65228,0.73956 4.68662,0.42284 2.70493,-0.42112 7.92759,-3.24437 7.92759,-4.28548 0,-0.33422 0.32902,-1.02596 0.73116,-1.5372 0.70216,-0.89265 0.87006,-0.92952 4.23333,-0.92952 4.01244,0 4.28789,0.25991 2.2813,2.15257 -0.67148,0.63336 -1.32264,1.61492 -1.44703,2.18125 -0.12438,0.56633 -0.80807,1.60884 -1.51931,2.31669 -1.71525,1.70708 -6.63836,4.527 -8.95305,5.12824 -2.19637,0.5705 -5.79859,0.93522 -6.79168,0.68764 z m -52.729736,-1.90942 c -1.66337,-0.68933 -3.05028,-2.02865 -3.68099,-3.55468 -0.34876,-0.84383 -0.8615,-2.06666 -1.13944,-2.71742 -0.27793,-0.65075 -0.60098,-1.88106 -0.71789,-2.73402 l -0.21257,-1.55085 h 2.81288 2.81287 l 0.65892,2.02848 c 0.36241,1.11566 0.78132,2.17553 0.93091,2.35527 0.38936,0.46784 1.59095,-0.7233 1.86832,-1.85207 0.49013,-1.99462 1.12538,-2.53168 2.99458,-2.53168 1.39376,0 1.84395,0.15448 2.28492,0.78405 0.68308,0.97524 0.68503,1.79501 0.009,3.73622 -0.73163,2.10055 -1.7641,3.39468 -3.85172,4.82787 -1.99491,1.36954 -3.47608,1.74493 -4.7697,1.20883 z m 83.892746,-5.95095 c -1.82773,-0.35598 -2.99704,-1.22364 -3.81819,-2.83323 -0.39055,-0.76555 -0.71009,-1.4776 -0.71009,-1.58234 0,-0.10475 3.4925,-0.19045 7.76111,-0.19045 4.26861,0 7.76111,0.13735 7.76111,0.30521 0,0.81036 -1.67413,2.24702 -3.93852,3.37985 -2.58972,1.29558 -4.1118,1.49426 -7.05542,0.92096 z"
       id="path1" /></g></svg>
